<svg class="eastern-bluebird" xmlns="http://www.w3.org/2000/svg" width="600" height="359.62" viewBox="0 0 600 359.62"><defs><style>.cls-1,.cls-5,.cls-9{fill:#231f20;}.cls-2{fill:none;stroke-width:5px;}.cls-2,.cls-5,.cls-6,.cls-9{stroke:#231f20;stroke-miterlimit:10;}.cls-3{fill:#005087;}.cls-4,.cls-6{fill:#c1b6b9;}.cls-5{stroke-linecap:round;}.cls-7{fill:#ba2704;}.cls-8{fill:#fff;}.cls-9{stroke-width:4px;}</style></defs><title>eastern-bluebird</title><g id="eye"><path class="cls-1" d="M40.85,40.39,0,55.63l56.33-.05Z"/><path class="cls-2" d="M433.88,120.44H371.19c2.88,9,7.78,13.58,10.45,15.66,12.41,9.71,32.93,8.48,50.7-3.74"/><path class="cls-3" d="M40.84,40.39S75-.38,115.75,0c32.15.27,42.75,8,61,20.05L370.3,17.57l-4,342.05Z"/><path class="cls-3" d="M369.81,17.53V33.44H585.57L600,17.53Z"/><path class="cls-4" d="M369.46,33.44l-.33,84.83,89.33-84.83Z"/><path class="cls-5" d="M320.83,102.54l45.71,53.11"/><path class="cls-6" d="M279.76,102.54l86.78,97.35"/><path class="cls-5" d="M234.41,102.54,366.54,239.39M193,102.54l173.56,181.1m-216-181.1L362.85,322.09"/><path class="cls-7" d="M56,55.62H179.6s-51.6,37.52-.39,120.54Z"/><circle class="cls-8" cx="100.56" cy="29.74" r="11.82"/><circle class="cls-9" cx="100.56" cy="29.74" r="5.09"/></g></svg>