<svg xmlns="http://www.w3.org/2000/svg" id="gorilla-sitting" viewBox="0 0 571.18 786.16">
  <defs>
    <style>
      .cls-3{fill:#a0a0a0;stroke:#000;stroke-linecap:round;stroke-linejoin:round;stroke-width:2.75px}
    </style>
  </defs>
  <g id="gorilla">
    <path id="outline" fill="#a0a0a0" stroke="#000" stroke-linecap="round" stroke-linejoin="round" stroke-width="3.5" d="M526.93 318a198.74 198.74 0 0 1 21.32 37c5.78 12.89 10.7 26.64 12.07 40.78a93.55 93.55 0 0 1-.81 21.54 97.59 97.59 0 0 1-4.21 19.21c-2 5.76-5.18 10.9-6.65 16.87-1.82 7.34-2.79 14.87-4.34 22.27s-3.58 14.45-4.93 21.77a35.83 35.83 0 0 0-.61 12.34c.85 5.13 3.45 9.85 5.86 14.39 3.7 7 7.66 13.81 11.41 20.76a100.32 100.32 0 0 1 7.73 17.18 117 117 0 0 1 4.15 20.13 143.63 143.63 0 0 1 1.5 20.5c-.06 6.68-1.79 12.74-3.17 19.22-1.47 6.85-1.54 13.83-3.37 20.63a46.31 46.31 0 0 1-3.15 8.94A6.89 6.89 0 0 1 558 654c-.87.64-2 .58-2.89 1.24-1.66 1.25-2.78 3.8-3.67 5.61a87.59 87.59 0 0 0-3.82 9.24c-2.49 7-4 14.13-6 21.22a71.13 71.13 0 0 1-7.8 18.69c-2.77 4.42-5.84 8-7.27 13.14a35.94 35.94 0 0 1-2.51 7.5c-1.26 2.33-3.22 4.18-4.88 6.22-3.24 4-5 8.72-6.87 13.48-1 2.55-1.81 5.37-3.33 7.67s-3.62.93-5.19 3c-1.73 2.29-2.81 5-4.29 7.49a7.63 7.63 0 0 1-1.88 2.5c-1.13.76-1.84-.07-3 0-2.33.24-4.27 3.85-5.84 5.33a13.07 13.07 0 0 1-5.61 3.08 168 168 0 0 1-20.32 3.93 53.62 53.62 0 0 1-19.44-.53c-1.47-.32-3.48-1.3-5-1.25-1.07 0-2.16 1.11-3.42 1.46a30.16 30.16 0 0 1-6.36.79c-14.88.74-29.86-.66-44.77-.41-15.08.25-30.38 1.66-45.44.53a81.06 81.06 0 0 1-9.7-1.33c-2.17-.43-4.68-1.42-6.88-1.41a13.93 13.93 0 0 0-3.6 1.1 47.4 47.4 0 0 1-15.89 2c-7.71-.16-15.41-.78-23.13-.81s-15.51.15-23.26.13a117.87 117.87 0 0 1-20.3-1.35c-5.88-1-10.55-3.87-15.94-6.24-2.59-1.14-5.57-.33-8-1.67-2.28-1.24-4.12-3.59-5.9-5.39a18.3 18.3 0 0 1-8.8 10.19c-7.69 4.14-17.22 4.41-25.75 4.74-11.17.43-22.34 0-33.51-.32s-22.48-.7-33.73-.56c-11.41.14-22.82.75-34.23 1-10.1.23-20.47.33-30.42-1.66-7.6-1.52-14.81-4.76-19.65-11A30.61 30.61 0 0 1 13.57 754a19.51 19.51 0 0 1 5.94-15.2c2.48-2.52 5.16-4.91 6.77-8.12s2-6.61 2.49-10c.36-2.78.64-5.59 1.18-8.34A29.3 29.3 0 0 1 14.79 708c-2.71-1.66-7.83-5.06-7.7-8.76 0-1.27 1-2.24 1.34-3.41a4.46 4.46 0 0 0-.43-3.27 47.5 47.5 0 0 0-3.79-5.95c-1-1.6-2.11-3.32-1.88-5.3.29-2.47 1.11-4.12.63-6.69-.63-3.34-1.52-6.45-1.17-9.86.55-5.38 2.73-10.45 3.44-15.82s.07-10.83-.77-16.15a83.75 83.75 0 0 1-1.17-19.1 115.49 115.49 0 0 0-.55-17.93c-.35-4-1.33-9.32.34-13.21 1-2.41 3.54-3.74 4.89-6a49.66 49.66 0 0 0 2.76-6.08c1.65-3.84 3.61-7.33 7.39-9.43 3.59-2 7.76-2.73 11.26-4.88 4-2.45 5.29-6.7 7.54-10.54 2-3.5 4.92-4.76 8.77-5.25s7.3-.7 10.47-3c3.6-2.58 6-6.43 9.64-9 3.33-2.39 7.13-3.85 9.56-7.31s3.65-7.59 4.66-11.59c3-11.79 4.16-24.07 5.61-36.12 1.56-13.1 3-26.18 2.56-39.39-.39-12.73-2.09-25.39-2.36-38.13a158 158 0 0 1 3.6-34.53c2.57-12.63 5.32-25.3 7.38-38.09 2.23-13.91 4-28 7-41.76 2.32-11 5.83-21.92 13.69-30.24s18.53-13.25 29-17.6c6.08-2.51 12.25-4.9 18-8.1a95.25 95.25 0 0 0 14.76-10.39c1.29-1.09 2.56-2.19 3.83-3.3s.95-1 .56-2.31a15.39 15.39 0 0 1-.66-5c.18-4.83 1.83-9.48 2.21-14.28a7.23 7.23 0 0 0 0-2c-.21-1-.75-1.09-1.26-1.87-1.17-1.81-.28-5.55-.11-7.51.38-4.48-.42-9 .15-13.44.63-4.86 2.8-9.39 3.77-14.19a32.11 32.11 0 0 0 .06-10.89c-.66-4.63-1.81-9.42-1.31-14.13.45-4.24 3.58-6.3 5.14-10 1-2.27.93-4.9 1.06-7.32.16-3.15.58-6.24 1-9.36a108.35 108.35 0 0 0 .8-17.64c-.15-5.73-.41-11.56.72-17.21.72-3.55 2.32-6.3 4.13-9.41 1.93-3.3 2.74-7.1 5.24-10.06 3-3.54 7.09-6 10.88-8.56 4.29-2.91 7.43-6.6 11-10.29A81 81 0 0 1 241 15.12a68.23 68.23 0 0 1 14.68-7.56c5.65-1.91 11.61-2.81 17.43-4 4.31-.9 8.48-2.27 12.94-1.6 5.3.8 10.36 3 15.41 4.72 4.46 1.5 8.73 2.57 12.81 5 3.85 2.26 8.12 3.55 11.95 5.79 4.52 2.63 8 7 11.55 10.69 4.11 4.33 7.5 9 11.28 13.61 3.53 4.28 7.79 7.79 11.06 12.31 3.49 4.83 6.36 10.07 9.6 15.06 3.54 5.46 7.43 10.69 11.06 16.1a161.66 161.66 0 0 1 8.92 16 118.71 118.71 0 0 0 8.89 14.6c2.83 4 6.06 7.92 7.76 12.53 1.34 3.64 1.1 7.7 2.64 11.27.65 1.51 1.61 2.87 2.28 4.38a25.91 25.91 0 0 1 1.52 6.58 28.65 28.65 0 0 0 4.55 11.13c3 4.71 4.63 9.68 6.82 14.76a28.34 28.34 0 0 0 6.73 10c4.26 3.93 9 7.26 13.3 11.21 9.22 8.52 17.58 17.21 24.44 27.76 7.17 11 13.7 22.4 21.27 33.13 7.15 10.14 15.33 19.52 22.39 29.72a118.66 118.66 0 0 1 14.7 29.8z"/>
    <path id="outline-2" fill="#a0a0a0" stroke="#000" stroke-linecap="round" stroke-linejoin="round" stroke-width="2" d="M210.6 94.52a98.35 98.35 0 0 1 20.8-19c8.17-5.66 17-10.28 26.82-12.3a91.81 91.81 0 0 1 28.22-.93c8.32.92 16.9 2.74 24.3 6.79 8.16 4.47 13.81 11.8 18.25 19.81.64 1.16 1.26 2.34 1.88 3.51" data-name="outline"/>
    <path id="outline-3" d="M156.8 657.69c4.94-3.66 9.87-7.22 14.61-11.14a24.74 24.74 0 0 1 5-3.48c1.84-.88 3.58-.78 5.54-1 2.56-.26 4.24-1.88 5.48-4.05" class="cls-3" data-name="outline"/>
    <path id="outline-4" d="M205.81 769c-3.36 9.62-13.11 12.79-22.39 14-18.42 2.38-37.45.83-55.93.31-17.89-.51-35.69.1-53.57.64a232.11 232.11 0 0 1-24.32-.23c-7-.51-14.28-1.51-20.6-4.72-9.58-4.88-15.38-15.13-15.46-25.8a18.51 18.51 0 0 1 4-12.28c3.74-4.47 8.23-7.54 9.92-13.36 1.84-6.37 1.06-13.47 3.74-19.6 2.38-5.46 8.21-6.76 13.61-6.35 7.52.56 14.78 3.69 21.83 6.11a110.51 110.51 0 0 0 23.45 5.53c17.78 2 35.69.41 53.53.62 14.38.17 28.64 2 39.83 11.78a48.38 48.38 0 0 1 6.9 7.47" class="cls-3" data-name="outline"/>
    <path id="outline-5" d="M55.59 579.53c4.14.26 8.27.9 12.43.62s7.93-1.44 12-1.65c6.63-.35 11.81 2.87 16.83 6.85 2.74 2.17 6.12 6 9.82 6.4a4.48 4.48 0 0 1 3.85 2.32 41 41 0 0 1 2.36 4c2.11 3.88 4 8 6.61 11.54 2 2.78 4.46 4.34 7.31 6.1 6.79 4.19 9.88 12.85 13.3 19.65a99.2 99.2 0 0 0 6.13 11 49.91 49.91 0 0 0 7.71 8.53 37.52 37.52 0 0 1 10.38 15.64c2.27 6.29 4.47 13.6 3.84 20.36-.51 5.42-3.91 9.16-8.32 12A80.89 80.89 0 0 1 134.9 713a55.35 55.35 0 0 1-5.73 1" class="cls-3" data-name="outline"/>
    <path id="outline-6" d="M193.13 460.36c-.76 3.35-1.56 6.69-2.13 10.08-.48 2.92-.54 5.85-.85 8.78-.53 4.91-2.44 9.49-4.33 14-5.2 12.39-10.95 24.79-12.84 38.21a87.17 87.17 0 0 0 3 36.5c1.94 6.6 4.65 12.94 6.66 19.52a57.87 57.87 0 0 1 2.51 17.73c0 6.68-.81 13.38-.22 20a68.12 68.12 0 0 0 3.83 16.35c.57 1.64 1.18 3.26 1.78 4.88" class="cls-3" data-name="outline"/>
    <path id="outline-7" d="M451 671.51c-1.35 8-2.78 16-2.5 24.25.15 4.37.77 8.72 1.2 13.07.1 1.1 1 5.9-.6 6.41s-2.22-1.5-2.8.87a13.88 13.88 0 0 0 0 4.07c.29 4.09.95 8.15 1.32 12.24.46 5.23-.84 10.31-.26 15.52.91 8.07 3.21 15.94 4 24 .19 1.91.69 5.2-1.44 6.17-2.57 1.18-7.27-.86-9.72-1.39-4.74-1-9.45 0-14.23-.48-7.39-.79-14.48-3.37-21.9-4-7.76-.69-15.4 1.34-23.16 1.23-8.85-.13-17.71-.8-26.54-1.29l-5.83-.36" class="cls-3" data-name="outline"/>
    <path id="outline-8" d="M347 101a39.65 39.65 0 0 0 2.49 13.12c2.11 5.21 5.41 9.81 8.07 14.74a79.9 79.9 0 0 1 6.47 16c.94 3.35.51 6.89 1.45 10.17 1 3.47 4.08 6 5.42 9.42 1.83 4.64 2.23 9.68 3.82 14.39.73 2.13 1.84 4.22 2.12 6.48a11.45 11.45 0 0 1-1.45 6.23c-1.76 3.76-3.48 7-3.63 11.23-.18 5 .56 10.12-.24 15.11a7.35 7.35 0 0 1-2.24 4.65c-1.7 1.52-2.67 2.62-3.08 4.94-.81 4.53-.21 9.23-1.18 13.73-.59 2.69-2.14 4.15-3.95 6.09a15.31 15.31 0 0 0-3 5.28c-1.84 5-2.34 10.4-3.82 15.52-1.21 4.22-3.53 7.39-6.23 10.79a41 41 0 0 0-4.68 7.13c-1.18 2.38-1.95 4.93-3.11 7.32a11.59 11.59 0 0 1-4.45 5.05c-1.89 1.17-4 2-5.52 3.66-2.55 2.69-3.89 6.24-6.59 8.83a28.87 28.87 0 0 1-8.61 5.5c-5.13 2.26-10.06 5.11-15.28 7.11-4 1.52-8.54 2.45-12.49.44-1.65-.84-3.16-2.09-5-2.49s-3.7.08-5.53.1c-4.45 0-8.14-3.43-11.39-6.06a51.15 51.15 0 0 1-11.92-13.27c-2.25-3.73-4.3-7.49-7.57-10.45-6.92-6.26-16.65-7.93-23.3-14.48-3.82-3.76-6.69-8.34-10.13-12.42-1.62-1.92-4-2.84-5.51-4.78a44 44 0 0 1-3.54-6.37 81.22 81.22 0 0 0-8.7-13.93 28 28 0 0 1-4.08-5.79c-.85-1.91-.59-3.81-.62-5.83-.14-8.57-7.4-15.45-6.93-24.08.27-4.8 1.92-9.42 2.22-14.21a5.23 5.23 0 0 0-.11-2.16c-.28-.68-.93-1-1.28-1.56-1.09-1.89-.11-5.92 0-7.89.36-4.32-.45-8.69.12-13 .64-4.78 2.76-9.24 3.73-14 1.72-8.4-2-16.54-1.24-24.92.37-4.08 3-6.12 4.83-9.52a15.78 15.78 0 0 0 1.31-6.55c.16-2.93.39-5.82.79-8.72a108.12 108.12 0 0 0 1.14-17.52c-.15-6-.52-12.08.42-18a23.82 23.82 0 0 1 3.18-8.8c2.08-3.51 3.23-7.59 5.56-10.91s5.82-5.71 9.12-7.93a64.16 64.16 0 0 0 11.8-10.06A82.1 82.1 0 0 1 253.08 8.5c5.18-2.1 10.69-3.1 16.14-4.2 4.76-1 9.77-2.77 14.67-2.58 4.34.16 8.57 1.8 12.62 3.21 4.81 1.68 10.05 2.8 14.65 5 2.22 1.06 4.23 2.47 6.4 3.59 2 1 4.14 1.75 6.2 2.66 3.8 1.7 6.79 4.41 9.66 7.39a142.69 142.69 0 0 1 12.45 14c3.47 4.71 7.69 8.52 11.47 12.94a104.3 104.3 0 0 1 8.83 13c3.44 5.58 7.12 11 10.86 16.35a131.38 131.38 0 0 1 9.13 14.55c2.77 5.36 5.36 10.82 8.59 15.92 4.79 7.56 11.27 14 12.76 23.13a24.51 24.51 0 0 0 1.59 6.54c.72 1.55 1.71 3 2.34 4.55 1.49 3.79 1.18 8 2.84 11.8 1.84 4.2 4.85 7.75 6.63 12 1.94 4.62 3.32 9.54 6.14 13.73 2.71 4 6.75 6.77 10.47 9.77 4.67 3.75 9 7.94 13.28 12.1a139.86 139.86 0 0 1 21.5 27.3c6.95 11.13 13.76 22.34 21.61 32.88 7.42 9.95 15.67 19.35 22.15 30a123 123 0 0 1 13.84 34.2c2.74 10.92 3.82 21.88 2 33a237.29 237.29 0 0 1-8.49 35.89A79.13 79.13 0 0 1 517 411.9c-2.39 4.15-5.28 8.26-6.64 12.91-1.09 3.74-.85 7.66-.87 11.51A37.46 37.46 0 0 1 507.3 448a31.65 31.65 0 0 0-1.74 10.18c0 2 .57 5.54-.86 7.26-1.28 1.54-3.38 1.37-4.26 3.4s-.72 4.06-1.39 6c-.83 2.41-3.09 3.84-4.26 6.07-1.88 3.59-2.48 8-2.94 11.92-.61 5.16 0 10.35-.58 15.49a13 13 0 0 1-1.72 5.54c-1.35 2.07-2.92 3.43-3.25 6-.53 4.17.67 8.5-1.54 12.32-1.32 2.28-2.6 4-2.76 6.78a15.33 15.33 0 0 0 1.08 6.38c1.42 3.73 3.88 7 5.07 10.84a20.32 20.32 0 0 1 .64 7.37 30.82 30.82 0 0 0-.15 6.51c.24 1.61.76 3.16 1 4.77a32.56 32.56 0 0 1-.53 12.32 12.47 12.47 0 0 1-2 4.68c-1.6 2.12-4.14 2.95-6.16 4.57-3.67 3-3.94 8.14-6.61 11.79-1.41 1.94-3.58 2.9-5.41 4.36a14.55 14.55 0 0 0-3.38 4.11c-2.21 3.76-3.58 9.09-7.24 11.82-1.86 1.38-4.07 1.87-5.15 4.13a19.7 19.7 0 0 0-1.3 5.07c-.86 5.24-1.73 10.32-6.66 13.32-3.46 2.13-7.69 3.11-10.16 6.58-2.31 3.25-3 7.34-5.59 10.45-2.2 2.64-4.46 4.88-5.45 8.25-1.48 5-1.23 10.54-1.5 15.69a24.41 24.41 0 0 1-.78 6.43c-1 2.86-2.48 1.16-4.64 1.1-3.82-.12-4.93 9.51-5.65 11.92a14.13 14.13 0 0 1-2.75 5.78c-1.57 1.66-3.85 2.38-5.42 4.06-2.87 3.07-4.1 7.39-6.43 10.83a8.38 8.38 0 0 1-4.9 3.67c-2.31.64-4.35 1.08-6.11 2.85-3.39 3.42-5.2 8.13-7.93 12-1.47 2.1-2.72 2.7-5.19 3.12a12 12 0 0 0-4.56 1.89c-5.28 3.38-9.92 7.92-14.64 12-3.56 3.09-7.2 6.51-11.42 8.68-3.91 2-8.15.33-12.3 1.64-5 1.57-9.63 4-14.75 5.28a52.14 52.14 0 0 1-13.94 1c-13.93-.5-27.73-.76-41.68-.67-10 .06-20.85.42-30.36-3.09-4.84-1.79-8.85-5.16-14.12-5.4-4.94-.22-8.37-5.42-11.65-8.59-2.82-2.72-5.84-5.56-7.4-9.24-1.76-4.17-1.87-8.91-3-13.26-1-3.84-3.09-8.56-2.41-12.66.35-2.21 2-3.9 2.47-6.08a20.74 20.74 0 0 0 .19-5.34c-.17-3.22-.65-6.48.25-9.64 1.27-4.51 3.54-8.67 4.53-13.27.78-3.63.37-7.38 1.11-11a37.19 37.19 0 0 1 6-13.5c2.27-3.27 5.36-6.79 9.26-8.06 2.11-.69 4.08-.94 5.92-2.3a23.2 23.2 0 0 0 4.64-4.85c2.9-3.91 4-8.68 6.7-12.62 2.82-4.11 8.43-1.27 12.16-4.13 1.9-1.45 3.46-3.2 5.79-4a17.24 17.24 0 0 1 3.71-.7 30.38 30.38 0 0 0 5.78-.82c2.66-.83 3.43-3.06 5.32-4.8 3.46-3.18 8.62 1 12.26-1.45 1.89-1.28 2.48-4.12 3.38-6.08a18 18 0 0 1 3.17-4.6c2.64-2.91 5.22-5.45 6.22-9.36.94-3.65.76-7.55 2-11.14 1.35-4.09 5.66-6.15 7.5-10s2.66-8.53 3.49-12.85c.9-4.74 1.38-10.54 4.31-14.58 1.36-1.87 3.38-2.79 5.1-4.24a10.13 10.13 0 0 0 3.29-5.69c1.2-4.84 1.07-9.93 1.52-14.85a22.73 22.73 0 0 1 1.06-5.73 4.79 4.79 0 0 1 1.51-2.34c.82-.57 1.9-.37 2.72-.9 1.4-.91 1.65-3.23 2-4.73a34.94 34.94 0 0 1 1.43-5.21c1-2.38 2.56-3.31 4.7-4.45s2.82-2.73 2.68-5.15c-.23-3.84-2.09-6.78-3.86-10.05-2.11-3.91-1.64-8.59-1.49-12.87.09-2.63.27-5.3.1-7.93a7.65 7.65 0 0 0-.47-2.73c-.43-.89-1.2-1-1.82-1.67-1-1.13-.68-3.11-.55-4.51.26-3 .82-5.89 1.06-8.85a13.68 13.68 0 0 0-.36-5.48c-.66-2-1.72-3.63-1.73-5.85 0-4.91 1.82-9.72 2.49-14.54.26-1.88.39-3.56-.66-5.22a6.11 6.11 0 0 1-.69-5.25c1.16-5.33 3.61-10.43 5.69-15.45a93.14 93.14 0 0 0 5.32-15.85 89.47 89.47 0 0 0 1.53-9.17c.14-1.27.71-3.85.15-5.15s-.76-.09-1.54-.61-.38-2.43-.36-3.12c.07-2.69.4-5.38.72-8 .76-6.32 1.74-12.61 2.52-18.93 1.2-9.74-.06-19.94-2.52-29.41" class="cls-3" data-name="outline"/>
    <path id="outline-9" d="M204.38 290.3c-3.35 10.36-6.65 20.67-10.69 30.78-4.24 10.58-8.58 21.14-11.9 32.06a134.9 134.9 0 0 0-5.68 30.53 161 161 0 0 0 1.39 32.46c1.42 10.34 3.41 20.83 7.09 30.63 2.28 6.09 6.18 15.33 14 15.27 3.65 0 7.2-1.76 10.36-3.44 4.79-2.57 9.35-5.56 14.1-8.21 9.23-5.15 19-8.7 29.69-8.58 10.92.13 21.7 2.79 32.35 4.94 9.8 2 19.29 2.92 29.28 1.83 3-.33 6.09-.69 9.13-1" class="cls-3" data-name="outline"/>
    <path id="outline-10" d="M321.18 212.56c1.94 4.75 4.86 9 6.81 13.81A60.55 60.55 0 0 1 332 242c.93 7.69.8 16.27-3.09 23.21-3.7 6.63-10.43 10.45-17.39 12.9a94.68 94.68 0 0 1-30 4.91c-8.06.1-17-.45-24-4.86-6.77-4.26-10.4-11.85-12.36-19.35s-2.41-15.38.11-22.81c2.26-6.64 5-12.66 3.93-19.82a15.84 15.84 0 0 0-4.88-9.8c-3.24-2.87-7.53-4.44-11.4-6.22-6.42-3-11.84-6.65-15.47-12.82-4.08-6.94-6-15.15-6.63-23.11-.59-7.49-.29-16.07 3.74-22.67 3.21-5.26 8.53-7.68 14.42-8.61 10.51-1.67 21.32-.4 31.91-1.34 11.31-1 22.35-3.76 33.38-6.29 6.8-1.57 14.56-4 21.49-1.8 6.26 2 11 7.58 14.39 12.92 4.14 6.5 7.11 14.08 7 21.88-.09 8.17-3.67 15.53-7.81 22.39s-10.77 14.39-10.07 22.94a30.34 30.34 0 0 0 1.92 8.92z" class="cls-3" data-name="outline"/>
    <path id="outline-11" d="M261.31 228a29.11 29.11 0 0 1-8.44-21.43c.12-5.2 1.93-10.24 6.34-13.33a13.69 13.69 0 0 1 13-1.55c2.34.88 4.6 2.42 7.09 2.84 3 .51 4.63-2.24 6.38-4.22a12.74 12.74 0 0 1 9.92-4.45c7.55.08 13.44 5.81 17.08 11.94a28.32 28.32 0 0 1 3.38 21.58c-.36 1.46-.8 2.9-1.29 4.32" class="cls-3" data-name="outline"/>
  </g>
</svg>
