<svg class="gorilla-walking" xmlns="http://www.w3.org/2000/svg" viewBox="0 0 608.1 676.9">
  <style>
    .st1,.st2{fill:#a0a0a0;stroke:#000;stroke-width:2.74;stroke-linecap:round;stroke-linejoin:round}.st2{fill:none;stroke-width:1.99}
  </style>
  <g id="gorilla">
    <path id="body" fill="#a0a0a0" stroke="#000" stroke-linecap="round" stroke-linejoin="round" stroke-width="3.49" d="M596.3 644.2c7.9 4.8 10.7 13.9 9.9 22.8-.3 2.9-1.3 5.2-4.2 6.3-1.7.6-3.5.9-5.4 1-6.4.3-12.8.1-19.1-.6-1.6-.1-3.2-.3-4.8-.5-1.4-.4-2.8-.6-4.2-.6-2.6.2-5.1 1.4-7.7 1.6-1.8.1-3.6-.2-5.4-.8-2.1-.8-4.3-.9-6.5-.3-5.4 1.2-10.9 1.7-16.4 1.4-6.2-.2-12.5.1-18.6-.7-4.2-.5-9.7-1.5-12.1-5.3-2-3.2-2.3-8-2.1-11.7 0-.9.2-1.8.3-2.7-2.1.8-2.8-2.4-3.5-3.8-1.3-2.4-2.5-4.8-3.5-7.4-1.5-4.7-1.7-9.8-.5-14.6.8-3.5 1.6-6.5.8-10-.9-3.8-2.6-7.5-2-11.5.6-4.2 2.4-8 1.3-12.2-1.3-5-4.7-9.2-7.5-13.5-1.9-3.1-3-6.5-3.3-10.1-.5-4.7.7-10.2-4-13.1-4.9-3-9.6-5.7-13.8-9.7-3.8-3.7-6.5-8.5-10.7-11.7-1.6-1.2-3.8-2-5-3.6s-.6-3.9-1.1-5.9c-.6-2.7-3.5-4.1-5.4-5.8-1.7-1.5-2.3-3.3-3.4-5.2-1.4-2.4-3.8-2.9-6.2-4-3-1.3-2.5-3.1-2.8-6-.2-2.6-2-4.1-4-5.5-1.4-1-5.6-2.9-5-5.2.5-1.7 4.4-3.5 2.2-5.2-1.6-1.3-5-1.4-6-3.4-1.2-2.3 3-4.3 2.4-6.8-.5-2.1-3.9-3.3-5.5-4.4-.7-.5-2-1.2-1.8-2.2.2-1.4 2.3-1.9 2.8-3.1.9-2-4.3-3.7-5.5-4.3-1.9-.9-4.7-2.1-5.5-4.1-.8-1.9.3-4 .9-5.8.8-2.5.2-3.9-2-5.5s-5.1-2.8-3.6-5.8c.9-1.9 3-3.5 3.4-5.6s-2.4-2.9-4-3.5-5.2-1-6-2.8c-.4.6-.9 1.2-1.4 1.7-.8 1-1.6 1.9-2.3 2.9s-1.7 2.2-2.5 3.3c-2 2.8-3.8 5.8-5.6 8.8-2.7 4.4-5.4 9.4-9.6 12.6-2.1 1.6-4.5 2.9-6.6 4.5-2.7 2.1-5.3 4.5-8 6.6-3.5 2.6-7.7 3.3-11.2 5.7-3.8 2.6-6.8 6.4-11.2 8.1-4.7 1.9-10 1.6-14.9 2.5-6.6 1.1-13.1 2.9-19.7 3.8-7.2 1-14.5.5-21.7.3-1.4 0-2.8-.1-4.2-.1-.8 0-4.6-.4-5.2.1-.3.3-.1 2.2-.1 2.7 0 .8 0 1.6-.1 2.4 0 1.8 0 3.5.1 5.2.3 3.4.9 6.7 1.8 10 .4 1.1.6 2.3.6 3.5 0 1.5-.8 1.7-1.7 2.7-1.6 1.7-.7 4.7-.3 6.8.7 3.3 1.6 6.6 2.1 9.9.6 3.5.2 7.1-1.2 10.3-1 2.1-1.9 4.3-2.6 6.6-.6 3.1-1.1 6.1-1.4 9.2-.6 4.4-2.8 8.5-3 13-.2 4.3 1.2 8.5-1.2 12.5-1.7 2.8-3.1 5.1-3.5 8.4-.3 3 .2 6 1.4 8.7 1.1 2.2 2 4.5 2.9 6.8.4 1.1.3 2.3-.4 3.2-.9 1.2-1.5 1.8-.8 3.3 1 2.4 3 4.5 4.5 6.6.6.7 1 1.5 1.2 2.3.3 1.5-1 1.4-2.1 1.8-1.4.5-.7 1.3.2 2.1.9.9 1.9 1.7 3 2.5 2.5 1.9 5.4 3.5 7.6 5.8 1.9 2 1.7 3.3-1.1 4 4.4 4 11 5.4 16.6 6.9 4.2 1.1 8.5 2 12.7 3 2.7.5 5.2 1.4 7.6 2.7 3.5 2.2 5.7 8.2 3.9 12-2.5 5.2-11.5 5.2-16.3 5.4-17.6.9-35.4.1-52.9-.1-7.9-.1-15.8-.2-23.7-.2-8.7 0-17.3.3-26 .1-5.3-.1-11.9.2-16.6-2.7-2-1.3-3.4-3.4-3.8-5.8-.7-3.7-1.2-7.4-1.3-11.2-.1-1.4-.1-2.9.1-4.3-5.3 2.3-6.2-9.1-6.7-12.1-.5-3.2-.6-6.7-1.6-9.7-.3-1.2-1.2-2.1-2.3-2.5-1.3-.5-2.5-.6-3.4-1.7-1.5-1.9-1.7-4.9-1.9-7.2-.2-3.2-.2-6.5-.1-9.8.3-7.2 1.2-14.3 1.7-21.5.1-1.6.2-3.2.2-4.8 0-.9.2-2.9-.5-3.5-1-.8-1.8 1.2-2.8.6-.7-.4-.7-2-.7-2.7-.4-6.2.9-12.6 1.7-18.7.5-3.8 1.1-7.5 1.4-11.3.1-1 1-6.8-.8-6.5-1.1.2-1.7 2.6-2.9 2.6s-.9-2-.9-2.8c.1-3.4.3-6.9.8-10.3.4-2.9.6-5.7.7-8.6 0-1.6-.4-3.2-.5-4.8-.4-6.8.3-13.9 1-20.7.1-1.6.3-3.1.6-4.7-.8 1.6-1.9 3.1-3.3 4.4-2.1 1.9-4.8 3.2-6.7 5.3s-3.1 4.9-4.7 7.3c-1.3 2-2.9 3.7-4.7 5.2-2 1.7-4.3 3.1-6 5.1-1.4 1.8-2.6 3.7-3.5 5.8-2.8 5.9-5.7 12.5-6.2 19s1.1 12.8.5 19.2c-.5 5.4-3.4 10.2-4.8 15.4-3.9 14.8-4 30.5-6.8 45.5-.3 1.5-.6 3-1 4.5-.1.4-.5 1.1-.4 1.4.1.8 1.4 2 1.9 2.6 1.6 2.2 2.8 4.6 4.3 6.8s4.8 3.3 7 4.8 3.3 3.9 5.5 5.3 5.1 2 7.6 2.7c2.5.6 4.8 1.9 6.7 3.7 4.4 4 11.4 1 16.6 2.7s2.8 8.6 1 11.9c-2.7 5-10.1 5.4-15 5.8-15.6 1.5-31.6.5-47.3.2-16.7-.3-33.3-.2-49.9 0-6.7.1-13.5.1-20.2-.3-3.7-.2-7.5-.6-11.2-1.2-2.6-.3-5.2-1.1-7.5-2.3-2.2-.5-2.2-2.5-2.2-4.9-7.2.3-4-13-3.5-16.9.8-5.9 2-12 .2-17.9-.9-2.5-1.5-5.1-1.8-7.7-.2-3.6 0-7.3.4-10.9.9-9.3 2.2-18.6 3.3-27.9 1-8.5 2.1-17.1 3.1-25.6 1-8.1 2.6-16.2 4.7-24.1 1.1-4.2 2.4-8.4 3.9-12.5.7-2 2.2-5.2 1.6-7.4-.5-1.7-2.2-1.5-3.3-2.6s-.3-2.2.2-3.3c1.1-2.3 2.8-4.5 3.1-7.1.4-2.8-1.2-5.6-.2-8.4.9-2.4 2.8-4.3 4.1-6.4 2.7-4.2 1.2-7.9 1-12.6 0-2.3.4-4.6 1.3-6.7 1.3-3.4 2.2-7 2.8-10.6.3-3 .2-6.1-.3-9.1-.4-2.6-1.2-5.5-.5-8.1 1-3.4 4.7-5 4.9-8.8.1-2.9-.9-5.7-1.1-8.6-.2-1.1-.1-2.3.2-3.4.6-1.6 2.2-2.6 2.7-4.3.9-3-.8-6.8-1.6-9.6-1.5-6 1.2-11.5 1.6-17.5.3-4-1.7-7.5-2-11.5-.4-5 2.6-9.6 2.4-14.5-.3-2.1-.7-4.2-1.4-6.2-.5-2-.6-4-.5-6 .5-4 1.2-8.1 2.2-12 .7-3.6 1.2-7.3 1.3-11 .2-5.5 2.6-9.7 5.5-14.3 2.2-3.5 4.4-6.9 6.9-10.1 2.3-3 5.1-5.4 7.5-8.4 4.5-5.5 5.9-12.9 10.7-18.3 1.7-1.9 3.8-3.5 6.1-4.6 2.7-1.3 5.6-2.3 7.5-4.8 1.7-2.3 2.7-5.1 4.5-7.4 1.9-2.2 4.1-4.2 6.5-5.8 5.3-4 11.4-7.1 17.8-9.1 8.4-2.4 16.7-5.4 25.3-7s17.3-2.5 26-3.2c7.9-.7 15.7-1 23.6-1.1 9.2-.1 18.5-.1 27.7-.6 8.4-.5 16.8-1.6 24.5-4.9s14.5-8.4 21.5-13c3-2 6.2-3.9 9.5-5.4 3.6-1.7 7.3-3.2 10.5-5.6 6.3-4.8 10.7-11.8 15.4-18 4.6-6.4 10-12.1 16.2-17 5.9-4.5 13.3-7.8 18.3-13.4 3.6-4 4.4-9.7 7.2-14.2 4-6.2 8.8-11.7 14.4-16.5 6.3-5.6 13.4-10.2 20.1-15.3 6.8-5.1 13.4-10.7 19.6-16.6 2.9-2.6 5.5-5.5 7.9-8.5 2.4-3.1 4.2-6.7 6.3-10 4.5-7 9.6-13.7 15.1-19.9 5.4-6.2 11.3-11.9 18.3-16.2s15.2-7 22.8-10.4c8-3.6 14.2-9.1 20.9-14.6 5.1-4.2 11-8 17.6-9.1 8-1.3 16.5.8 23.9 3.8 6.4 2.5 12.3 6.3 17.3 11.2 5.6 5.6 10.3 12 13.9 19.1 3.8 7.5 6.1 15.6 9.8 23.2 2.9 5.9 7 11.6 8.2 18.2.6 3.5.4 7.1 1.1 10.6.7 3 1.8 5.8 3.2 8.5 1.9 3.8 3.4 7.8 4.3 11.9.8 4 1.2 8 2.3 12 1.9 7.4 4.4 14.6 4.2 22.4-.1 4.1-.6 8.2-.8 12.3s.2 8.1 0 12.2c0 2.2-.5 4.5-1.3 6.5-1 2.4-2.4 4.5-2.5 7.2-.1 2.8.8 5.6 1.1 8.4.2 1.1.2 2.1.2 3.2-.1.9-.2 1.8-.2 2.6.3 1 .8 1.9 1.3 2.7l1.2 2.7c.8 1.8 1.4 3.7 1.9 5.5 1 3.7 1.7 7.5 2.2 11.3.6 3.8.9 7.7 1 11.6 0 .9.2 3.4-1 3.2-.4-.1-.8-1-1.2-.9s-.3 1.4-.3 1.8c.2 3.9 1 7.8 1.4 11.7.1.6.6 3.4-.1 3.8-.3.1-.6-.6-1.1-.3s-.3 1.7-.3 2.2c-.1 4.4.5 8.8.9 13.1.2 2.8 1 6.5-.4 9s-.4 6.3-.1 8.9c.4 4.3 1 8.5 1.4 12.8.9 8.3 1 16.6.3 24.8-.5 3.7-.6 7.4-.4 11.1.4 3.2 1.3 6.2 2.5 9.2 1.2 3 2.7 6 3.3 9.2.5 2.6-.7 5.1-.7 7.7.1 2.3.6 4.6 1.3 6.7 1.3 4.3 3 8.5 4.6 12.6 1.4 3.4 2.5 6.8 3.4 10.3.3 1 .4 2 .3 3-.3 1.7-1.9 1.4-3 2.4-1.4 1.4-.4 4.7 0 6.3 1 4 2.3 7.9 3.3 11.9.6 2.2 1.5 5.2.3 7.4-.9 1.6-1.7 2.5-1.7 4.5 0 1.3.2 2.7.4 4 1 6.5 2.6 12.6 1.2 19.2-.6 2.1-.9 4.4-.8 6.6.3 3.1 1.5 6-.4 8.8-1.8 2.7-3 4.7-2.9 8s1 6.9 1.4 10.3c.2 1.2.3 2.5.1 3.8-.3 1.6-1.5 2.8-1.9 4.4-.7 3.3.4 7 .7 10.3.2 1.2.2 2.5 0 3.7-.4 1.5-1.9 1.9-2.7 3.1-1.6 2.6-1 7.1-1.1 9.9-.1 2.6.3 6.6-2.8 7.3s-3.1 4-3.7 6.5c-.2 1-.5 2-.8 3-.7 1.6-1.8 2.3-3.2 3.3-1.7 1.5-3 3.5-3.5 5.7-.6 1.7-.9 3.5-1.1 5.3-.2 1.1.1 2.3.8 3.2 1 .9 1.7 2.1 2.1 3.3.8 2.9 1 6.1 3.1 8.5 1.7 2 3.3 3.6 3.9 6.2.9 3.7 1 7.5 1.7 11.2.3 1.9.9 3.8 1.4 5.7.3 1.2.9 3 .3 4.2s-2.3.9-3 1.9-.3 2.2 0 3.2c.9 2.9 2.1 5.6 3.7 8.1 2.5 4.5 5.2 9.1 4.8 14.5.1 1.2-.4 2.3-1.2 3.2-1.4 1.2-2.2 1.2-2 3.2.2 2.5 1.3 5 1.5 7.5.2 2.7-1.6 4.5-2 7.1-.1 1.3-.1 2.6.1 4 .1 1.2.6 3.2-.1 4.3l-.2-.2z"/>
    <path id="foot" d="M157.6 489.8c-.6 4.8-1 9.6-1.3 14.4-.2 4.2-.7 8.6-.1 12.8.4 2.9.3 5.8-.1 8.7-.3 2.9-.6 5.9-.9 8.8-.3 2-.3 4-.1 6.1.5 2.8 2.3-.5 3.4-1.2 1.7-1.1 1.4 2.1 1.3 3.2-.2 5.3-1.2 10.5-1.9 15.7-.6 4.6-1.3 9.2-1.5 13.9-.1 1.5-.1 3 .1 4.5.1.7.2 1.6 1 1.6s1.4-1.3 2.2-.9c1.1.5.7 3.8.7 4.8-.1 2.6-.3 5.2-.5 7.8-.4 5.1-.9 10.2-1.2 15.3-.4 4.5-.3 9 .1 13.5.1 1.8.6 3.6 1.5 5.2 1.1 1.8 3.1 1.4 4.6 2.6s1.7 3.4 1.9 5c.4 2.5.7 5 1.1 7.5.5 3.2.9 8.5 3.4 11 2.4 2.2 6.1-1.6 8.1-2.8 1.3-.8 2.7-1.3 4.2-.7 1.8.8 2.7 2.7 4.3 3.7 2.7 1.8 6.1-1.5 8.6-2.5 2.2-.7 4.5-1 6.8-.9 4.9.1 9.6 1.2 14.4 1.7 3.1.3 6-.3 9.2-.4 4.6-.1 9.1.7 13.6.7 3.8 0 7.3-.3 8.8-4.2.7-1.9 1.3-2.8 3.5-2.5 1.8.4 3.5.8 5.2 1.4 4 1.1 8.1 1.6 12.2 1.4 1.6-.1 7.4-.3 6.2-3-.7-1.5-2.5-2.8-3.8-3.8-2-1.5-4.1-2.9-6.1-4.5-.7-.5-3.5-2.4-2.7-3.5.5-.6 1.8-.3 2.4-.8s.4-1.2 0-1.9c-1.4-3.1-4.5-5.3-5.6-8.5-.7-2.2 1.7-2.9 1.7-4.9-.2-1.4-.6-2.7-1.3-3.9-1.3-2.9-2.8-5.7-3.2-8.8-.6-4.5.7-8.2 3.1-11.9 3.2-5 .6-10.9 2-16.5.5-2 1.3-4 1.8-6.1.5-2.2.9-4.5 1.1-6.8.3-3.5 1.2-6.9 2.6-10.1 1.3-2.5 2.1-5.3 2.4-8.1.2-3.8-.8-7.6-1.6-11.3-.5-2-.9-4.1-1.2-6.1-.4-1.7.2-3.4 1.6-4.5 1.3-1.2.9-2.8.6-4.4-.5-2.3-1.3-4.6-1.7-7-.8-4.8-.6-9.6-.4-14.4" class="st1"/>
    <path id="belly" d="M160.3 460c3.1 2.9 6.2 5.7 9.9 7.8 4.5 2.2 9.1 4.2 13.8 5.9 4.3 1.6 8.5 3.5 12.6 5.5 4.3 2.2 8.5 4.8 12.9 6.6 7.6 3.2 16 2.8 24.1 4.5 4.8 1 9.5 2.4 14.3 3.2 4.3.7 8.7 1 13.1.8 4.9-.2 9.9-.5 14.8-.4s10 .4 15 .3c9.5-.2 18.6-2.7 27.9-4.4 6.2-1.1 12.9-.5 18.3-4.2 3.1-2.1 5.6-5 8.9-7 2.6-1.5 5.6-2.1 8.2-3.7 3.9-2.4 7-5.7 10.6-8.4 2.8-2.1 6.1-3.6 8.5-6.3 5.9-6.3 9.3-14.6 14.5-21.5 1.5-2 3-3.9 4.6-5.8" class="st1"/>
    <path id="chin" d="M154.6 343.5c-.9 4.1-1.4 8.3-1.3 12.5.3 4.2.9 8.3 2 12.3 2.1 9 4 18 4.4 27.3.3 9-1.6 18-1.2 27 .4 8.2 3.1 16.2 2.1 24.5-.6 4.3-.7 8.6-.4 12.9.6 4.6.9 9.2.9 13.8-.2 6.5-1.4 14.6-6 19.7-2.4 2.6-5.7 4-7.9 6.6s-3.4 6-5.6 8.8-5.1 4.5-7.7 6.8c-1.7 1.6-3.2 3.4-4.2 5.5-2 4-3.8 8.2-5.2 12.5-1.3 3.3-1.9 6.9-2 10.4 0 6.9 1.8 14.1-.1 20.9-1.1 3.8-2.9 7.3-3.9 11.1-1.1 4.3-1.9 8.6-2.5 13-1.4 9.8-2.3 19.7-3.8 29.5-.5 3.4-1 7-2.3 10.2-1.8 4.2-4.9 3.2-8.6 2.5-2.2-.6-4.5-.3-6.5.8-2.4 1.4-4.2 3.5-6.5 5-4.2 2.5-9.1.9-13.6 2.2-5.9 1.7-10.4 7.1-16.7 7.9-2.7.4-5.5-.5-8.2.1-3 .7-5.4 3.1-7.6 5s-4.6 3.9-7.6 4.7c-1.5.4-3 .5-4.5.2-1.7-.4-3.1-1.4-4.8-1.8-3.1-.8-5.8 1.7-8 3.5-2.6 2.2-5.4 5.1-8.8 6-9 2.2-5.2-13.8-4.7-18 .5-3.9 1.2-8 .9-11.9-.3-2.6-1-5.2-1.9-7.6-1.8-5.9-.9-12.4-.1-18.4L7 571.8c1-8.2 1.8-16.5 3.4-24.6 1.9-9.4 4.4-18.6 7.5-27.6.7-2 2.1-5.4 0-6.9-1.2-.9-3.1-.9-2.8-2.7s1.6-3.5 2.4-5c1.2-2.1 1.7-4.6 1.3-7-.5-3-.5-5.2 1.1-7.7 1.6-2.4 3.7-4.6 4.4-7.4.6-2.5 0-5-.3-7.4-.9-6.6 3-12.6 3.8-19.1.5-3.9-.1-7.5-.7-11.4-.5-2.9-.9-5.8 1-8.2 1.2-1.6 2.8-2.8 3.4-4.8.3-1.3.4-2.6.2-3.9-.3-2.9-1.8-6.5-1-9.5.5-1.8 2.4-2.9 2.9-4.7.3-1.6.2-3.3-.3-4.8-.7-3.1-2-6-1.9-9.3.1-5.8 3.2-11.3 2-17.1-.5-2.4-1.6-4.7-1.8-7.2-.2-2.9.7-5.7 1.4-8.5.7-2.2 1-4.5.9-6.9-.3-2.5-1.3-4.8-1.7-7.3-1-7 2.1-14.2 3-21.1.4-3.3.1-6.7.8-9.9.7-2.5 1.7-5 3.1-7.2 2.3-3.9 4.8-7.8 7.5-11.5 2.5-3.5 5.7-6.3 8.4-9.6 5-5.9 6.4-14.1 12-19.7 2.3-2.3 5.1-3.5 8-4.9 2.6-1.1 4.7-3.1 6-5.6 1.3-2.6 2.9-5.1 4.9-7.2 3.1-3.1 6.9-5.5 10.6-7.9 6.7-4.3 14.7-5.8 22.2-8.1 9-2.8 18.1-4.8 27.4-5.9 9.2-1.1 18.4-1.9 27.6-2.2 9.9-.4 19.9-.3 29.8-.6 9-.2 18.2-.6 26.9-3.3 9.1-2.8 16.9-8.4 24.7-13.6 3.4-2.3 6.9-4.4 10.6-6.3 3.7-1.8 7.5-3.3 10.8-5.7 7.5-5.5 12.3-14.1 17.9-21.2 5.4-6.8 11.8-12.8 19-17.6 5.4-3.6 12.4-7.1 15.4-13.2 1.6-3.2 2.5-6.8 4.4-9.9 2.1-3.5 4.5-6.8 7.3-9.8 5.5-6 11.7-11.5 18.5-16.2 7.9-5.8 15.7-11.6 23.1-18.1 6.7-5.9 13-12 17.6-19.8 4.7-7.8 10.1-15.2 16-22.1 5.9-7 12.4-13.5 20.2-18.3S452.8 29 461 24.8s14.4-10.7 21.8-16c6.5-4.7 13.5-7.3 21.6-6.8 8.9.8 17.6 3.7 25.2 8.4 6.8 4.2 12.3 10.3 16.9 16.8 5.4 7.7 8.6 16.2 12 24.8 1.6 4 3.5 7.9 5.5 11.7 2 3.5 3.8 7.1 5.2 10.9 1 3.2 1.1 6.4 1.4 9.7.2 3.1.9 6.2 2.2 9.1 1.8 4.4 4.2 8.5 5.3 13.1 1.1 4.3 1.5 8.7 2.5 13 2 8.4 4.8 16.2 4.4 24.9-.2 4.4-.8 8.8-.8 13.2 0 4.2.4 8.5-.2 12.7-.4 2.7-1.7 4.9-2.7 7.4-.8 2.1-1 4.3-.7 6.5.7 4.9 1.8 9.3.2 14.2-.6 1.9-1.6 3.7-2.9 5.2-1.2 1.2-2.2 2.5-3.1 4-.7 1.4-.5 2.9-.7 4.4-.5 3.7-5 3.8-6.9 6.6-.9 1.3-1.5 2.9-2.6 4.1-1.3 1.6-3.2 2.4-4.5 4-2 2.4-3 5.4-5.2 7.7-1.3 1.3-2.7 2.4-4 3.7-1 1.1-1.8 2.2-2.7 3.4-2 2.6-5.1 2.6-8.2 2.8-2 0-4 .2-6 .5-1.5.3-2.9.8-4.4 1-2.8.3-4.9-2.1-7.8-1.7-1.7.2-2.9.6-4.3-.6-1.6-1.5-2.4-2.6-4.7-2.6-1.8 0-3.5.5-5.3.4-2-.1-3.2-1.7-5-2.3-1.4-.3-2.8-.8-4.1-1.3-1.2-.6-2.4-1.4-3.6-1.9-2.7-1.2-5.1-1-6.9-3.8-1.1-1.6-1.7-3-3.7-3.6-1.1-.3-2.2-.7-3.3-1.1-1.5-.6-2.9-1.6-3.9-2.9-.7-1.1-1.2-2.3-1.7-3.6-.8-1.6-2-2.1-3.5-2.9-1.4-.8-2.5-1.9-3.3-3.3-1.4-2.3-2-5-3.3-7.4-1.7-2.9-2.3-5.6-3.3-8.7-.9-2.8-3.2-4.8-4.1-7.5s-1.2-5.7-2.3-8.5c-1.3-3-1.9-6-2.9-9-.9-2.7-2.3-5.2-4-7.5-1.7-2.4-4-4.2-5.6-6.7-1.7-2.5-3-5.3-3.9-8.2" class="st1"/>
    <path id="forehead" d="M485 68.6c12.3-5.1 23.9-12.9 37.4-14.1 5.7-.5 11.8 0 16.9 2.8 5.6 3 10 8.2 13.7 13.2 4.5 6 8.1 12.6 10.8 19.7" class="st2"/>
    <path id="back" d="M27.8 456.1c7.9-2.2 16.7-4.4 24.7-1.5 8.8 3.2 14.9 11.3 22.5 16.4 8.7 5.8 19 8.4 29.4 7.4 8.8-.8 17.7-4.1 23.6-10.9 7-8 9.3-19.4 10.8-29.6 1.6-11.4 2-22.9 3.2-34.3 1.2-11 3.2-22 5.9-32.8 1.4-5.9 2.9-11.9 4-17.8.4-2.2.7-4.5 1.2-6.8.3-1.4.9-3.2 2.4-3.6 3.4-.9 6.4 5.5 7.5 7.8 2.7 5.1 5.3 10.2 8.2 15.2 5.8 10.1 11.9 20.1 18.2 29.9 5.7 8.9 11.6 18 20.3 24.3 7.6 5.4 16.7 7.8 26 7.9 9.7.1 19.7-2 28-7 8.5-5.2 13.9-13.5 16.6-22.9 2.9-10.3 2.8-21.4.9-31.9-2-10.7-6.1-20.8-10.9-30.5-5-10.3-10.6-20.4-13.8-31.4-2.6-9-3.7-18.4-3.3-27.8.5-10.8 2.3-21.4 5.4-31.8 2.9-10.2 6.8-20.1 11.6-29.5 2.5-4.7 5.2-9.3 8.1-13.7" class="st2"/>
    <path id="ear" d="M446.7 133.1c-2.9-.6-5.8-1.2-7.6-3.7-1.2-1.7-2.1-3.6-2.6-5.6-1.2-4.1-1.5-8.4-.9-12.6 1.3-8.1 7-14.9 14.7-17.7 2.5-1 5.5-1.6 8.1-.5 2.7 1.2 4.4 3.9 5.8 6.4" class="st1"/>
    <path id="face" d="M561.5 179.9c3.2 5.5 4.7 11.7 4.3 18.1-.2 2.4-.7 4.7-2.8 6.1-1.4 1-2.8 1.6-3.3 3.4-.4 1.8-.7 3.6-.8 5.4-.4 3.6-2.2 5.6-5.2 7.5-2.4 1.4-4.1 3.7-4.8 6.4-1 3.2-2.3 5.5-5.8 6.4s-6.4-.2-9.8-.6c-2.1-.2-4.1.3-6.2 0-2.9-.5-5.5-1.6-8.5-1.7-3.6-.1-6.6-.1-9.6-2.4-3.1-2.4-5.9-5.1-8.4-8-3.5-3.9-5.1-8.6-6.1-13.6-1.1-6.2-1.7-13.5.4-19.6 1.4-4.1 5-6.9 6.3-11 1.5-4.8 1-10.4-.6-15-1-2.6-2.4-5-3.9-7.4-1.9-3.1-3.4-6.4-4.6-9.8-2-5.2-2.3-10.9-.9-16.3 1.3-5.6 4.1-10.7 7.9-14.9 2.8-2.9 6.4-4.8 10.4-5.6 6.4-1.2 12.9-.9 19.1 1.1 3 1 5.5 3 8.5 3.7s5.9 0 8.9 1.4c2.5 1.2 4.7 2.8 7.5 3 2 .2 4.1.1 6 .7 5.1 1.6 8.6 7.6 10.1 12.4 1.2 4.2.9 8.7-.7 12.8-1.1 2.9-2.6 5.8-3 8.9-.3 2.8.2 5.5-.3 8.2-.6 2.7-1.6 5.2-2.9 7.6" class="st1"/>
    <path id="nose" d="M524.5 179.3c-4.8-2.5-7.9-7.3-8.2-12.7-.2-4.7 1.8-10.3 5.8-13.1 3.5-2.2 8.1-1.9 11.2.8 1.7 1.4 3 3.3 4.5 5 1.9 2 2.7.6 4.2-1.1 3.3-4.1 7.8-4.7 12.1-1.6 3.5 2.6 6.3 6 8.4 9.8 2.5 4.6 1.8 9.5-1 13.8-.5.8-1.1 1.6-1.7 2.3" class="st1"/>
    <path id="foot-2" d="M500.1 654.1c-.6 3.5-.4 7 .4 10.5.6 3.7 3.2 6.7 6.8 7.7 4.2 1.3 8.7 2 13.1 1.9 5.5.1 11.1.3 16.6.3 4.3-.1 8.5-.6 12.7-1.7 3.8-.8 6.8 1.5 10.5 1.3 4.4-.2 8.7-1.9 13-2.7 2.2-.4 4.5-.9 6-2.8.7-1.1 1.3-2.3 1.6-3.6 2.1-7.5-.1-14.3-4-20.8-.4-.7-.8-1.3-1.3-2" class="st1"/>
    <path id="foot-3" d="M581.9 195.4c2.3 4.4 4 9.1 5.2 14 1.2 5.3 1.9 10.7 2.3 16.1.1 1.6.8 5.1-.1 6.5-1 1.6-2.4-2.2-2.3 1.2.1 4.8 1.6 9.4 1.6 14.2 0 .3.1 1.2-.2 1.4s-.5-.3-.8-.2c-.8.2-.8.9-.8 1.8 0 2.2.1 4.3.3 6.5.3 3.2.5 6.4.8 9.6.1 1.7.6 4.3-.3 5.9-.5.6-.8 1.4-.8 2.2v2.3c.1 2.4.4 4.7.6 7 .7 6 1.4 12 1.8 18.1.3 5.3.3 10.5-.2 15.8-.5 4.9-1.1 9.8-.2 14.7.9 4.7 3.1 9 4.7 13.5.7 1.7 1 3.4 1 5.2-.1 1.7-.7 3.2-.8 4.9-.1 3.2 1 6.4 2 9.4 1.8 5.4 4.1 10.6 5.9 16 .8 2.5 3.4 8 0 9.6-1.8.8-2.1 1.7-1.9 3.6.2 1.7.5 3.4 1 5.1 1.2 4.6 3.1 9.2 3.7 14 .2 2-.3 3.1-1.3 4.8s-.9 3.5-.7 5.4c.5 4.9 1.9 9.8 2.1 14.7.1 3.6-1 6.9-1.5 10.4-.4 3.2 1.4 6.5.5 9.6-.5 1.9-2.2 3.2-3 5-.7 1.7-1 3.6-.8 5.5.2 4.3 1.8 8.6 1.6 12.8-.2 2.2-1.8 3.7-2 5.9-.1 2 .1 4.1.4 6.1.4 2.1.6 4.2.5 6.4-.2 2.2-2.3 2.5-3.1 4.4-.7 1.7-.6 3.9-.7 5.7-.1 2.4 0 4.9-.3 7.3 0 1-.3 1.9-.8 2.8-.6.8-1.5.7-2.4 1-1.5.5-1.9 1.8-2.3 3.2-.5 1.9-.8 3.9-1.4 5.7-.7 2-2.1 2.7-3.7 4-2.2 1.7-3.2 4.8-3.8 7.4-.3 1.1-.5 2.3-.5 3.5-.1.8 0 1.6.3 2.3.3.8 1.1 1.2 1.7 1.8 1.2 1.5 1.4 4.1 1.8 6 .3 1.8 1.1 3.4 2.2 4.8 1.3 1.5 2.7 2.7 3.4 4.6.5 1.5.8 3 1 4.6.4 2.7.6 5.4 1.1 8.1.4 2.5 1.2 4.8 1.7 7.2.3.9.3 1.9.1 2.8-.4.9-1.3 1-2.1 1.4-1.5.8-1.4 2.2-1 3.7 1.9 7.6 8.1 13.2 8.6 21.3.1 1.2 0 2.4-.4 3.6-.8 1.8-2.9 1.6-2.8 3.8.1 3.3 2 6.4 1.5 9.7-.3 1.9-1.7 3.4-2 5.3s.2 4 .3 6c.1 2.1-.6 3.1-2.9 2.8-1.5-.3-2.9-.4-4.4-.5-4.2 0-8.2.8-12.4.7" class="st1"/>
    <path id="right-arm" d="M348.6 305.6c.5 3.1 1.9 6.1 4 8.5 1.1 1.2 2.4 2.1 3.4 3.4 1.2 1.6 2.3 3.3 3 5.1 1.6 3.2 3.1 6.4 5.7 9 3.6 3.7 8.1 6.5 12 9.9 3.8 3.2 7.1 6.9 9.9 11 2.7 4.1 4.5 8.8 7.3 12.8s5.6 7.6 7.1 12.3c1.4 4.3 2.1 8.9 2.2 13.4 0 4.3-.5 8.6-1.6 12.7-.8 3.2-1.7 6.6-3.8 9.2-1.6 2-2.9 3.6-3.1 6.3-.2 2.4.6 3.7 2.6 4.9 2.2 1.3.2 2.6-1.1 3.9-1.1 1-4.5 3.4-3.8 5.2.5 1.3 2.8 1.7 3.9 2.1 1.6.5 4.2.9 5.5 2.2 2.5 2.4-3.1 6.2-3.4 8.8-.2 2.2 2.6 3.4 4.1 4.5 1.8 1.2 2.7 2.5 2.2 4.7-.8 3.5-2.6 6.2 1 8.8 1.8 1.1 3.6 2.1 5.6 2.9 1.1.5 4 1.6 3.4 3.2-.6 1.4-3.7 2.2-2.6 4.1.9 1.5 3.4 2.3 4.9 3.3s2.7 2.2 1.9 4.1c-.7 1.5-3.3 3.6-1.9 5.3 1.1 1.4 3.6 1.8 5.1 2.6 1.9 1.1 1.4 2.1.1 3.5-1.7 1.8-2.3 3.1-.1 4.9 1.5 1.2 3.2 2.1 4.8 3.4 1.7 1.2 2.7 3.1 2.8 5.1.1 2.1-.2 3.8 1.8 5 1.9 1 4.2 1.3 5.8 2.7 1.3 1.1 1.7 2.7 2.5 4.1 1.9 3.6 7.1 4.8 7.7 9.1.2 1.5-.1 3.3.6 4.7.9 1.7 2.9 2.5 4.4 3.5 3.2 2.2 5.5 5.4 8 8.4 3 3.5 6.3 6.6 10.1 9.2 1.9 1.3 3.8 2.5 5.8 3.6 1.9 1 3.7 2 4.5 4.1 1.3 3.3.6 7.2 1.1 10.7.3 2.8 1.2 5.4 2.5 7.9 3.4 6.3 9.6 12.1 8.5 19.8-.5 3.1-1.8 6.1-1.7 9.3.1 3.5 1.6 6.7 2.3 10.1.4 2.1.3 4.2-.2 6.3-1 4.3-1.8 8.1-1.3 12.5s2.4 8 4.4 11.9c.6 1.2 1 3.4 2.2 4.1 1.5 1 3.7-1.3 4.9-2.1 1.4-1 3.3-2.8 5.2-2s2.6 3.2 4.9 3.2c3 0 5.7-2.2 8.7-2.2 2 0 3.6 1 5.4 1.8 1.7.9 3.8.8 5.5-.2 2.7-1.7 5.8-2.5 8.9-2.3 1.8.2 3.6.2 5.5.2 2.2-.3 3.5-2.2 5.7-2.5 4-.6 8.2.7 12.1-.3.9-.2 1.7-.7 2.3-1.4.5-.6.7-1.6 1.5-1.9 1.6-.6 3.2 1.6 4.8 1.3 2.3-.5.9-5.7.5-7.2s-1.3-2.7-1.8-4.1c-.8-2.4 1.9-3.5 2.9-5.3 1.8-3.3-1.2-8-1.4-11.5 0-.7-.1-1.7.7-2.1s1.9.6 2.6.3c1.2-.4-1-4-1.3-5-.8-2.5.2-3.6 2-5.2 1.6-1.5 1.5-2.8.5-4.6-.8-1.5-2.6-3.6-1.5-5.2.6-.9 1.6-1.2 1.9-2.3.2-.9.1-1.8-.3-2.6-1.3-4.1-4.4-7.3-6.6-10.9-1.8-2.8-4.2-6.8-3.6-10.2.2-1 .8-2 .6-3.1-.2-.9-.6-1.7-1.2-2.4-1.3-1.8-2.8-3.4-4.1-5.2-1.7-2.5-4-6.6-2.2-9.5.5-.9 1.5-1.6 1.5-2.7-.1-.9-.4-1.8-.9-2.5-1-1.9-2.2-3.7-3.1-5.6-2.4-5.6 2.1-11.2-.2-16.8-.7-1.7-2.2-3.3-2.5-5.2-.3-2.1 1.9-3.2 2.1-5.2s-1.4-3.7-1.4-5.6c0-2.2 2.6-3 3.2-5 .8-3-1.2-6.1-1.1-9 0-2.5 2.7-3.1 3.1-5.4.2-1.8 0-3.6-.7-5.2-.5-1.6-2-4-1.7-5.8s2.6-1.2 3-3c.6-3.1-1.6-7.2-2.9-9.9-2.1-4.1-4.2-8.6-5-13.2-.2-.7-.3-1.4-.2-2.1.2-.8 1-.7 1.2-1.4.6-1.3-2.4-5-3-6-1.4-2.2-2.4-4.6-2.9-7.1-.6-4-.4-7.9-1.4-11.9-1.2-4.6-2.8-9-4.7-13.4-1.9-4.6-4.6-9.4-5.6-14.3-.2-.8-.4-1.7.5-2s1.6.6 2.4-.2.6-2.6.5-3.6c-.4-4.9-1.3-9.7-2.6-14.4-.9-3.6-2.4-7.1-4.4-10.2-2.5-3.9-5.9-7.2-8.6-11-6.1-8.4-6.9-19.1-10.1-28.6-3.4-10-9.7-18.5-13.7-28.2s-4-20.3-5.5-30.6c-.8-5.1-2.4-10-3.7-15s-2.4-10.3-3.6-15.5" class="st1"/>
  </g>
</svg>