<?xml version="1.0" encoding="UTF-8" standalone="no"?><!DOCTYPE svg PUBLIC "-//W3C//DTD SVG 1.1//EN" "http://www.w3.org/Graphics/SVG/1.1/DTD/svg11.dtd"><svg width="100%" height="100%" viewBox="0 0 238 326" version="1.1" xmlns="http://www.w3.org/2000/svg" xmlns:xlink="http://www.w3.org/1999/xlink" xml:space="preserve" xmlns:serif="http://www.serif.com/" style="fill-rule:evenodd;clip-rule:evenodd;stroke-linecap:round;stroke-linejoin:round;stroke-miterlimit:10;"><g><g><g><path id="POLYLINE_280_" d="M87.714,39.934c2.433,-3.028 5.374,-5.629 8.563,-7.838c3.365,-2.331 7.006,-4.233 11.042,-5.063c3.794,-0.78 7.776,-0.805 11.615,-0.384c3.424,0.376 6.956,1.128 10.003,2.795c3.359,1.838 5.682,4.855 7.509,8.152c0.265,0.479 0.52,0.963 0.775,1.448" style="fill:none;fill-rule:nonzero;stroke:#000;stroke-width:2px;"/><path id="POLYLINE_268_" d="M65.571,271.745c2.035,-1.507 4.061,-2.97 6.013,-4.585c0.641,-0.53 1.309,-1.075 2.066,-1.434c0.757,-0.359 1.473,-0.32 2.282,-0.405c1.052,-0.11 1.744,-0.774 2.255,-1.668" style="fill:none;fill-rule:nonzero;stroke:#000;stroke-width:2.75px;"/><path id="POLYLINE_269_" d="M85.744,317.553c-1.384,3.961 -5.397,5.264 -9.216,5.758c-7.58,0.98 -15.414,0.343 -23.022,0.127c-7.365,-0.209 -14.689,0.044 -22.051,0.266c-3.333,0.101 -6.681,0.15 -10.01,-0.095c-2.876,-0.212 -5.878,-0.622 -8.477,-1.945c-3.945,-2.008 -6.334,-6.225 -6.365,-10.618c-0.013,-1.844 0.461,-3.621 1.659,-5.054c1.538,-1.841 3.389,-3.102 4.082,-5.501c0.758,-2.621 0.438,-5.545 1.54,-8.067c0.981,-2.246 3.379,-2.78 5.602,-2.615c3.095,0.231 6.083,1.522 8.986,2.518c3.15,1.08 6.341,1.898 9.654,2.274c7.318,0.831 14.69,0.171 22.031,0.258c5.92,0.07 11.789,0.804 16.396,4.847c1.051,0.922 2.004,1.953 2.84,3.073" style="fill:none;fill-rule:nonzero;stroke:#000;stroke-width:2.75px;"/><path id="POLYLINE_270_" d="M23.91,239.572c1.706,0.108 3.406,0.37 5.119,0.258c1.656,-0.108 3.263,-0.595 4.921,-0.681c2.728,-0.142 4.863,1.181 6.93,2.819c1.125,0.892 2.518,2.465 4.041,2.636c0.789,0.089 1.111,0.281 1.583,0.954c0.365,0.52 0.671,1.086 0.974,1.644c0.868,1.595 1.655,3.269 2.718,4.748c0.822,1.145 1.836,1.785 3.011,2.512c2.792,1.726 4.064,5.29 5.473,8.087c0.78,1.547 1.553,3.109 2.522,4.548c0.892,1.324 2.009,2.43 3.177,3.511c2.019,1.87 3.333,3.832 4.273,6.439c0.933,2.589 1.836,5.598 1.577,8.38c-0.208,2.23 -1.606,3.771 -3.422,4.923c-3.056,1.938 -6.726,3.355 -10.251,4.155c-0.778,0.177 -1.564,0.315 -2.357,0.411" style="fill:none;fill-rule:nonzero;stroke:#000;stroke-width:2.75px;"/><path id="POLYLINE_272_" d="M108.588,94.877c-2.338,-2.387 -3.555,-5.467 -3.474,-8.819c0.051,-2.142 0.797,-4.217 2.609,-5.49c1.612,-1.132 3.546,-1.325 5.362,-0.637c0.961,0.364 1.893,0.999 2.918,1.171c1.245,0.209 1.904,-0.924 2.624,-1.738c1.065,-1.203 2.473,-1.85 4.083,-1.833c3.108,0.033 5.534,2.392 7.031,4.918c1.627,2.746 2.144,5.78 1.391,8.882c-0.146,0.601 -0.328,1.192 -0.529,1.776" style="fill:none;fill-rule:nonzero;stroke:#000;stroke-width:2.75px;"/><path id="POLYLINE_273_" d="M80.525,190.522c-0.311,1.377 -0.644,2.753 -0.876,4.147c-0.2,1.202 -0.222,2.407 -0.351,3.616c-0.216,2.019 -1.002,3.906 -1.781,5.762c-2.141,5.098 -4.509,10.204 -5.285,15.729c-0.705,5.022 -0.194,10.168 1.231,15.022c0.797,2.717 1.911,5.328 2.739,8.034c0.734,2.4 1.058,4.793 1.036,7.301c-0.024,2.747 -0.336,5.504 -0.093,8.249c0.204,2.308 0.821,4.546 1.578,6.728c0.234,0.674 0.483,1.342 0.73,2.01" style="fill:none;fill-rule:nonzero;stroke:#000;stroke-width:2.75px;"/><path id="POLYLINE_276_" d="M143.853,42.588c0.086,1.848 0.329,3.672 1.026,5.397c0.868,2.148 2.226,4.04 3.321,6.069c1.115,2.066 2.023,4.343 2.661,6.601c0.39,1.38 0.213,2.838 0.599,4.188c0.409,1.427 1.679,2.486 2.229,3.878c0.753,1.907 0.917,3.985 1.575,5.92c0.298,0.877 0.755,1.74 0.87,2.67c0.112,0.908 -0.216,1.757 -0.595,2.565c-0.727,1.548 -1.433,2.882 -1.495,4.622c-0.073,2.065 0.231,4.163 -0.097,6.217c-0.12,0.749 -0.343,1.392 -0.924,1.914c-0.7,0.629 -1.097,1.079 -1.268,2.034c-0.333,1.864 -0.085,3.798 -0.487,5.652c-0.241,1.109 -0.88,1.708 -1.623,2.506c-0.586,0.63 -0.958,1.371 -1.252,2.174c-0.758,2.069 -0.965,4.28 -1.573,6.389c-0.5,1.737 -1.452,3.041 -2.565,4.441c-0.733,0.921 -1.397,1.879 -1.924,2.934c-0.489,0.979 -0.806,2.03 -1.281,3.014c-0.427,0.884 -0.997,1.559 -1.833,2.077c-0.778,0.482 -1.628,0.836 -2.27,1.51c-1.05,1.104 -1.601,2.565 -2.714,3.633c-1.027,0.986 -2.249,1.695 -3.546,2.265c-2.11,0.927 -4.141,2.102 -6.289,2.927c-1.627,0.624 -3.514,1.006 -5.138,0.18c-0.682,-0.347 -1.301,-0.863 -2.066,-1.025c-0.75,-0.159 -1.519,0.034 -2.274,0.039c-1.831,0.012 -3.352,-1.409 -4.687,-2.493c-1.93,-1.566 -3.618,-3.326 -4.906,-5.461c-0.928,-1.537 -1.77,-3.085 -3.116,-4.303c-2.85,-2.578 -6.854,-3.263 -9.592,-5.958c-1.574,-1.549 -2.754,-3.435 -4.172,-5.115c-0.666,-0.788 -1.662,-1.166 -2.265,-1.967c-0.596,-0.793 -1.008,-1.744 -1.458,-2.623c-1.046,-2.041 -2.151,-3.934 -3.582,-5.733c-0.592,-0.745 -1.291,-1.501 -1.68,-2.382c-0.347,-0.785 -0.241,-1.569 -0.255,-2.4c-0.057,-3.526 -3.045,-6.361 -2.85,-9.91c0.108,-1.976 0.787,-3.88 0.911,-5.852c0.018,-0.28 0.065,-0.626 -0.043,-0.889c-0.115,-0.281 -0.382,-0.39 -0.528,-0.643c-0.447,-0.778 -0.045,-2.434 0.021,-3.244c0.146,-1.781 -0.185,-3.577 0.051,-5.345c0.263,-1.968 1.133,-3.805 1.532,-5.745c0.711,-3.457 -0.831,-6.808 -0.511,-10.257c0.156,-1.682 1.254,-2.522 1.99,-3.921c0.435,-0.826 0.487,-1.782 0.538,-2.696c0.067,-1.206 0.163,-2.393 0.328,-3.589c0.331,-2.414 0.526,-4.772 0.466,-7.21c-0.062,-2.468 -0.213,-4.972 0.176,-7.422c0.21,-1.321 0.622,-2.477 1.306,-3.624c0.859,-1.442 1.332,-3.124 2.289,-4.49c0.955,-1.361 2.397,-2.349 3.756,-3.263c1.854,-1.247 3.341,-2.506 4.855,-4.143c3.157,-3.415 7.386,-6.422 11.708,-8.173c2.13,-0.863 4.398,-1.276 6.641,-1.729c1.96,-0.395 4.024,-1.14 6.042,-1.063c1.783,0.068 3.526,0.743 5.191,1.323c1.982,0.69 4.14,1.153 6.034,2.058c0.91,0.434 1.74,1.015 2.634,1.479c0.823,0.427 1.703,0.717 2.549,1.094c1.567,0.698 2.797,1.814 3.976,3.041c1.789,1.861 3.594,3.689 5.126,5.771c1.427,1.939 3.167,3.505 4.72,5.328c1.399,1.642 2.506,3.505 3.635,5.335c1.418,2.299 2.931,4.514 4.471,6.733c1.349,1.944 2.672,3.882 3.76,5.989c1.138,2.204 2.205,4.451 3.534,6.55c1.972,3.115 4.638,5.773 5.252,9.522c0.151,0.923 0.255,1.84 0.655,2.697c0.296,0.636 0.704,1.216 0.962,1.871c0.616,1.562 0.488,3.3 1.169,4.857c0.757,1.732 1.999,3.193 2.731,4.942c0.796,1.901 1.364,3.924 2.526,5.651c1.115,1.657 2.779,2.786 4.312,4.02c1.919,1.545 3.696,3.27 5.466,4.981c3.504,3.388 6.271,7.111 8.847,11.237c2.862,4.583 5.663,9.196 8.895,13.533c3.054,4.098 6.452,7.967 9.117,12.343c2.645,4.344 4.466,9.151 5.699,14.074c1.128,4.498 1.572,9.009 0.825,13.603c-0.806,4.956 -1.921,10.001 -3.493,14.773c-0.691,2.099 -1.558,4.113 -2.657,6.031c-0.981,1.71 -2.17,3.403 -2.73,5.316c-0.451,1.54 -0.353,3.154 -0.361,4.739c-0.009,1.709 -0.366,3.175 -0.888,4.799c-0.454,1.409 -0.724,2.71 -0.715,4.189c0.005,0.839 0.233,2.28 -0.356,2.99c-0.525,0.634 -1.389,0.563 -1.752,1.4c-0.337,0.778 -0.297,1.67 -0.571,2.468c-0.341,0.992 -1.275,1.582 -1.755,2.499c-0.774,1.478 -1.019,3.274 -1.212,4.905c-0.251,2.124 0.024,4.261 -0.236,6.376c-0.098,0.794 -0.269,1.602 -0.71,2.28c-0.554,0.852 -1.202,1.415 -1.337,2.476c-0.219,1.715 0.278,3.498 -0.632,5.07c-0.543,0.937 -1.07,1.664 -1.138,2.789c-0.054,0.895 0.126,1.793 0.444,2.627c0.587,1.536 1.598,2.884 2.088,4.462c0.307,0.989 0.325,2.007 0.263,3.034c-0.054,0.89 -0.195,1.791 -0.061,2.68c0.099,0.662 0.311,1.301 0.409,1.964c0.245,1.656 0.178,3.44 -0.218,5.07c-0.164,0.676 -0.395,1.367 -0.819,1.927c-0.66,0.874 -1.708,1.214 -2.536,1.881c-1.512,1.218 -1.623,3.35 -2.722,4.854c-0.582,0.796 -1.475,1.193 -2.226,1.795c-0.586,0.47 -1.016,1.048 -1.393,1.689c-0.911,1.551 -1.471,3.745 -2.981,4.865c-0.766,0.569 -1.674,0.773 -2.117,1.702c-0.308,0.646 -0.416,1.39 -0.537,2.086c-0.376,2.161 -0.71,4.233 -2.742,5.484c-1.423,0.877 -3.165,1.278 -4.179,2.706c-0.952,1.34 -1.238,3.025 -2.302,4.303c-0.906,1.088 -1.835,2.008 -2.246,3.396c-0.609,2.059 -0.506,4.338 -0.614,6.458c-0.044,0.858 -0.048,1.822 -0.322,2.648c-0.391,1.175 -1.023,0.477 -1.912,0.45c-1.572,-0.048 -2.028,3.916 -2.325,4.91c-0.248,0.831 -0.524,1.732 -1.132,2.377c-0.646,0.685 -1.585,0.979 -2.231,1.671c-1.181,1.264 -1.685,3.041 -2.646,4.458c-0.517,0.761 -1.121,1.259 -2.015,1.509c-0.953,0.266 -1.793,0.446 -2.517,1.177c-1.394,1.407 -2.138,3.345 -3.262,4.948c-0.608,0.867 -1.122,1.115 -2.14,1.286c-0.69,0.116 -1.291,0.404 -1.874,0.777c-2.175,1.391 -4.085,3.261 -6.028,4.945c-1.466,1.27 -2.964,2.677 -4.699,3.574c-1.611,0.833 -3.357,0.134 -5.062,0.672c-2.055,0.649 -3.966,1.667 -6.071,2.173c-1.881,0.452 -3.813,0.492 -5.739,0.424c-5.734,-0.204 -11.416,-0.31 -17.155,-0.275c-4.11,0.025 -8.585,0.174 -12.498,-1.27c-1.994,-0.736 -3.642,-2.126 -5.812,-2.223c-2.036,-0.091 -3.446,-2.232 -4.797,-3.535c-1.161,-1.12 -2.404,-2.292 -3.044,-3.807c-0.724,-1.716 -0.77,-3.664 -1.245,-5.455c-0.42,-1.582 -1.269,-3.526 -0.993,-5.213c0.148,-0.907 0.828,-1.603 1.019,-2.501c0.152,-0.714 0.113,-1.474 0.076,-2.197c-0.067,-1.329 -0.265,-2.67 0.103,-3.971c0.525,-1.854 1.457,-3.566 1.866,-5.461c0.323,-1.495 0.151,-3.039 0.458,-4.536c0.406,-1.976 1.314,-3.906 2.464,-5.556c0.937,-1.346 2.206,-2.794 3.812,-3.317c0.871,-0.284 1.68,-0.388 2.436,-0.947c0.741,-0.548 1.363,-1.263 1.91,-1.999c1.196,-1.607 1.642,-3.573 2.757,-5.194c1.163,-1.692 3.473,-0.52 5.009,-1.697c0.78,-0.598 1.421,-1.32 2.38,-1.642c0.492,-0.165 1.014,-0.229 1.527,-0.285c0.787,-0.086 1.618,-0.1 2.381,-0.338c1.093,-0.341 1.411,-1.26 2.188,-1.975c1.424,-1.311 3.55,0.42 5.047,-0.597c0.78,-0.53 1.022,-1.697 1.393,-2.503c0.328,-0.713 0.776,-1.317 1.303,-1.896c1.089,-1.197 2.151,-2.243 2.563,-3.851c0.385,-1.503 0.313,-3.109 0.803,-4.585c0.559,-1.686 2.33,-2.533 3.091,-4.129c0.786,-1.647 1.094,-3.513 1.434,-5.289c0.373,-1.95 0.569,-4.34 1.776,-6.003c0.558,-0.769 1.389,-1.147 2.1,-1.742c0.741,-0.621 1.125,-1.423 1.354,-2.346c0.492,-1.989 0.437,-4.084 0.625,-6.112c0.073,-0.785 0.158,-1.611 0.435,-2.356c0.13,-0.35 0.303,-0.745 0.623,-0.965c0.337,-0.232 0.781,-0.15 1.119,-0.369c0.576,-0.374 0.68,-1.331 0.825,-1.946c0.169,-0.719 0.311,-1.46 0.589,-2.148c0.395,-0.976 1.054,-1.359 1.935,-1.83c0.893,-0.478 1.162,-1.123 1.103,-2.121c-0.095,-1.581 -0.861,-2.789 -1.589,-4.136c-0.869,-1.607 -0.674,-3.536 -0.614,-5.297c0.037,-1.084 0.112,-2.18 0.041,-3.264c-0.024,-0.364 -0.032,-0.792 -0.193,-1.125c-0.177,-0.365 -0.493,-0.408 -0.747,-0.688c-0.418,-0.462 -0.279,-1.277 -0.227,-1.855c0.109,-1.218 0.337,-2.423 0.437,-3.643c0.062,-0.756 0.092,-1.524 -0.147,-2.255c-0.274,-0.837 -0.71,-1.493 -0.715,-2.41c-0.011,-2.018 0.749,-4 1.027,-5.984c0.108,-0.773 0.16,-1.465 -0.273,-2.147c-0.467,-0.737 -0.468,-1.319 -0.284,-2.162c0.479,-2.195 1.485,-4.293 2.341,-6.357c0.885,-2.135 1.698,-4.261 2.191,-6.526c0.271,-1.246 0.49,-2.509 0.631,-3.776c0.058,-0.523 0.292,-1.583 0.061,-2.118c-0.221,-0.513 -0.314,-0.036 -0.633,-0.251c-0.272,-0.184 -0.159,-1 -0.151,-1.285c0.03,-1.107 0.168,-2.213 0.3,-3.311c0.312,-2.601 0.714,-5.19 1.035,-7.789c0.496,-4.009 -0.023,-8.209 -1.038,-12.108" style="fill:none;fill-rule:nonzero;stroke:#000;stroke-width:2.75px;"/><path id="POLYLINE_277_" d="M186.683,277.432c-0.553,3.312 -1.141,6.61 -1.027,9.982c0.061,1.801 0.315,3.589 0.492,5.381c0.045,0.452 0.399,2.428 -0.247,2.639c-0.61,0.199 -0.913,-0.616 -1.152,0.358c-0.126,0.515 -0.039,1.154 -0.002,1.675c0.118,1.685 0.39,3.356 0.541,5.038c0.193,2.152 -0.346,4.244 -0.105,6.388c0.373,3.322 1.319,6.561 1.643,9.889c0.076,0.784 0.284,2.138 -0.593,2.539c-1.058,0.484 -2.992,-0.354 -4.001,-0.571c-1.952,-0.42 -3.892,0.011 -5.856,-0.199c-3.042,-0.325 -5.961,-1.388 -9.015,-1.659c-3.197,-0.284 -6.341,0.552 -9.536,0.505c-3.64,-0.054 -7.29,-0.327 -10.924,-0.53c-0.799,-0.045 -1.598,-0.099 -2.397,-0.149" style="fill:none;fill-rule:nonzero;stroke:#000;stroke-width:2.75px;"/><path id="POLYLINE_278_" d="M85.154,120.523c-1.377,4.261 -2.734,8.507 -4.398,12.666c-1.744,4.357 -3.532,8.704 -4.9,13.198c-1.245,4.093 -2.056,8.295 -2.337,12.567c-0.293,4.458 -0.038,8.938 0.572,13.36c0.587,4.257 1.404,8.577 2.917,12.611c0.939,2.504 2.545,6.309 5.752,6.284c1.504,-0.012 2.965,-0.724 4.263,-1.418c1.974,-1.055 3.85,-2.287 5.805,-3.377c3.8,-2.12 7.825,-3.582 12.223,-3.531c4.494,0.052 8.932,1.147 13.313,2.033c4.034,0.815 7.943,1.202 12.052,0.752c1.254,-0.137 2.507,-0.286 3.76,-0.429" style="fill:none;fill-rule:nonzero;stroke:#000;stroke-width:2.75px;"/><path id="POLYLINE_279_" d="M133.234,88.521c0.799,1.957 1.998,3.724 2.801,5.684c0.839,2.049 1.362,4.236 1.629,6.432c0.385,3.166 0.329,6.696 -1.269,9.554c-1.525,2.727 -4.295,4.301 -7.16,5.309c-3.931,1.383 -8.193,1.969 -12.348,2.022c-3.317,0.042 -6.989,-0.185 -9.875,-2.001c-2.787,-1.753 -4.279,-4.877 -5.089,-7.966c-0.812,-3.097 -0.989,-6.332 0.049,-9.39c0.927,-2.73 2.041,-5.211 1.617,-8.156c-0.219,-1.524 -0.836,-2.999 -2.009,-4.036c-1.335,-1.181 -3.101,-1.824 -4.695,-2.56c-2.639,-1.218 -4.871,-2.738 -6.364,-5.276c-1.68,-2.856 -2.475,-6.235 -2.732,-9.514c-0.241,-3.082 -0.118,-6.611 1.542,-9.33c1.32,-2.163 3.51,-3.161 5.933,-3.544c4.329,-0.685 8.775,-0.166 13.134,-0.552c4.656,-0.412 9.2,-1.545 13.743,-2.59c2.797,-0.643 5.99,-1.637 8.844,-0.741c2.576,0.809 4.518,3.124 5.922,5.321c1.707,2.673 2.927,5.795 2.893,9.005c-0.036,3.363 -1.509,6.393 -3.214,9.216c-1.708,2.829 -4.431,5.924 -4.145,9.442c0.102,1.253 0.321,2.5 0.793,3.671Z" style="fill:none;fill-rule:nonzero;stroke:#000;stroke-width:2.75px;"/><path id="POLYLINE_281_" d="M217.922,131.933c3.486,4.714 6.38,9.855 8.776,15.203c2.378,5.308 4.405,10.965 4.968,16.788c0.286,2.96 0.067,5.925 -0.333,8.865c-0.363,2.662 -0.839,5.367 -1.732,7.908c-0.832,2.368 -2.132,4.485 -2.74,6.941c-0.749,3.023 -1.145,6.124 -1.785,9.17c-0.629,2.996 -1.472,5.948 -2.028,8.96c-0.308,1.668 -0.533,3.389 -0.253,5.077c0.351,2.112 1.422,4.056 2.414,5.924c1.524,2.871 3.151,5.686 4.697,8.545c1.231,2.276 2.394,4.6 3.182,7.071c0.857,2.689 1.334,5.497 1.707,8.289c0.373,2.79 0.644,5.619 0.619,8.436c-0.025,2.749 -0.737,5.244 -1.308,7.91c-0.604,2.821 -0.631,5.695 -1.385,8.492c-0.336,1.248 -0.714,2.523 -1.297,3.682c-0.178,0.354 -0.375,0.777 -0.698,1.018c-0.357,0.266 -0.824,0.239 -1.186,0.512c-0.684,0.516 -1.145,1.566 -1.511,2.309c-0.606,1.231 -1.113,2.513 -1.575,3.804c-1.022,2.86 -1.646,5.816 -2.463,8.736c-0.748,2.672 -1.756,5.34 -3.233,7.701c-1.138,1.819 -2.402,3.312 -2.993,5.407c-0.293,1.039 -0.513,2.13 -1.031,3.089c-0.518,0.959 -1.328,1.717 -2.008,2.557c-1.336,1.648 -2.072,3.59 -2.828,5.551c-0.404,1.047 -0.747,2.211 -1.373,3.157c-0.585,0.883 -1.489,0.382 -2.136,1.241c-0.712,0.943 -1.156,2.075 -1.764,3.083c-0.208,0.345 -0.435,0.805 -0.774,1.032c-0.465,0.311 -0.759,-0.031 -1.246,0.017c-0.956,0.096 -1.754,1.581 -2.403,2.193c-0.665,0.626 -1.431,1.022 -2.307,1.267c-2.698,0.754 -5.592,1.206 -8.365,1.618c-2.689,0.399 -5.339,0.359 -8.002,-0.22c-0.605,-0.131 -1.433,-0.535 -2.043,-0.513c-0.438,0.016 -0.889,0.456 -1.406,0.599c-0.844,0.234 -1.747,0.283 -2.617,0.327c-6.128,0.305 -12.293,-0.273 -18.43,-0.17c-6.205,0.104 -12.506,0.683 -18.705,0.219c-1.34,-0.1 -2.673,-0.288 -3.991,-0.548c-0.891,-0.176 -1.926,-0.583 -2.83,-0.579c-0.478,0.002 -1.016,0.303 -1.484,0.454c-2.139,0.689 -4.302,0.858 -6.539,0.81c-3.176,-0.068 -6.345,-0.323 -9.523,-0.336c-3.19,-0.012 -6.381,0.064 -9.571,0.055c-2.781,-0.007 -5.613,-0.064 -8.357,-0.555c-2.421,-0.433 -4.343,-1.592 -6.56,-2.568c-1.067,-0.47 -2.293,-0.137 -3.3,-0.687c-0.936,-0.511 -1.694,-1.48 -2.426,-2.22c-0.638,1.826 -1.919,3.275 -3.618,4.188c-3.165,1.701 -7.091,1.815 -10.599,1.95c-4.598,0.177 -9.199,-0.002 -13.795,-0.132c-4.626,-0.131 -9.253,-0.287 -13.882,-0.23c-4.699,0.058 -9.395,0.308 -14.093,0.418c-4.157,0.097 -8.423,0.136 -12.519,-0.682c-3.131,-0.625 -6.098,-1.958 -8.091,-4.538c-1.555,-2.014 -2.438,-4.594 -2.535,-7.132c-0.094,-2.469 0.713,-4.504 2.445,-6.257c1.022,-1.035 2.124,-2.022 2.788,-3.34c0.641,-1.271 0.843,-2.724 1.025,-4.118c0.149,-1.145 0.262,-2.299 0.484,-3.434c-2.192,0 -4.371,-0.635 -6.238,-1.778c-1.116,-0.683 -3.224,-2.082 -3.172,-3.604c0.018,-0.524 0.404,-0.921 0.552,-1.404c0.149,-0.487 0.047,-0.907 -0.159,-1.362c-0.4,-0.88 -1.039,-1.644 -1.561,-2.451c-0.425,-0.657 -0.868,-1.365 -0.773,-2.179c0.119,-1.018 0.456,-1.697 0.258,-2.756c-0.256,-1.372 -0.624,-2.655 -0.481,-4.058c0.227,-2.215 1.126,-4.303 1.416,-6.511c0.291,-2.213 0.029,-4.457 -0.318,-6.647c-0.424,-2.678 -0.656,-5.153 -0.48,-7.861c0.161,-2.489 -0.004,-4.904 -0.224,-7.384c-0.147,-1.657 -0.548,-3.835 0.136,-5.434c0.425,-0.994 1.46,-1.542 2.014,-2.459c0.472,-0.782 0.777,-1.667 1.136,-2.503c0.679,-1.58 1.487,-3.017 3.044,-3.881c1.477,-0.819 3.191,-1.124 4.634,-2.01c1.642,-1.008 2.176,-2.755 3.101,-4.337c0.843,-1.441 2.029,-1.96 3.61,-2.16c1.545,-0.196 3.008,-0.288 4.313,-1.225c1.479,-1.061 2.485,-2.644 3.965,-3.705c1.371,-0.982 2.938,-1.585 3.938,-3.008c0.987,-1.405 1.5,-3.125 1.916,-4.768c1.229,-4.856 1.715,-9.909 2.308,-14.871c0.644,-5.392 1.218,-10.773 1.054,-16.213c-0.158,-5.24 -0.86,-10.45 -0.969,-15.692c-0.1,-4.781 0.536,-9.536 1.48,-14.214c1.054,-5.224 2.175,-10.442 3.021,-15.705c0.92,-5.726 1.666,-11.513 2.862,-17.19c0.954,-4.525 2.398,-9.019 5.635,-12.447c3.269,-3.461 7.628,-5.451 11.955,-7.242c2.502,-1.035 5.042,-2.016 7.412,-3.335c2.169,-1.207 4.174,-2.683 6.073,-4.277c0.532,-0.447 1.057,-0.902 1.579,-1.36c0.474,-0.415 0.392,-0.409 0.229,-0.947c-0.205,-0.677 -0.295,-1.371 -0.269,-2.079c0.073,-1.988 0.75,-3.903 0.909,-5.88c0.021,-0.259 0.06,-0.555 0.008,-0.81c-0.086,-0.415 -0.309,-0.448 -0.519,-0.772c-0.482,-0.742 -0.116,-2.282 -0.047,-3.091c0.157,-1.843 -0.17,-3.703 0.065,-5.53c0.258,-2.002 1.151,-3.867 1.549,-5.84c0.3,-1.489 0.237,-2.985 0.024,-4.484c-0.272,-1.906 -0.742,-3.879 -0.536,-5.817c0.185,-1.745 1.473,-2.592 2.112,-4.1c0.396,-0.934 0.386,-2.016 0.437,-3.011c0.066,-1.296 0.239,-2.57 0.415,-3.855c0.333,-2.432 0.387,-4.809 0.326,-7.259c-0.059,-2.357 -0.169,-4.757 0.299,-7.083c0.294,-1.463 0.954,-2.596 1.7,-3.876c0.791,-1.356 1.128,-2.922 2.157,-4.14c1.232,-1.458 2.917,-2.463 4.476,-3.522c1.767,-1.2 3.061,-2.716 4.544,-4.235c1.758,-1.8 3.825,-3.279 5.938,-4.632c1.911,-1.225 3.885,-2.38 6.043,-3.111c2.325,-0.788 4.775,-1.158 7.171,-1.658c1.777,-0.371 3.493,-0.937 5.326,-0.661c2.183,0.329 4.265,1.242 6.344,1.942c1.836,0.618 3.595,1.059 5.273,2.043c1.586,0.931 3.344,1.462 4.921,2.382c1.859,1.085 3.29,2.861 4.752,4.402c1.691,1.783 3.088,3.71 4.645,5.601c1.45,1.761 3.207,3.207 4.55,5.066c1.436,1.988 2.618,4.145 3.951,6.2c1.459,2.249 3.061,4.401 4.553,6.628c1.41,2.103 2.514,4.349 3.672,6.596c1.083,2.102 2.289,4.089 3.662,6.013c1.161,1.627 2.493,3.259 3.191,5.156c0.552,1.5 0.456,3.17 1.088,4.637c0.268,0.624 0.661,1.185 0.938,1.804c0.385,0.861 0.477,1.789 0.624,2.711c0.274,1.721 0.953,3.113 1.876,4.579c1.221,1.939 1.904,3.983 2.808,6.077c0.675,1.563 1.511,2.932 2.768,4.094c1.752,1.619 3.72,2.99 5.476,4.614c3.792,3.507 7.233,7.085 10.06,11.426c2.949,4.528 5.636,9.222 8.753,13.639c2.945,4.173 6.312,8.032 9.216,12.234c2.618,3.794 4.584,7.899 6.051,12.266Z" style="fill:none;fill-rule:nonzero;stroke:#000;stroke-width:3.5px;"/></g></g></g></svg>