<?xml version="1.0" encoding="UTF-8" standalone="no"?><!DOCTYPE svg PUBLIC "-//W3C//DTD SVG 1.1//EN" "http://www.w3.org/Graphics/SVG/1.1/DTD/svg11.dtd"><svg width="100%" height="100%" viewBox="0 0 310 345" version="1.1" xmlns="http://www.w3.org/2000/svg" xmlns:xlink="http://www.w3.org/1999/xlink" xml:space="preserve" xmlns:serif="http://www.serif.com/" style="fill-rule:evenodd;clip-rule:evenodd;stroke-linecap:round;stroke-linejoin:round;stroke-miterlimit:10;"><rect id="Desktop-HD" serif:id="Desktop HD" x="-148.48" y="-88.039" width="1440" height="1024" style="fill:none;"/><g><g><g><path id="POLYLINE_6_" d="M246.509,35.62c6.21,-2.574 12.092,-6.517 18.947,-7.144c2.903,-0.266 5.981,0.017 8.573,1.43c2.823,1.538 5.067,4.146 6.959,6.676c2.283,3.053 4.105,6.409 5.482,9.953" style="fill:none;fill-rule:nonzero;stroke:#000;stroke-width:1.99px;"/><path id="POLYLINE_19_" d="M14.922,231.916c3.985,-1.117 8.456,-2.204 12.502,-0.746c4.439,1.599 7.56,5.715 11.381,8.312c4.354,2.959 9.637,4.203 14.886,3.742c4.46,-0.391 8.975,-2.072 11.959,-5.503c3.55,-4.08 4.729,-9.8 5.467,-14.992c0.819,-5.758 1.024,-11.578 1.603,-17.361c0.563,-5.62 1.697,-11.119 2.981,-16.613c0.703,-3.007 1.448,-6.009 2.047,-9.039c0.225,-1.136 0.35,-2.3 0.608,-3.428c0.157,-0.685 0.44,-1.62 1.21,-1.826c1.733,-0.465 3.215,2.811 3.817,3.938c1.373,2.569 2.702,5.154 4.15,7.684c2.938,5.133 6.043,10.177 9.239,15.156c2.878,4.485 5.886,9.14 10.287,12.313c3.826,2.758 8.461,3.954 13.15,4.023c4.892,0.072 9.966,-1.007 14.168,-3.56c4.31,-2.619 7.06,-6.836 8.408,-11.61c1.476,-5.228 1.427,-10.85 0.458,-16.162c-0.988,-5.417 -3.111,-10.516 -5.496,-15.459c-2.513,-5.208 -5.359,-10.349 -7.007,-15.914c-1.352,-4.566 -1.842,-9.344 -1.658,-14.091c0.211,-5.444 1.235,-10.855 2.717,-16.093c1.46,-5.16 3.414,-10.189 5.884,-14.957c1.239,-2.392 2.623,-4.699 4.121,-6.94" style="fill:none;fill-rule:nonzero;stroke:#000;stroke-width:1.99px;"/><path id="POLYLINE_7_" d="M79.187,174.863c-0.468,2.059 -0.708,4.19 -0.652,6.302c0.056,2.12 0.539,4.167 1.017,6.223c1.056,4.543 2.038,9.135 2.204,13.811c0.163,4.571 -0.832,9.104 -0.583,13.669c0.228,4.167 1.556,8.207 1.087,12.403c-0.248,2.215 -0.43,4.303 -0.212,6.53c0.227,2.319 0.536,4.633 0.459,6.968c-0.108,3.294 -0.701,7.411 -3.043,9.961c-1.19,1.295 -2.888,1.999 -4.018,3.353c-1.135,1.359 -1.744,3.065 -2.858,4.44c-1.106,1.366 -2.593,2.294 -3.905,3.442c-0.901,0.789 -1.572,1.724 -2.13,2.776c-1.069,2.018 -1.856,4.198 -2.628,6.341c-0.62,1.722 -1.013,3.452 -1.021,5.288c-0.015,3.483 0.922,7.143 -0.059,10.565c-0.549,1.916 -1.461,3.707 -1.998,5.632c-0.6,2.15 -0.945,4.369 -1.266,6.574c-0.723,4.965 -1.176,9.966 -1.937,14.925c-0.264,1.721 -0.499,3.563 -1.181,5.182c-0.89,2.112 -2.496,1.603 -4.342,1.252c-1.168,-0.223 -2.255,-0.218 -3.314,0.408c-1.201,0.711 -2.123,1.799 -3.313,2.527c-2.11,1.291 -4.625,0.455 -6.903,1.117c-3.015,0.877 -5.286,3.604 -8.459,4.023c-1.38,0.182 -2.781,-0.259 -4.151,0.049c-1.522,0.342 -2.73,1.58 -3.859,2.557c-1.149,0.995 -2.342,1.97 -3.847,2.366c-0.742,0.196 -1.526,0.245 -2.279,0.078c-0.847,-0.189 -1.575,-0.695 -2.412,-0.906c-1.569,-0.395 -2.925,0.843 -4.03,1.778c-1.329,1.124 -2.718,2.592 -4.479,3.032c-4.574,1.141 -2.655,-6.993 -2.372,-9.135c0.263,-1.99 0.609,-4.026 0.466,-6.039c-0.096,-1.347 -0.568,-2.579 -0.948,-3.864c-0.885,-2.991 -0.43,-6.284 -0.065,-9.323c0.745,-6.218 1.49,-12.436 2.235,-18.655c0.499,-4.161 0.928,-8.341 1.705,-12.463c0.899,-4.772 2.263,-9.387 3.81,-13.985c0.334,-0.994 1.055,-2.754 -0.021,-3.517c-0.604,-0.428 -1.545,-0.455 -1.422,-1.383c0.116,-0.872 0.814,-1.75 1.204,-2.511c0.592,-1.154 0.86,-2.221 0.659,-3.523c-0.233,-1.518 -0.278,-2.615 0.584,-3.92c0.792,-1.2 1.879,-2.319 2.217,-3.758c0.29,-1.238 0.009,-2.518 -0.148,-3.751c-0.43,-3.367 1.511,-6.4 1.93,-9.694c0.252,-1.977 -0.033,-3.821 -0.344,-5.774c-0.232,-1.454 -0.429,-2.928 0.525,-4.181c0.601,-0.789 1.414,-1.435 1.722,-2.41c0.201,-0.635 0.165,-1.321 0.093,-1.973c-0.162,-1.483 -0.916,-3.3 -0.478,-4.803c0.27,-0.928 1.196,-1.469 1.454,-2.398c0.22,-0.789 0.032,-1.667 -0.151,-2.449c-0.366,-1.565 -0.989,-3.063 -0.95,-4.693c0.07,-2.916 1.613,-5.726 1.001,-8.669c-0.256,-1.23 -0.802,-2.395 -0.901,-3.656c-0.114,-1.454 0.36,-2.898 0.713,-4.288c0.289,-1.134 0.585,-2.296 0.456,-3.474c-0.137,-1.256 -0.67,-2.431 -0.851,-3.681c-0.517,-3.569 1.059,-7.208 1.506,-10.708c0.212,-1.663 0.058,-3.375 0.413,-5.018c0.281,-1.303 0.914,-2.507 1.584,-3.65c1.175,-2.002 2.456,-3.966 3.831,-5.838c1.289,-1.754 2.859,-3.211 4.263,-4.863c2.556,-3.009 3.23,-7.143 6.059,-9.993c1.169,-1.178 2.573,-1.789 4.055,-2.498c1.391,-0.666 2.294,-1.513 3.034,-2.857c0.728,-1.321 1.4,-2.577 2.485,-3.646c1.585,-1.562 3.521,-2.774 5.383,-3.979c3.4,-2.199 7.429,-2.921 11.248,-4.117c4.595,-1.437 9.143,-2.4 13.926,-2.994c4.639,-0.576 9.319,-0.96 13.991,-1.128c5.031,-0.18 10.067,-0.171 15.1,-0.29c4.572,-0.109 9.236,-0.317 13.632,-1.674c4.622,-1.427 8.538,-4.236 12.508,-6.89c1.744,-1.167 3.508,-2.292 5.402,-3.207c1.856,-0.898 3.816,-1.651 5.489,-2.876c3.783,-2.771 6.236,-7.122 9.089,-10.739c2.765,-3.505 5.897,-6.422 9.612,-8.916c2.745,-1.844 6.26,-3.605 7.82,-6.668c0.835,-1.638 1.279,-3.428 2.202,-5.03c1.033,-1.791 2.33,-3.434 3.701,-4.982c2.773,-3.128 5.974,-5.724 9.348,-8.182c4.015,-2.923 7.97,-5.883 11.695,-9.169c3.403,-3.002 6.59,-6.081 8.903,-10c2.345,-3.973 5.111,-7.688 8.093,-11.212c2.986,-3.528 6.262,-6.859 10.25,-9.274c4.006,-2.425 8.537,-3.72 12.708,-5.806c4.175,-2.089 7.307,-5.437 11.049,-8.13c3.292,-2.37 6.85,-3.705 10.949,-3.421c4.459,0.309 8.972,1.943 12.754,4.281c3.455,2.137 6.255,5.212 8.572,8.503c2.725,3.871 4.357,8.197 6.085,12.561c0.807,2.036 1.762,3.984 2.786,5.919c0.95,1.796 1.986,3.59 2.616,5.529c0.518,1.594 0.577,3.245 0.706,4.903c0.126,1.623 0.469,3.101 1.094,4.606c0.915,2.204 2.11,4.291 2.706,6.614c0.558,2.176 0.738,4.427 1.257,6.611c1.007,4.237 2.439,8.19 2.249,12.603c-0.096,2.228 -0.385,4.445 -0.408,6.677c-0.022,2.13 0.201,4.306 -0.117,6.423c-0.204,1.36 -0.855,2.485 -1.376,3.742c-0.452,1.092 -0.489,2.143 -0.326,3.296c0.351,2.485 0.934,4.73 0.104,7.171c-0.33,0.97 -0.824,1.865 -1.471,2.663c-0.533,0.658 -1.202,1.267 -1.566,2.044c-0.337,0.719 -0.281,1.481 -0.376,2.248c-0.231,1.857 -2.508,1.935 -3.486,3.369c-0.46,0.673 -0.78,1.442 -1.302,2.074c-0.653,0.792 -1.624,1.23 -2.272,2.029c-1.003,1.235 -1.512,2.754 -2.641,3.911c-0.639,0.654 -1.362,1.221 -2.01,1.866c-0.529,0.526 -0.892,1.123 -1.343,1.709c-1.01,1.313 -2.601,1.344 -4.13,1.428c-1.008,0.054 -2.033,0.066 -3.031,0.236c-0.758,0.129 -1.487,0.419 -2.25,0.513c-1.437,0.176 -2.483,-1.048 -3.95,-0.864c-0.845,0.105 -1.493,0.319 -2.168,-0.325c-0.792,-0.757 -1.201,-1.339 -2.384,-1.342c-0.897,-0.002 -1.792,0.255 -2.688,0.188c-1.01,-0.075 -1.629,-0.875 -2.551,-1.183c-0.694,-0.232 -1.404,-0.338 -2.068,-0.659c-0.621,-0.3 -1.19,-0.699 -1.82,-0.982c-1.376,-0.615 -2.59,-0.503 -3.507,-1.895c-0.544,-0.825 -0.88,-1.509 -1.881,-1.823c-0.565,-0.178 -1.121,-0.324 -1.662,-0.57c-0.749,-0.341 -1.493,-0.797 -1.98,-1.471c-0.397,-0.549 -0.557,-1.2 -0.849,-1.801c-0.394,-0.811 -1.017,-1.043 -1.772,-1.448c-0.727,-0.39 -1.251,-0.974 -1.669,-1.671c-0.706,-1.178 -1.003,-2.537 -1.693,-3.722c-0.85,-1.459 -1.144,-2.839 -1.679,-4.432c-0.472,-1.405 -1.62,-2.402 -2.09,-3.8c-0.477,-1.419 -0.589,-2.91 -1.172,-4.301c-0.634,-1.513 -0.944,-3.015 -1.443,-4.571c-0.438,-1.367 -1.168,-2.647 -2.005,-3.81c-0.87,-1.209 -2.032,-2.118 -2.842,-3.383c-0.824,-1.288 -1.56,-2.694 -1.959,-4.175" style="fill:none;fill-rule:nonzero;stroke:#000;stroke-width:2.74px;"/><path id="POLYLINE_8_" d="M227.127,68.255c-1.475,-0.293 -2.911,-0.632 -3.874,-1.884c-0.64,-0.832 -1.035,-1.851 -1.321,-2.85c-0.584,-2.043 -0.755,-4.261 -0.441,-6.363c0.616,-4.133 3.543,-7.476 7.458,-8.949c1.274,-0.479 2.793,-0.816 4.098,-0.271c1.389,0.581 2.218,1.979 2.926,3.22" style="fill:none;fill-rule:nonzero;stroke:#000;stroke-width:2.74px;"/><path id="POLYLINE_9_" d="M266.51,91.699c-2.411,-1.337 -4.057,-3.649 -4.152,-6.42c-0.082,-2.377 0.891,-5.234 2.922,-6.642c1.742,-1.207 4.08,-0.907 5.673,0.402c0.884,0.726 1.5,1.689 2.277,2.515c0.965,1.024 1.384,0.331 2.101,-0.56c1.685,-2.096 3.977,-2.384 6.12,-0.822c1.742,1.27 3.221,3.079 4.235,4.962c1.265,2.35 0.916,4.803 -0.49,6.985c-0.26,0.404 -0.551,0.788 -0.873,1.145" style="fill:none;fill-rule:nonzero;stroke:#000;stroke-width:2.74px;"/><path id="POLYLINE_10_" d="M285.285,91.975c1.598,2.72 2.412,5.996 2.196,9.147c-0.082,1.201 -0.355,2.359 -1.394,3.099c-0.712,0.506 -1.398,0.829 -1.695,1.71c-0.293,0.871 -0.281,1.847 -0.381,2.748c-0.204,1.837 -1.099,2.829 -2.623,3.796c-1.312,0.831 -1.987,1.8 -2.433,3.255c-0.494,1.616 -1.156,2.788 -2.952,3.226c-1.717,0.418 -3.262,-0.11 -4.957,-0.309c-1.047,-0.123 -2.085,0.156 -3.128,-0.025c-1.462,-0.254 -2.784,-0.816 -4.287,-0.843c-1.835,-0.033 -3.334,-0.058 -4.86,-1.193c-1.552,-1.154 -2.967,-2.635 -4.261,-4.061c-1.774,-1.955 -2.602,-4.339 -3.076,-6.901c-0.581,-3.143 -0.885,-6.82 0.181,-9.899c0.714,-2.059 2.519,-3.504 3.181,-5.573c0.77,-2.407 0.51,-5.264 -0.307,-7.621c-0.472,-1.361 -1.248,-2.492 -1.981,-3.719c-0.934,-1.564 -1.734,-3.241 -2.352,-4.953c-0.981,-2.719 -1.183,-5.467 -0.458,-8.273c0.703,-2.721 2.041,-5.448 4.016,-7.491c1.43,-1.48 3.243,-2.424 5.263,-2.835c3.114,-0.634 6.646,-0.419 9.667,0.557c1.496,0.484 2.792,1.53 4.317,1.892c1.539,0.365 3.006,-0.005 4.493,0.714c1.281,0.618 2.37,1.394 3.826,1.531c1.021,0.097 2.059,0.036 3.047,0.351c2.604,0.829 4.352,3.827 5.097,6.27c0.673,2.207 0.41,4.341 -0.372,6.49c-0.536,1.474 -1.317,2.92 -1.506,4.496c-0.167,1.39 0.12,2.788 -0.149,4.173c-0.262,1.352 -0.84,2.64 -1.484,3.852" style="fill:none;fill-rule:nonzero;stroke:#000;stroke-width:2.74px;"/><path id="POLYLINE_12_" d="M82.056,233.89c1.576,1.471 3.125,2.897 5.042,3.926c2.225,1.194 4.639,2.045 6.984,2.971c2.168,0.855 4.316,1.737 6.388,2.806c2.176,1.123 4.285,2.402 6.547,3.352c3.877,1.628 8.129,1.419 12.193,2.258c2.425,0.501 4.807,1.199 7.247,1.63c2.191,0.386 4.404,0.475 6.625,0.405c2.495,-0.078 4.988,-0.257 7.485,-0.211c2.541,0.046 5.081,0.209 7.623,0.165c4.824,-0.086 9.4,-1.377 14.12,-2.207c3.134,-0.55 6.54,-0.268 9.269,-2.126c1.577,-1.073 2.861,-2.549 4.508,-3.522c1.314,-0.775 2.845,-1.073 4.15,-1.876c1.955,-1.202 3.565,-2.88 5.39,-4.256c1.441,-1.085 3.092,-1.852 4.334,-3.184c2.975,-3.191 4.698,-7.404 7.336,-10.862c0.756,-0.99 1.548,-1.954 2.325,-2.927" style="fill:none;fill-rule:nonzero;stroke:#000;stroke-width:2.74px;"/><path id="POLYLINE_13_" d="M177.431,155.648c0.341,1.548 0.919,3.118 2.033,4.285c0.558,0.585 1.206,1.081 1.733,1.697c0.658,0.768 1.104,1.683 1.546,2.584c0.804,1.637 1.57,3.245 2.873,4.554c1.845,1.852 4.104,3.287 6.055,5.033c1.861,1.666 3.662,3.474 5.035,5.567c1.37,2.089 2.26,4.444 3.687,6.501c1.396,2.014 2.841,3.878 3.577,6.243c0.676,2.171 1.099,4.548 1.155,6.822c0.054,2.163 -0.303,4.353 -0.811,6.449c-0.392,1.62 -0.858,3.339 -1.937,4.655c-0.822,1.002 -1.487,1.829 -1.599,3.18c-0.102,1.238 0.311,1.874 1.346,2.47c1.11,0.64 0.117,1.34 -0.566,1.978c-0.56,0.523 -2.265,1.738 -1.902,2.661c0.252,0.641 1.397,0.872 1.987,1.055c0.828,0.257 2.112,0.461 2.774,1.095c1.268,1.214 -1.571,3.165 -1.701,4.475c-0.11,1.114 1.311,1.724 2.066,2.253c0.903,0.634 1.383,1.266 1.112,2.393c-0.421,1.751 -1.336,3.136 0.526,4.442c0.868,0.609 1.869,1.025 2.82,1.485c0.574,0.278 2.038,0.8 1.701,1.622c-0.295,0.717 -1.89,1.113 -1.302,2.056c0.476,0.762 1.742,1.174 2.458,1.666c0.771,0.53 1.387,1.11 0.967,2.076c-0.334,0.768 -1.672,1.837 -0.965,2.703c0.579,0.709 1.808,0.916 2.579,1.334c0.985,0.535 0.705,1.058 0.039,1.78c-0.854,0.928 -1.162,1.589 -0.07,2.479c0.764,0.623 1.649,1.085 2.423,1.695c0.892,0.703 1.354,1.469 1.396,2.608c0.039,1.049 -0.107,1.928 0.934,2.518c0.939,0.533 2.114,0.659 2.941,1.388c0.639,0.563 0.866,1.367 1.241,2.097c0.943,1.837 3.609,2.432 3.904,4.613c0.106,0.785 -0.069,1.663 0.321,2.39c0.448,0.835 1.488,1.266 2.239,1.771c1.641,1.102 2.781,2.754 4.028,4.247c1.49,1.783 3.218,3.335 5.114,4.684c0.946,0.674 1.933,1.257 2.958,1.803c0.938,0.5 1.883,1.018 2.285,2.061c0.653,1.696 0.316,3.671 0.574,5.44c0.2,1.376 0.572,2.791 1.242,4.02c1.739,3.191 4.856,6.106 4.297,10.054c-0.224,1.582 -0.9,3.099 -0.851,4.717c0.054,1.767 0.83,3.412 1.164,5.128c0.21,1.082 0.139,2.123 -0.103,3.194c-0.49,2.171 -0.932,4.095 -0.654,6.338c0.281,2.267 1.216,4.031 2.213,6.05c0.289,0.586 0.53,1.703 1.123,2.076c0.778,0.488 1.888,-0.643 2.462,-1.074c0.705,-0.528 1.695,-1.426 2.634,-0.998c0.961,0.439 1.309,1.614 2.503,1.624c1.537,0.013 2.871,-1.131 4.429,-1.108c0.99,0.015 1.843,0.519 2.721,0.907c1.054,0.465 1.776,0.432 2.784,-0.117c1.538,-0.839 2.751,-1.251 4.515,-1.18c0.91,0.037 1.852,0.182 2.763,0.077c1.12,-0.129 1.777,-1.118 2.904,-1.286c2.022,-0.301 4.148,0.352 6.146,-0.159c0.484,-0.124 0.859,-0.335 1.17,-0.724c0.232,-0.291 0.376,-0.808 0.763,-0.943c0.814,-0.286 1.616,0.822 2.436,0.656c1.187,-0.24 0.462,-2.887 0.232,-3.628c-0.226,-0.729 -0.665,-1.372 -0.893,-2.092c-0.379,-1.196 0.945,-1.774 1.449,-2.694c0.928,-1.698 -0.613,-4.042 -0.693,-5.819c-0.017,-0.367 -0.041,-0.883 0.348,-1.069c0.422,-0.203 0.941,0.296 1.329,0.148c0.593,-0.225 -0.49,-2.049 -0.644,-2.558c-0.382,-1.272 0.104,-1.837 1.031,-2.661c0.832,-0.74 0.762,-1.393 0.274,-2.347c-0.379,-0.741 -1.332,-1.82 -0.776,-2.66c0.288,-0.436 0.812,-0.627 0.97,-1.163c0.127,-0.429 -0.008,-0.917 -0.143,-1.329c-0.672,-2.052 -2.221,-3.711 -3.362,-5.504c-0.888,-1.394 -2.107,-3.423 -1.833,-5.146c0.084,-0.532 0.384,-1.029 0.304,-1.579c-0.064,-0.441 -0.342,-0.838 -0.594,-1.195c-0.652,-0.922 -1.447,-1.738 -2.099,-2.661c-0.876,-1.243 -2.021,-3.345 -1.138,-4.835c0.277,-0.467 0.738,-0.797 0.744,-1.382c0.005,-0.442 -0.249,-0.899 -0.447,-1.282c-0.493,-0.958 -1.118,-1.848 -1.548,-2.838c-1.237,-2.846 1.041,-5.681 -0.107,-8.507c-0.358,-0.881 -1.122,-1.691 -1.271,-2.646c-0.162,-1.043 0.983,-1.614 1.041,-2.618c0.058,-0.999 -0.687,-1.874 -0.691,-2.862c-0.004,-1.096 1.322,-1.508 1.608,-2.512c0.425,-1.493 -0.582,-3.067 -0.574,-4.562c0.006,-1.244 1.346,-1.567 1.569,-2.717c0.168,-0.864 -0.083,-1.812 -0.335,-2.64c-0.246,-0.812 -0.995,-2.022 -0.842,-2.91c0.144,-0.837 1.311,-0.631 1.499,-1.54c0.324,-1.567 -0.788,-3.668 -1.469,-4.996c-1.069,-2.087 -2.112,-4.352 -2.536,-6.671c-0.061,-0.331 -0.165,-0.75 -0.071,-1.079c0.112,-0.394 0.491,-0.373 0.626,-0.685c0.287,-0.664 -1.237,-2.538 -1.527,-3.029c-0.67,-1.135 -1.246,-2.289 -1.454,-3.597c-0.321,-2.014 -0.188,-4.007 -0.692,-6.008c-0.584,-2.321 -1.455,-4.575 -2.377,-6.782c-0.966,-2.314 -2.331,-4.773 -2.829,-7.255c-0.078,-0.388 -0.196,-0.852 0.246,-0.996c0.414,-0.134 0.809,0.29 1.191,-0.079c0.389,-0.376 0.285,-1.309 0.258,-1.813c-0.133,-2.443 -0.69,-4.961 -1.34,-7.315c-0.504,-1.824 -1.204,-3.601 -2.242,-5.194c-1.292,-1.983 -2.986,-3.668 -4.367,-5.587c-3.07,-4.266 -3.474,-9.666 -5.119,-14.516c-1.716,-5.055 -4.916,-9.379 -6.924,-14.294c-2.032,-4.975 -2.008,-10.279 -2.778,-15.513c-0.381,-2.589 -1.2,-5.072 -1.873,-7.594c-0.691,-2.589 -1.231,-5.223 -1.835,-7.833" style="fill:none;fill-rule:nonzero;stroke:#000;stroke-width:2.74px;"/><path id="POLYLINE_14_" d="M80.662,248.969c-0.314,2.416 -0.514,4.846 -0.642,7.278c-0.112,2.128 -0.365,4.358 -0.046,6.478c0.224,1.489 0.124,2.901 -0.028,4.399c-0.151,1.483 -0.321,2.967 -0.444,4.453c-0.082,0.987 -0.242,2.087 -0.065,3.075c0.255,1.425 1.166,-0.277 1.699,-0.603c0.874,-0.536 0.702,1.075 0.679,1.625c-0.112,2.664 -0.597,5.329 -0.949,7.966c-0.312,2.334 -0.641,4.674 -0.753,7.026c-0.036,0.755 -0.085,1.551 0.043,2.302c0.058,0.337 0.114,0.788 0.521,0.809c0.39,0.021 0.703,-0.658 1.121,-0.453c0.532,0.262 0.355,1.946 0.346,2.426c-0.027,1.318 -0.142,2.635 -0.249,3.949c-0.211,2.584 -0.479,5.165 -0.628,7.755c-0.13,2.263 -0.227,4.573 0.054,6.829c0.109,0.877 0.254,1.867 0.734,2.627c0.583,0.923 1.578,0.703 2.352,1.312c0.711,0.559 0.842,1.705 0.981,2.537c0.211,1.253 0.348,2.518 0.54,3.774c0.25,1.636 0.446,4.319 1.743,5.549c1.202,1.14 3.096,-0.826 4.096,-1.411c0.662,-0.387 1.369,-0.682 2.113,-0.333c0.887,0.416 1.385,1.344 2.185,1.875c1.365,0.905 3.071,-0.77 4.358,-1.243c1.105,-0.406 2.287,-0.489 3.458,-0.464c2.463,0.051 4.871,0.6 7.311,0.871c1.587,0.176 3.061,-0.167 4.639,-0.216c2.308,-0.071 4.608,0.364 6.917,0.369c1.911,0.005 3.701,-0.156 4.443,-2.15c0.353,-0.949 0.654,-1.408 1.766,-1.244c0.901,0.133 1.778,0.462 2.652,0.705c2.016,0.559 4.092,0.808 6.185,0.686c0.824,-0.048 3.727,-0.161 3.125,-1.519c-0.344,-0.777 -1.284,-1.418 -1.939,-1.914c-1.022,-0.775 -2.095,-1.483 -3.103,-2.276c-0.357,-0.281 -1.779,-1.228 -1.35,-1.749c0.254,-0.309 0.93,-0.133 1.24,-0.41c0.322,-0.286 0.188,-0.627 0.025,-0.982c-0.712,-1.556 -2.282,-2.689 -2.839,-4.32c-0.375,-1.099 0.87,-1.458 0.84,-2.493c-0.02,-0.676 -0.379,-1.391 -0.647,-1.994c-0.644,-1.455 -1.39,-2.885 -1.617,-4.477c-0.324,-2.272 0.364,-4.154 1.571,-6.048c1.624,-2.551 0.306,-5.534 1.036,-8.332c0.271,-1.04 0.664,-2.047 0.925,-3.091c0.28,-1.12 0.398,-2.269 0.539,-3.412c0.224,-1.815 0.56,-3.461 1.298,-5.137c0.584,-1.327 1.144,-2.635 1.234,-4.096c0.118,-1.921 -0.407,-3.855 -0.827,-5.712c-0.232,-1.024 -0.495,-2.054 -0.607,-3.099c-0.115,-1.081 0.054,-1.557 0.797,-2.284c0.643,-0.629 0.462,-1.432 0.28,-2.241c-0.266,-1.183 -0.638,-2.338 -0.838,-3.535c-0.402,-2.419 -0.297,-4.877 -0.224,-7.315" style="fill:none;fill-rule:nonzero;stroke:#000;stroke-width:2.74px;"/><path id="POLYLINE_16_" d="M254.184,332.194c-0.343,1.731 -0.17,3.584 0.187,5.298c0.407,1.958 1.516,3.24 3.436,3.915c2.097,0.737 4.424,0.955 6.635,0.981c2.803,0.031 5.608,0.158 8.411,0.169c2.255,0.008 4.235,-0.348 6.418,-0.838c1.908,-0.428 3.434,0.734 5.316,0.661c2.229,-0.089 4.406,-0.952 6.588,-1.358c1.136,-0.213 2.292,-0.458 3.015,-1.44c0.393,-0.535 0.628,-1.185 0.804,-1.819c1.057,-3.814 -0.055,-7.235 -2.051,-10.52c-0.208,-0.342 -0.427,-0.678 -0.663,-1.002" style="fill:none;fill-rule:nonzero;stroke:#000;stroke-width:2.74px;"/><path id="POLYLINE_17_" d="M295.591,99.832c1.127,2.304 2.086,4.588 2.638,7.1c0.587,2.672 0.974,5.414 1.176,8.142c0.058,0.785 0.395,2.562 -0.058,3.29c-0.501,0.806 -1.203,-1.12 -1.153,0.587c0.07,2.408 0.814,4.774 0.829,7.182c0.001,0.136 0.057,0.59 -0.085,0.683c-0.165,0.109 -0.252,-0.148 -0.382,-0.117c-0.412,0.097 -0.382,0.44 -0.403,0.914c-0.047,1.093 0.065,2.196 0.151,3.284c0.129,1.628 0.277,3.256 0.378,4.886c0.055,0.883 0.291,2.181 -0.141,3.001c-0.224,0.427 -0.394,0.566 -0.429,1.1c-0.025,0.38 -0.004,0.766 0.016,1.145c0.061,1.19 0.196,2.376 0.329,3.56c0.341,3.047 0.712,6.095 0.918,9.156c0.18,2.675 0.122,5.328 -0.124,7.998c-0.227,2.466 -0.575,4.98 -0.113,7.44c0.446,2.377 1.56,4.553 2.358,6.819c0.3,0.851 0.58,1.746 0.503,2.657c-0.071,0.839 -0.372,1.635 -0.404,2.481c-0.061,1.62 0.518,3.234 1.034,4.745c0.929,2.717 2.059,5.364 2.977,8.085c0.424,1.257 1.711,4.074 0.025,4.852c-0.886,0.409 -1.059,0.846 -0.978,1.821c0.072,0.873 0.3,1.737 0.526,2.58c0.627,2.341 1.586,4.686 1.877,7.102c0.121,1.011 -0.155,1.574 -0.686,2.41c-0.522,0.823 -0.448,1.785 -0.347,2.713c0.269,2.494 0.984,4.938 1.069,7.454c0.062,1.816 -0.531,3.491 -0.751,5.274c-0.198,1.607 0.71,3.298 0.266,4.85c-0.271,0.947 -1.093,1.643 -1.517,2.522c-0.423,0.876 -0.474,1.835 -0.419,2.79c0.123,2.158 0.937,4.338 0.787,6.501c-0.076,1.101 -0.93,1.879 -1.035,2.976c-0.098,1.02 0.092,2.071 0.221,3.079c0.134,1.054 0.356,2.166 0.253,3.233c-0.109,1.128 -1.158,1.281 -1.548,2.233c-0.355,0.866 -0.326,1.967 -0.357,2.883c-0.041,1.229 -0.011,2.473 -0.165,3.695c-0.056,0.449 -0.106,1.022 -0.39,1.395c-0.317,0.416 -0.759,0.364 -1.22,0.504c-0.749,0.227 -0.965,0.92 -1.157,1.608c-0.268,0.96 -0.383,1.963 -0.706,2.91c-0.354,1.037 -1.052,1.385 -1.864,2.035c-1.102,0.883 -1.592,2.429 -1.904,3.752c-0.135,0.573 -0.24,1.16 -0.266,1.748c-0.017,0.382 -0.032,0.821 0.129,1.177c0.18,0.399 0.575,0.581 0.838,0.913c0.625,0.784 0.71,2.089 0.939,3.017c0.223,0.902 0.505,1.735 1.122,2.455c0.655,0.765 1.367,1.351 1.736,2.321c0.281,0.74 0.418,1.54 0.533,2.319c0.2,1.36 0.325,2.731 0.561,4.085c0.216,1.239 0.61,2.434 0.853,3.666c0.084,0.428 0.226,0.993 0.041,1.412c-0.203,0.46 -0.655,0.501 -1.066,0.711c-0.772,0.394 -0.706,1.11 -0.519,1.868c0.946,3.839 4.101,6.699 4.333,10.781c0.034,0.589 0.051,1.276 -0.202,1.82c-0.412,0.887 -1.471,0.809 -1.439,1.95c0.047,1.653 1.034,3.262 0.755,4.937c-0.159,0.956 -0.852,1.713 -1.009,2.671c-0.165,1.002 0.118,2.027 0.172,3.026c0.06,1.085 -0.314,1.564 -1.451,1.413c-0.763,-0.101 -1.46,-0.262 -2.237,-0.27c-2.108,-0.021 -4.18,0.403 -6.296,0.361" style="fill:none;fill-rule:nonzero;stroke:#000;stroke-width:2.74px;"/><path id="POLYLINE_5_" d="M302.933,327.159c3.99,2.46 5.391,7.059 4.992,11.56c-0.128,1.448 -0.671,2.63 -2.108,3.169c-0.865,0.324 -1.814,0.427 -2.73,0.488c-3.201,0.212 -6.487,-0.051 -9.679,-0.295c-0.818,-0.062 -1.639,-0.13 -2.452,-0.238c-0.698,-0.093 -1.462,-0.373 -2.147,-0.313c-1.308,0.114 -2.569,0.717 -3.899,0.828c-0.948,0.079 -1.82,-0.102 -2.716,-0.397c-1.153,-0.38 -2.084,-0.451 -3.275,-0.156c-2.781,0.691 -5.422,0.801 -8.288,0.701c-3.12,-0.109 -6.309,0.055 -9.407,-0.346c-2.121,-0.275 -4.918,-0.738 -6.137,-2.709c-1.013,-1.638 -1.162,-4.041 -1.066,-5.913c0.023,-0.451 0.075,-0.9 0.163,-1.343c-1.081,0.382 -1.437,-1.217 -1.766,-1.915c-0.588,-1.248 -1.333,-2.409 -1.764,-3.726c-0.783,-2.391 -0.852,-4.942 -0.271,-7.379c0.422,-1.772 0.804,-3.285 0.39,-5.081c-0.446,-1.939 -1.294,-3.807 -1.018,-5.832c0.291,-2.136 1.219,-4.026 0.663,-6.202c-0.654,-2.558 -2.381,-4.66 -3.784,-6.84c-0.981,-1.524 -1.484,-3.32 -1.687,-5.105c-0.268,-2.357 0.352,-5.187 -2.015,-6.625c-2.479,-1.506 -4.859,-2.862 -6.973,-4.888c-1.934,-1.855 -3.307,-4.298 -5.438,-5.94c-0.805,-0.62 -1.897,-1.015 -2.529,-1.832c-0.671,-0.868 -0.325,-1.992 -0.558,-2.985c-0.327,-1.39 -1.751,-2.059 -2.75,-2.924c-0.877,-0.76 -1.148,-1.682 -1.701,-2.646c-0.697,-1.218 -1.929,-1.466 -3.133,-1.997c-1.533,-0.674 -1.275,-1.577 -1.397,-3.025c-0.111,-1.315 -1.014,-2.086 -2.039,-2.789c-0.719,-0.494 -2.829,-1.466 -2.514,-2.615c0.232,-0.844 2.221,-1.787 1.138,-2.651c-0.824,-0.658 -2.519,-0.713 -3.055,-1.694c-0.632,-1.156 1.543,-2.202 1.217,-3.45c-0.272,-1.044 -1.985,-1.693 -2.782,-2.216c-0.366,-0.24 -0.999,-0.596 -0.921,-1.114c0.106,-0.701 1.158,-0.941 1.43,-1.55c0.455,-1.019 -2.159,-1.869 -2.764,-2.164c-0.965,-0.471 -2.357,-1.057 -2.805,-2.102c-0.41,-0.956 0.152,-2.03 0.43,-2.939c0.383,-1.252 0.081,-1.996 -0.996,-2.757c-1.073,-0.758 -2.591,-1.419 -1.827,-2.946c0.479,-0.956 1.499,-1.758 1.736,-2.82c0.254,-1.134 -1.192,-1.487 -2.032,-1.752c-0.779,-0.246 -2.619,-0.517 -3.023,-1.391c0.023,0.072 -0.667,0.763 -0.729,0.838c-0.396,0.481 -0.79,0.964 -1.176,1.452c-0.437,0.552 -0.862,1.114 -1.271,1.687c-1.025,1.435 -1.928,2.949 -2.849,4.451c-1.374,2.24 -2.718,4.75 -4.857,6.374c-1.077,0.818 -2.286,1.444 -3.357,2.272c-1.39,1.075 -2.672,2.283 -4.08,3.335c-1.746,1.305 -3.879,1.69 -5.656,2.892c-1.932,1.308 -3.464,3.224 -5.668,4.122c-2.364,0.965 -5.077,0.806 -7.562,1.238c-3.343,0.582 -6.628,1.47 -9.995,1.919c-3.649,0.487 -7.324,0.279 -10.991,0.169c-0.71,-0.021 -1.419,-0.035 -2.129,-0.031c-0.418,0.002 -2.357,-0.19 -2.614,0.07c-0.168,0.17 -0.033,1.11 -0.041,1.362c-0.012,0.402 -0.023,0.804 -0.028,1.207c-0.01,0.888 0.002,1.776 0.059,2.662c0.111,1.741 0.505,3.381 0.934,5.064c0.143,0.562 0.321,1.161 0.316,1.745c-0.006,0.748 -0.398,0.886 -0.861,1.388c-0.803,0.872 -0.359,2.387 -0.147,3.425c0.342,1.677 0.801,3.333 1.049,5.03c0.269,1.837 0.113,3.517 -0.593,5.24c-0.453,1.104 -1.004,2.164 -1.305,3.324c-0.397,1.532 -0.49,3.123 -0.713,4.683c-0.32,2.238 -1.416,4.322 -1.545,6.582c-0.125,2.177 0.618,4.331 -0.589,6.312c-0.85,1.393 -1.582,2.597 -1.757,4.244c-0.162,1.52 0.142,2.989 0.713,4.398c0.464,1.145 1.119,2.242 1.457,3.435c0.178,0.628 0.188,1.097 -0.214,1.63c-0.466,0.617 -0.76,0.917 -0.428,1.695c0.526,1.232 1.545,2.252 2.286,3.353c0.23,0.341 0.554,0.757 0.63,1.165c0.145,0.777 -0.52,0.686 -1.071,0.907c-0.686,0.276 -0.359,0.642 0.083,1.084c0.463,0.466 1.006,0.864 1.533,1.253c1.281,0.948 2.722,1.801 3.83,2.958c0.969,1.012 0.842,1.696 -0.577,2.032c2.205,2.002 5.595,2.749 8.4,3.48c2.137,0.556 4.298,1.018 6.441,1.549c1.3,0.323 2.702,0.631 3.859,1.338c1.797,1.097 2.906,4.168 1.972,6.108c-1.26,2.615 -5.82,2.611 -8.241,2.741c-8.906,0.478 -17.913,0.055 -26.822,-0.04c-3.994,-0.042 -7.99,-0.121 -11.984,-0.127c-4.386,-0.007 -8.774,0.138 -13.159,0.064c-2.688,-0.046 -6.017,0.087 -8.421,-1.343c-1.093,-0.649 -1.639,-1.725 -1.898,-2.918c-0.398,-1.833 -0.572,-3.8 -0.662,-5.671c-0.035,-0.727 -0.031,-1.456 0.038,-2.182c-2.667,1.159 -3.166,-4.602 -3.387,-6.123c-0.233,-1.602 -0.281,-3.376 -0.837,-4.917c-0.226,-0.625 -0.527,-1.032 -1.155,-1.269c-0.655,-0.248 -1.255,-0.283 -1.704,-0.869c-0.742,-0.969 -0.846,-2.49 -0.937,-3.663c-0.128,-1.641 -0.094,-3.293 -0.023,-4.936c0.158,-3.631 0.598,-7.243 0.841,-10.869c0.054,-0.807 0.101,-1.617 0.095,-2.425c-0.003,-0.435 0.098,-1.473 -0.263,-1.783c-0.503,-0.431 -0.915,0.603 -1.434,0.309c-0.356,-0.202 -0.334,-1.005 -0.354,-1.36c-0.178,-3.131 0.452,-6.358 0.865,-9.452c0.254,-1.901 0.543,-3.8 0.734,-5.709c0.051,-0.51 0.491,-3.469 -0.392,-3.281c-0.564,0.121 -0.844,1.311 -1.449,1.323c-0.544,0.012 -0.463,-1.007 -0.468,-1.395c-0.021,-1.733 0.228,-3.476 0.403,-5.195c0.147,-1.444 0.37,-2.915 0.349,-4.371c-0.012,-0.82 -0.211,-1.614 -0.262,-2.431c-0.216,-3.453 0.166,-7.054 0.507,-10.491c0.079,-0.799 0.174,-1.597 0.277,-2.394c-0.426,0.832 -0.965,1.584 -1.658,2.219c-1.063,0.974 -2.405,1.615 -3.38,2.687c-0.994,1.094 -1.58,2.48 -2.369,3.713c-0.65,1.013 -1.468,1.866 -2.393,2.636c-1.025,0.854 -2.169,1.589 -3.047,2.604c-0.747,0.864 -1.276,1.888 -1.756,2.914c-1.391,2.975 -2.898,6.332 -3.122,9.643c-0.219,3.242 0.577,6.484 0.258,9.725c-0.268,2.721 -1.742,5.162 -2.437,7.784c-1.995,7.52 -1.999,15.448 -3.437,23.074c-0.144,0.762 -0.299,1.524 -0.514,2.269c-0.052,0.18 -0.256,0.539 -0.229,0.714c0.059,0.391 0.727,1.017 0.956,1.336c0.792,1.108 1.414,2.348 2.196,3.442c0.795,1.111 2.45,1.661 3.536,2.436c1.067,0.762 1.678,1.958 2.775,2.678c1.138,0.747 2.561,0.998 3.85,1.357c1.427,0.397 2.304,0.873 3.392,1.884c2.204,2.049 5.801,0.532 8.406,1.356c2.648,0.839 1.411,4.346 0.486,6.045c-1.374,2.522 -5.092,2.721 -7.613,2.958c-7.924,0.747 -16.002,0.251 -23.945,0.083c-8.441,-0.18 -16.856,-0.096 -25.299,0.023c-3.411,0.049 -6.827,0.07 -10.233,-0.134c-1.894,-0.115 -3.794,-0.286 -5.662,-0.627c-1.282,-0.235 -2.681,-0.516 -3.818,-1.186c-1.22,-0.717 -1.212,-1.711 -1.217,-2.968c-3.655,0.14 -2.03,-6.609 -1.771,-8.573c0.398,-3.01 1,-6.098 0.089,-9.067c-0.399,-1.301 -0.815,-2.527 -0.914,-3.889c-0.134,-1.839 0.034,-3.693 0.209,-5.524c0.452,-4.714 1.115,-9.417 1.679,-14.12c0.519,-4.329 1.038,-8.656 1.577,-12.981c0.513,-4.117 1.313,-8.188 2.39,-12.196c0.574,-2.135 1.235,-4.236 1.953,-6.327c0.347,-1.011 1.132,-2.61 0.794,-3.733c-0.256,-0.851 -1.124,-0.761 -1.681,-1.293c-0.501,-0.478 -0.164,-1.132 0.094,-1.664c0.566,-1.165 1.413,-2.294 1.584,-3.61c0.187,-1.433 -0.617,-2.859 -0.117,-4.263c0.432,-1.212 1.414,-2.179 2.09,-3.25c1.349,-2.139 0.633,-4.022 0.525,-6.382c-0.054,-1.183 0.255,-2.304 0.627,-3.417c0.592,-1.771 1.172,-3.533 1.402,-5.393c0.194,-1.564 0.084,-3.084 -0.169,-4.634c-0.213,-1.3 -0.622,-2.811 -0.256,-4.127c0.484,-1.74 2.387,-2.521 2.467,-4.471c0.06,-1.463 -0.426,-2.894 -0.581,-4.337c-0.061,-0.566 -0.093,-1.157 0.113,-1.698c0.312,-0.821 1.131,-1.331 1.383,-2.181c0.455,-1.533 -0.425,-3.419 -0.795,-4.878c-0.772,-3.045 0.584,-5.821 0.828,-8.841c0.165,-2.052 -0.875,-3.805 -1.024,-5.806c-0.188,-2.515 1.299,-4.841 1.201,-7.347c-0.042,-1.083 -0.441,-2.102 -0.695,-3.145c-0.244,-1.002 -0.309,-1.996 -0.23,-3.025c0.159,-2.053 0.678,-4.078 1.098,-6.088c0.388,-1.856 0.561,-3.665 0.649,-5.557c0.129,-2.765 1.303,-4.903 2.781,-7.231c1.109,-1.747 2.238,-3.489 3.515,-5.121c1.171,-1.497 2.605,-2.754 3.8,-4.227c2.28,-2.811 2.997,-6.536 5.418,-9.281c0.878,-0.996 1.892,-1.736 3.085,-2.315c1.376,-0.667 2.848,-1.168 3.785,-2.441c0.87,-1.182 1.356,-2.596 2.271,-3.753c0.916,-1.159 2.101,-2.093 3.297,-2.951c2.861,-2.048 5.611,-3.607 9.004,-4.586c4.255,-1.229 8.467,-2.742 12.827,-3.56c4.341,-0.816 8.744,-1.267 13.142,-1.642c3.977,-0.34 7.964,-0.501 11.954,-0.562c4.678,-0.071 9.371,-0.048 14.044,-0.307c4.244,-0.235 8.482,-0.797 12.422,-2.462c3.915,-1.654 7.347,-4.245 10.871,-6.566c1.552,-1.023 3.145,-1.965 4.827,-2.761c1.816,-0.859 3.706,-1.621 5.319,-2.836c3.19,-2.405 5.439,-5.981 7.789,-9.133c2.376,-3.189 5.003,-6.196 8.198,-8.602c3.002,-2.26 6.746,-3.971 9.255,-6.809c1.81,-2.048 2.219,-4.918 3.637,-7.215c1.932,-3.129 4.531,-5.91 7.274,-8.355c3.186,-2.839 6.778,-5.182 10.184,-7.746c3.469,-2.611 6.806,-5.426 9.94,-8.427c1.418,-1.358 2.825,-2.757 4.019,-4.318c1.218,-1.591 2.119,-3.386 3.196,-5.068c2.27,-3.547 4.884,-6.908 7.656,-10.082c2.723,-3.117 5.708,-6.031 9.262,-8.208c3.629,-2.224 7.69,-3.543 11.554,-5.282c4.052,-1.824 7.21,-4.614 10.602,-7.4c2.591,-2.129 5.549,-4.059 8.925,-4.618c4.063,-0.672 8.343,0.378 12.094,1.906c3.267,1.33 6.254,3.169 8.751,5.658c2.827,2.816 5.237,6.115 7.02,9.674c1.904,3.804 3.093,7.913 4.981,11.724c1.473,2.975 3.535,5.898 4.126,9.222c0.316,1.776 0.218,3.598 0.577,5.368c0.306,1.51 0.959,2.922 1.602,4.314c0.913,1.98 1.773,3.909 2.202,6.055c0.403,2.016 0.636,4.057 1.144,6.053c0.959,3.77 2.213,7.394 2.126,11.331c-0.046,2.084 -0.315,4.156 -0.403,6.238c-0.087,2.059 0.083,4.12 -0.019,6.178c-0.057,1.146 -0.226,2.247 -0.674,3.31c-0.505,1.201 -1.214,2.297 -1.259,3.631c-0.048,1.431 0.386,2.844 0.577,4.251c0.074,0.54 0.121,1.083 0.113,1.628c-0.007,0.412 -0.183,0.943 -0.124,1.338c0.066,0.444 0.478,0.969 0.674,1.38c0.212,0.444 0.417,0.892 0.609,1.346c0.386,0.915 0.708,1.853 0.971,2.809c0.516,1.875 0.845,3.804 1.118,5.727c0.276,1.936 0.531,3.91 0.522,5.869c-0.002,0.453 0.104,1.746 -0.533,1.62c-0.183,-0.036 -0.407,-0.523 -0.622,-0.446c-0.235,0.085 -0.14,0.71 -0.132,0.903c0.084,1.979 0.514,3.944 0.73,5.911c0.035,0.321 0.311,1.75 -0.067,1.9c-0.175,0.069 -0.317,-0.279 -0.538,-0.152c-0.238,0.137 -0.17,0.861 -0.174,1.098c-0.042,2.202 0.263,4.435 0.436,6.625c0.112,1.419 0.516,3.276 -0.201,4.549c-0.68,1.205 -0.183,3.19 -0.048,4.496c0.223,2.161 0.489,4.316 0.708,6.478c0.428,4.23 0.526,8.349 0.136,12.585c-0.172,1.875 -0.387,3.763 -0.188,5.645c0.171,1.61 0.684,3.147 1.267,4.651c0.589,1.519 1.362,3.057 1.67,4.669c0.256,1.339 -0.343,2.576 -0.336,3.908c0.006,1.158 0.339,2.301 0.681,3.397c0.675,2.166 1.527,4.279 2.327,6.401c0.645,1.712 1.344,3.442 1.721,5.234c0.1,0.476 0.226,1.033 0.131,1.516c-0.169,0.86 -0.97,0.696 -1.497,1.223c-0.697,0.698 -0.184,2.377 0.006,3.184c0.48,2.035 1.175,4.012 1.696,6.036c0.292,1.135 0.767,2.627 0.145,3.729c-0.468,0.828 -0.854,1.287 -0.848,2.291c0.004,0.675 0.1,1.352 0.201,2.019c0.5,3.29 1.312,6.401 0.596,9.711c-0.241,1.117 -0.537,2.203 -0.431,3.352c0.146,1.583 0.771,3.018 -0.19,4.463c-0.902,1.358 -1.524,2.366 -1.473,4.062c0.053,1.761 0.48,3.487 0.703,5.228c0.079,0.619 0.17,1.285 0.066,1.906c-0.137,0.821 -0.76,1.429 -0.941,2.234c-0.375,1.667 0.21,3.571 0.366,5.23c0.056,0.596 0.143,1.29 -0.006,1.878c-0.197,0.779 -0.974,0.934 -1.361,1.574c-0.795,1.312 -0.495,3.578 -0.539,5.015c-0.04,1.297 0.156,3.331 -1.408,3.691c-1.498,0.344 -1.566,2.013 -1.852,3.299c-0.114,0.511 -0.221,1.034 -0.417,1.523c-0.334,0.833 -0.939,1.166 -1.629,1.679c-0.947,0.705 -1.424,1.791 -1.777,2.879c-0.28,0.864 -0.491,1.776 -0.538,2.685c-0.03,0.582 -0.01,1.155 0.397,1.611c0.522,0.584 0.849,0.894 1.071,1.692c0.414,1.486 0.513,3.085 1.558,4.306c0.878,1.027 1.652,1.805 1.988,3.156c0.463,1.866 0.525,3.811 0.865,5.7c0.177,0.982 0.449,1.94 0.685,2.908c0.147,0.603 0.473,1.535 0.151,2.121c-0.315,0.575 -1.149,0.461 -1.517,0.978c-0.316,0.444 -0.14,1.116 -0.013,1.603c0.38,1.453 1.131,2.824 1.861,4.127c1.279,2.283 2.615,4.619 2.456,7.334c-0.035,0.596 -0.144,1.192 -0.622,1.594c-0.693,0.583 -1.103,0.592 -1.008,1.625c0.119,1.289 0.647,2.513 0.757,3.805c0.118,1.387 -0.816,2.298 -1.028,3.592c-0.108,0.658 -0.008,1.341 0.065,1.998c0.066,0.632 0.324,1.603 -0.061,2.17Z" style="fill:none;fill-rule:nonzero;stroke:#000;stroke-width:3.49px;"/></g></g></g></svg>