<?xml version="1.0" encoding="UTF-8" standalone="no"?><!DOCTYPE svg PUBLIC "-//W3C//DTD SVG 1.1//EN" "http://www.w3.org/Graphics/SVG/1.1/DTD/svg11.dtd"><svg width="100%" height="100%" viewBox="0 0 286 506" version="1.1" xmlns="http://www.w3.org/2000/svg" xmlns:xlink="http://www.w3.org/1999/xlink" xml:space="preserve" xmlns:serif="http://www.serif.com/" style="fill-rule:evenodd;clip-rule:evenodd;stroke-linecap:round;stroke-linejoin:round;stroke-miterlimit:10;"><g><g><g><path id="POLYLINE_33_" d="M113.95,19.611c2.195,-3.031 4.676,-5.813 7.853,-7.74c3.041,-1.844 6.511,-2.857 9.991,-3.276c3.809,-0.46 7.704,-0.201 11.418,0.8c3.716,1.001 7.283,2.682 10.521,4.823c3.19,2.109 5.917,4.637 7.692,8.158c0.24,0.476 0.471,0.957 0.703,1.437" style="fill:none;fill-rule:nonzero;stroke:#1a1608;stroke-width:1.82px;"/><path id="POLYLINE_21_" d="M120.644,66.682c-0.221,1.495 -1.313,2.739 -2.101,3.939c-0.712,1.084 -1.314,2.219 -1.691,3.477c-0.879,2.928 -0.922,6.401 0.159,9.28c0.656,1.745 1.85,3.093 3.483,3.893c2.933,1.436 6.454,1.56 9.621,1.968c3.761,0.485 7.561,1.047 11.361,0.862c2.244,-0.111 4.662,-0.474 6.503,-1.927c1.918,-1.514 2.845,-3.942 3.024,-6.385c0.284,-3.87 -1.048,-7.634 -1.36,-11.459c-0.179,-2.193 -0.162,-4.915 1.519,-6.535c0.973,-0.938 2.242,-1.445 3.352,-2.17c1.058,-0.691 1.854,-1.619 2.36,-2.815c1.307,-3.093 1.381,-6.888 1.671,-10.204c0.24,-2.75 0.52,-5.889 -0.494,-8.517c-0.795,-2.061 -2.522,-3.242 -4.475,-3.914c-3.255,-1.121 -6.818,-1.25 -10.213,-1.473c-4.559,-0.299 -9.118,-0.6 -13.678,-0.875c-3.139,-0.189 -6.405,-0.287 -9.489,0.467c-2.725,0.666 -5.212,2.208 -6.64,4.778c-1.592,2.865 -1.669,6.384 -1.298,9.591c0.357,3.089 1.121,6.442 2.882,9.012c1.504,2.195 3.789,3.648 4.941,6.131c0.411,0.884 0.7,1.886 0.563,2.876Z" style="fill:none;fill-rule:nonzero;stroke:#1a1608;stroke-width:2.5px;"/><g><g><path id="POLYLINE_24_" d="M199.616,246.881c0.604,4.93 1.38,9.863 2.935,14.577c1.476,4.472 3.708,8.629 4.561,13.312c0.357,1.959 0.558,4.04 1.329,5.885c0.723,1.729 1.984,3.131 2.803,4.806c0.968,1.977 1.519,4.163 2.045,6.302c0.639,2.601 1.225,5.218 1.936,7.8c1.338,4.862 3.167,9.534 5.416,14.016c0.269,0.536 0.545,1.069 0.822,1.601" style="fill:none;fill-rule:nonzero;stroke:#1a1608;stroke-width:2.5px;"/><path id="POLYLINE_27_" d="M69.501,328.54c-1.029,-1.121 -2.141,-1.906 -3.655,-2.088c-1.841,-0.221 -3.637,-0.137 -5.445,-0.634c-1.652,-0.455 -4.246,-1.074 -5.224,-2.696c-0.541,-0.896 -0.581,-2.08 -0.416,-3.098c0.216,-1.332 0.869,-2.224 1.754,-3.186c1.083,-1.178 1.134,-2.429 0.78,-3.932c-0.291,-1.236 -0.727,-2.432 -1.133,-3.63c-0.261,-0.769 -0.789,-1.819 -0.74,-2.659c0.063,-1.1 1.514,0.09 2.051,0.288c1.075,0.396 1.083,-0.555 0.999,-1.435c-0.072,-0.751 -1.249,-4.908 -0.195,-5.204c0.752,-0.212 1.759,0.839 2.51,0.97c0.894,0.156 1.066,-0.711 1.129,-1.458c0.17,-2.038 -0.249,-4.108 -0.348,-6.139c-0.027,-0.569 -0.229,-1.989 0.553,-1.987c0.43,0.001 0.843,0.544 1.296,0.357c0.337,-0.14 0.42,-0.631 0.483,-0.956c0.412,-2.087 0.084,-4.301 0.25,-6.414c0.043,-0.558 0.049,-1.787 0.796,-1.684c0.619,0.085 1.492,1.595 2.124,1.034c0.442,-0.393 0.407,-1.754 0.455,-2.277c0.08,-0.876 0.086,-1.904 0.437,-2.727c0.432,-1.012 1.254,-0.594 2.103,-0.709c0.746,-0.101 0.977,-0.757 1.114,-1.453c0.384,-1.948 0.181,-4.055 0.167,-6.025c-0.008,-1.101 -0.35,-3.903 0.93,-4.467c0.453,-0.199 0.904,-0.166 1.296,-0.521c0.314,-0.285 0.513,-0.705 0.675,-1.098c0.256,-0.618 0.415,-1.281 0.537,-1.94c0.373,-2.014 0.414,-4.187 -0.016,-6.195c-0.096,-0.45 -0.22,-0.892 -0.386,-1.318" style="fill:none;fill-rule:nonzero;stroke:#1a1608;stroke-width:2.5px;"/><path id="POLYLINE_28_" d="M81.469,275.42c-1.163,3.955 -2.41,7.834 -3.845,11.691c-1.508,4.055 -3.194,8.116 -4.167,12.359c-0.455,1.987 -0.695,4.014 -1.056,6.021c-0.376,2.088 -0.866,4.152 -1.255,6.236c-0.785,4.218 -1.177,8.503 -1.44,12.788c-0.25,4.08 -0.43,8.182 -0.349,12.271c0.037,1.909 0.112,3.846 0.479,5.72c0.335,1.714 0.916,3.354 1.148,5.093c0.278,2.081 0.349,4.187 0.708,6.258c0.382,2.208 0.967,4.384 1.485,6.56c0.846,3.555 1.819,7.285 1.541,10.979c-0.137,1.819 -0.445,3.603 -0.502,5.431c-0.063,2.045 -0.038,4.097 -0.009,6.144c0.034,2.362 0.101,4.724 0.133,7.087c0.024,1.764 0.055,3.577 -0.265,5.317c-0.249,1.356 -0.898,2.515 -1.389,3.782c-0.587,1.509 -0.87,3.143 -1.067,4.752c-0.228,1.862 -0.19,3.745 -0.411,5.607c-0.203,1.707 -0.848,3.272 -1.296,4.916c-0.504,1.846 -0.578,3.744 -0.566,5.653c0.014,2.232 0.036,4.46 0.017,6.694c-0.034,4.09 0.875,8.052 1.582,12.058c0.698,3.95 1.398,7.9 2.1,11.848c0.796,4.468 1.782,8.944 2.35,13.453c0.217,1.719 0.222,3.432 -0.078,5.139c-0.305,1.733 -0.918,3.416 -1.128,5.165c-0.117,0.972 0.16,1.9 0.191,2.867c0.063,1.927 -0.203,3.868 -0.291,5.792c-0.077,1.679 -0.545,6.712 1.879,7.272c1.149,0.265 2.448,-0.62 3.524,-0.883c1.108,-0.271 2.123,-0.078 3.133,0.444c0.999,0.517 2.339,1.821 3.558,1.67c0.654,-0.081 1.137,-0.629 1.721,-0.89c0.552,-0.247 1.123,-0.203 1.695,-0.064c1.407,0.342 2.696,1.072 4.112,1.394c1.056,0.241 2.164,0.337 3.239,0.179c1.259,-0.185 2.393,-0.882 3.671,-0.955c1.352,-0.078 2.69,0.319 4.036,0.384c2.229,0.107 3.961,-1.158 6.056,-1.723c1.108,-0.298 2.285,-0.196 3.379,-0.542c1.218,-0.385 1.867,-1.498 2.24,-2.691c1.012,-3.232 0.643,-7.013 0.076,-10.298c-0.327,-1.889 -0.872,-3.675 -1.462,-5.488c-0.278,-0.855 -0.551,-1.734 -0.571,-2.645c-0.029,-1.427 0.514,-2.789 0.651,-4.199c0.136,-1.389 -0.065,-2.796 -0.297,-4.162c-0.671,-3.937 -1.424,-7.857 -1.396,-11.876c0.027,-3.816 1.109,-7.383 2.01,-11.047c0.452,-1.842 0.823,-3.714 0.9,-5.618c0.08,-1.957 -0.088,-3.914 -0.04,-5.872c0.102,-4.078 1.156,-7.885 1.842,-11.867c0.346,-2.005 0.524,-4.039 0.884,-6.042c0.084,-0.465 0.153,-1.42 0.48,-1.792c0.559,-0.637 0.682,0.748 1.118,0.932c0.766,0.326 1.44,-4.237 1.548,-4.761c0.364,-1.77 0.716,-3.602 1.427,-5.264c0.642,-1.503 1.641,-2.033 3.085,-2.528c1.426,-0.49 2.061,-1.712 2.591,-3.081c0.662,-1.708 1.052,-3.529 1.783,-5.208c0.678,-1.554 2.141,-2.074 3.016,-3.439c1.737,-2.709 2.512,-6.345 3.042,-9.509c0.308,-1.841 0.404,-3.688 0.417,-5.555c0.016,-2.271 0.164,-4.509 0.337,-6.774c0.288,-3.779 0.137,-7.507 -0.161,-11.279c-0.354,-4.502 -0.758,-8.997 -0.784,-13.518c-0.026,-4.211 0.129,-8.409 0.309,-12.615" style="fill:none;fill-rule:nonzero;stroke:#1a1608;stroke-width:2.5px;"/><path id="POLYLINE_30_" d="M180.38,164.394c1.847,2.812 2.915,6.914 2.655,10.319c-0.117,1.532 -1.132,2.572 -1.495,4.008c-0.407,1.612 -0.318,3.382 -0.241,5.029c0.106,2.245 0.347,4.502 0.789,6.703c0.154,0.767 0.323,1.546 0.602,2.276c0.112,0.289 0.238,0.691 0.487,0.883c0.281,0.217 0.548,0.059 0.85,0.16c0.525,0.175 0.752,0.964 0.932,1.459c0.353,0.972 0.608,1.985 0.858,2.99c0.593,2.384 1.114,4.787 1.72,7.169c0.48,1.888 0.958,3.847 1.805,5.6c0.36,0.747 0.825,1.418 1.496,1.894c0.776,0.55 1.608,0.823 2.136,1.689c0.879,1.443 1.179,3.344 1.475,4.991c0.425,2.351 0.76,4.682 1.512,6.951c0.757,2.288 1.541,4.572 2.371,6.831c0.384,1.045 0.782,2.089 1.242,3.102c0.181,0.4 0.757,1.973 1.298,1.924c0.504,-0.047 0.538,-1.546 0.577,-1.932c0.118,-1.164 0.177,-2.335 0.321,-3.497c0.096,-0.77 0.186,-1.659 0.554,-2.347c0.464,-0.865 1.329,-0.757 1.993,-1.314c1.029,-0.862 1.109,-2.972 1.278,-4.201c0.369,-2.665 0.709,-5.337 1.123,-7.996c0.133,-0.859 0.242,-1.746 0.484,-2.581c0.363,-1.253 0.527,0.241 0.579,0.785c0.205,2.153 0.174,4.333 0.211,6.494c0.084,4.789 -0.124,9.78 0.775,14.505c0.395,2.076 1.209,3.991 1.834,5.994c0.589,1.887 0.798,3.856 0.974,5.823c0.426,4.777 1.372,9.509 1.642,14.296c0.135,2.38 0.031,4.757 -0.042,7.137c-0.031,1.036 -0.07,2.074 -0.038,3.111c0.019,0.597 -0.051,1.935 0.466,2.33c0.634,0.485 1.491,-0.774 2.143,-0.837c0.723,-0.071 0.95,0.844 1.101,1.432c0.562,2.185 0.608,4.56 0.816,6.798c0.14,1.504 0.176,3.289 0.855,4.668c0.436,0.884 1.377,1.264 1.668,2.244c0.242,0.819 0.23,1.76 0.239,2.607c0.014,1.214 -0.021,2.43 0.019,3.643c0.023,0.712 -0.029,1.868 0.43,2.443c0.449,0.563 1.253,0.15 1.727,0.683c0.42,0.474 0.472,1.406 0.539,2.017c0.235,2.142 0.161,4.311 0.446,6.448c0.204,1.526 0.643,2.509 1.642,3.664c0.619,0.716 0.032,1.146 -0.581,1.633c-0.844,0.67 -1.716,1.292 -2.497,2.045c-1.091,1.052 -2.032,2.292 -2.789,3.624c-0.672,1.181 -1.664,3.04 -1.083,4.425c0.654,1.559 2.667,1.413 3.791,2.364c1.09,0.922 1.082,2.781 1.065,4.114c-0.021,1.598 0.147,4.147 -1.229,5.217c-2.434,1.893 -6.311,1.822 -7.743,4.983c-1.074,2.371 -1.291,6.206 1.819,6.794c1.681,0.317 3.424,-0.023 5.098,0.338c1.872,0.404 1.945,2.179 1.538,3.81c-0.417,1.674 -1.305,3.066 -2.112,4.554c-0.608,1.121 -0.829,2.258 -0.467,3.523c0.429,1.504 1.306,2.91 2.298,4.078c0.877,1.033 2.183,2.325 3.619,2.232c1.653,-0.109 2.9,-1.919 4.042,-2.939c0.719,-0.642 1.518,-1.133 2.43,-1.408c3.162,-0.955 6.553,0.177 9.775,-0.361c3.39,-0.566 4.74,-3.26 6.481,-6.023c0.663,-1.052 1.395,-2.003 2.376,-2.749c1.211,-0.923 2.643,-1.521 3.757,-2.583c1.318,-1.256 2.032,-3.094 3.45,-4.237c1.29,-1.039 2.697,-1.446 3.692,-2.892c1.188,-1.727 2.133,-3.593 3.411,-5.262c1.363,-1.779 2.846,-3.497 3.969,-5.46c0.795,-1.39 1.22,-2.851 1.541,-4.426c0.326,-1.602 0.611,-2.856 1.664,-4.117c0.959,-1.149 1.594,-2.221 1.899,-3.726c0.38,-1.868 0.453,-3.8 0.955,-5.641c0.725,-2.662 2.878,-4.487 3.75,-7.076c1.252,-3.718 0.364,-7.738 1.421,-11.462c0.508,-1.795 1.449,-3.429 2.091,-5.173c0.644,-1.749 1.131,-3.585 1.148,-5.469c0.038,-4.347 -1.572,-8.623 -2.955,-12.649c-0.723,-2.102 -1.442,-4.231 -1.838,-6.431c-0.336,-1.872 -0.247,-3.815 -0.678,-5.668c-0.365,-1.563 -1.219,-2.941 -1.941,-4.343c-0.911,-1.767 -1.353,-3.574 -1.79,-5.517c-0.298,-1.327 -0.65,-2.627 -1.322,-3.805c-0.971,-1.7 -2.364,-3.08 -3.358,-4.765c-0.841,-1.424 -1.632,-2.684 -2.94,-3.691c-1.663,-1.28 -3.529,-2.244 -5.197,-3.519c-1.177,-0.9 -2.073,-1.948 -2.674,-3.345c-0.344,-0.799 -0.615,-1.629 -1.053,-2.381c-0.5,-0.859 -1.138,-1.624 -1.698,-2.441c-2.266,-3.303 -3.105,-7.535 -3.701,-11.474c-0.718,-4.749 -0.816,-9.55 -0.896,-14.347c-0.069,-4.22 -0.322,-8.337 -0.923,-12.511c-0.773,-5.368 -1.438,-10.765 -2.363,-16.107c-0.755,-4.367 -1.869,-8.63 -3.275,-12.817c-1.546,-4.604 -3.143,-9.181 -4.391,-13.884c-1.234,-4.65 -2.442,-9.289 -4.052,-13.817c-1.712,-4.81 -3.416,-9.628 -5.197,-14.409c-1.565,-4.198 -3.228,-8.455 -5.767,-12.134c-2.382,-3.453 -5.537,-5.997 -9.449,-7.27c-4.152,-1.35 -8.524,-1.576 -12.762,-2.499c-2.919,-0.636 -5.531,-1.821 -7.63,-4.069c-2.974,-3.186 -4.983,-7.275 -7.409,-10.891c-2.589,-3.857 -5.905,-7.243 -7.768,-11.586c-1.913,-4.46 -2.727,-9.423 -3.831,-14.14c-1.075,-4.593 -2.299,-9.149 -3.569,-13.688c-1.273,-4.554 -2.607,-9.094 -4.053,-13.592c-1.388,-4.317 -2.67,-8.806 -4.913,-12.744c-1.992,-3.497 -4.851,-6.118 -8.413,-7.778c-3.924,-1.827 -8.238,-2.715 -12.491,-3.201c-4.348,-0.497 -8.758,-0.548 -13.114,-0.136c-4.316,0.408 -8.718,1.262 -12.584,3.394c-3.524,1.943 -6.276,4.939 -8.234,8.534c-2.015,3.699 -3.313,7.805 -4.21,11.94c-0.973,4.488 -1.464,9.094 -1.455,13.695c0.01,4.582 0.573,9.152 0.462,13.734c-0.11,4.534 -1.495,8.807 -2.232,13.242c-0.727,4.37 -0.506,8.739 0.253,13.09c0.795,4.565 2.056,9.095 3.819,13.358c1.681,4.067 4.101,7.793 6.761,11.233c0.765,0.99 2.033,2.795 3.395,2.822c0.907,0.019 1.569,-0.886 2.332,-1.274c0.799,-0.406 1.587,-0.263 2.381,0.079c1.75,0.755 3.223,2.064 4.893,2.974c0.71,0.387 1.494,0.75 2.312,0.589c0.802,-0.159 1.454,-0.742 2.204,-1.046c2.925,-1.185 6.102,1.434 9.042,0.227c1.01,-0.414 1.873,-1.138 2.931,-1.434c1.421,-0.398 2.98,-0.131 4.408,0.064c1.654,0.226 3.474,0.662 5.145,0.335c1.732,-0.337 2.42,-2.168 3.961,-2.858c1.492,-0.667 3.191,-0.581 4.743,-1.019c0.803,-0.226 1.482,-0.599 1.885,-1.39c0.376,-0.737 0.476,-1.588 0.807,-2.344c0.726,-1.664 2.488,-2.489 3.626,-3.801c0.843,-0.972 1.414,-2.158 1.861,-3.373c1.549,-4.217 2.242,-8.926 2.856,-13.377c0.569,-4.122 0.846,-8.293 0.566,-12.453" style="fill:none;fill-rule:nonzero;stroke:#1a1608;stroke-width:2.5px;"/><path id="POLYLINE_31_" d="M77.329,170.737c0.418,2.129 0.868,4.288 0.616,6.47c-0.239,2.082 -1.13,3.995 -2.091,5.811c-2.573,4.864 -5.402,9.405 -7.121,14.706c-1.567,4.83 -2.552,9.873 -3.1,14.936c-0.587,5.417 -0.653,10.875 0.262,16.258c0.9,5.3 2.61,10.408 4.41,15.438c1.887,5.276 3.963,10.478 5.908,15.73c1.956,5.281 3.428,10.756 5.512,15.983c1.793,4.496 4.029,8.955 7.111,12.648c3.22,3.858 7.72,6.07 11.18,9.633c3.777,3.892 6.034,9.081 8.781,13.737c1.194,2.024 2.464,4.093 4.119,5.747c1.03,1.029 2.132,1.598 3.471,2.06c1.451,0.501 2.602,1.148 3.803,2.139c1.489,1.231 3.059,2.759 4.99,3.16c1.156,0.241 2.297,-0.082 3.336,-0.614c2.172,-1.111 4.004,-2.908 5.837,-4.52c1.763,-1.549 3.548,-3.04 5.65,-4.063c1.928,-0.937 4.061,-1.487 5.843,-2.729c1.836,-1.279 3.057,-3.297 4.314,-5.137c1.292,-1.888 2.629,-3.724 4.403,-5.154c3.544,-2.857 8.116,-4.263 10.802,-8.187c1.398,-2.041 2.356,-4.37 3.776,-6.398c1.27,-1.811 2.881,-3.317 4.473,-4.811c1.868,-1.754 3.748,-3.478 5.342,-5.514c1.512,-1.932 2.803,-4.029 4.078,-6.133c1.358,-2.237 2.702,-4.44 4.462,-6.365c1.793,-1.962 3.769,-3.733 5.524,-5.737c3.559,-4.064 5.721,-9.065 6.953,-14.38c0.541,-2.335 0.852,-4.703 0.982,-7.101" style="fill:none;fill-rule:nonzero;stroke:#1a1608;stroke-width:2.5px;"/><path id="POLYLINE_32_" d="M89.384,113.577c-1.694,3.897 -3.308,7.85 -5.36,11.562c-1.953,3.534 -4.359,6.462 -7.123,9.324c-2.195,2.273 -4.424,4.607 -5.675,7.612c-1.177,2.825 -1.336,5.977 -1.131,9.013c0.244,3.623 1.018,7.224 2.145,10.657c0.987,3.004 2.245,6.506 4.639,8.624c2.282,2.019 5.579,2.216 8.429,2.385c4.044,0.241 8.108,0.119 12.151,-0.069c4.252,-0.199 8.487,-0.578 12.727,-0.949c3.87,-0.338 7.709,-0.627 11.595,-0.478c3.802,0.146 7.593,0.526 11.383,0.855c4.534,0.394 9.066,0.854 13.606,1.159c3.855,0.259 7.728,0.394 11.589,0.19c4.029,-0.213 8.1,-0.777 11.915,-2.198c3.723,-1.387 7.105,-3.668 9.868,-6.611c2.551,-2.716 4.604,-5.992 5.824,-9.582c1.174,-3.456 1.625,-7.387 0.475,-10.919c-1.158,-3.558 -4.007,-6.008 -6.54,-8.508c-2.485,-2.454 -4.667,-5.187 -6.504,-8.199c-2.089,-3.429 -3.777,-7.133 -5.061,-10.967c-0.626,-1.871 -1.149,-3.773 -1.571,-5.705" style="fill:none;fill-rule:nonzero;stroke:#1a1608;stroke-width:2.5px;"/><path id="POLYLINE_20_" d="M101.839,75.407c-0.424,-4.85 0.306,-9.344 1.353,-14.057c0.517,-2.327 1.004,-4.66 1.137,-7.051c0.134,-2.392 0.003,-4.782 -0.121,-7.17c-0.272,-5.239 -0.455,-10.417 0.188,-15.638c0.591,-4.793 1.669,-9.576 3.468,-14.039c1.682,-4.17 4.088,-8.056 7.664,-10.72c3.846,-2.864 8.553,-4.096 13.184,-4.676c4.848,-0.607 9.784,-0.607 14.638,-0.067c4.599,0.511 9.326,1.476 13.495,3.633c3.876,2.005 6.66,5.253 8.554,9.266c2.216,4.69 3.633,9.828 5.159,14.793c1.584,5.15 3.046,10.341 4.436,15.55c1.353,5.07 2.437,10.204 3.698,15.298c0.603,2.438 1.279,4.881 2.326,7.157c1.039,2.262 2.491,4.244 3.973,6.205c1.489,1.969 2.995,3.917 4.318,6.015c1.476,2.34 2.9,4.73 4.486,6.992c1.999,2.849 4.31,5.113 7.583,6.202c4.552,1.515 9.45,1.505 14.06,2.817c4.313,1.227 7.8,3.809 10.396,7.601c2.632,3.844 4.359,8.307 5.957,12.697c1.919,5.272 3.904,10.531 5.681,15.857c1.701,5.1 2.853,10.362 4.392,15.512c1.497,5.014 3.416,9.882 4.824,14.926c1.342,4.808 2.08,9.716 2.791,14.657c0.8,5.558 1.9,11.18 2.16,16.806c0.242,5.263 0.081,10.533 0.571,15.784c0.424,4.547 1.091,9.584 3.212,13.657c0.916,1.762 2.36,3.168 3.139,5.008c0.724,1.711 1.35,3.171 2.788,4.362c1.728,1.433 3.74,2.435 5.524,3.784c1.481,1.119 2.28,2.531 3.25,4.106c1.043,1.693 2.492,3.083 3.398,4.874c0.849,1.678 1.089,3.588 1.544,5.403c0.534,2.134 1.644,3.909 2.567,5.871c0.603,1.283 0.868,2.561 0.99,3.981c0.223,2.598 0.618,5.025 1.387,7.515c0.761,2.462 1.716,4.857 2.443,7.33c0.632,2.154 1.153,4.439 1.315,6.689c0.152,2.1 -0.23,4.115 -0.908,6.091c-0.673,1.958 -1.741,3.768 -2.299,5.765c-0.561,2.002 -0.465,4.165 -0.568,6.225c-0.099,1.993 -0.334,4.044 -1.101,5.891c-0.669,1.612 -1.863,2.879 -2.691,4.394c-0.664,1.216 -0.976,2.545 -1.193,3.918c-0.294,1.864 -0.326,4.003 -1.199,5.709c-0.706,1.38 -1.99,2.281 -2.464,3.809c-0.542,1.75 -0.658,3.604 -1.406,5.291c-0.891,2.015 -2.312,3.73 -3.64,5.44c-1.513,1.948 -2.758,3.982 -4.081,6.067c-0.503,0.791 -1.064,1.496 -1.843,2.003c-0.724,0.47 -1.529,0.79 -2.197,1.354c-1.452,1.225 -2.172,3.151 -3.618,4.397c-1.239,1.067 -2.778,1.677 -4.007,2.764c-1.338,1.184 -2.165,2.853 -3.103,4.365c-0.815,1.313 -1.763,2.628 -3.141,3.334c-1.403,0.719 -3.033,0.83 -4.57,0.827c-2.989,-0.009 -6.507,-0.834 -9.141,1.108c-1.271,0.936 -2.194,2.387 -3.604,3.118c-1.619,0.839 -3.162,-0.307 -4.28,-1.498c0.493,2.947 0.453,6.159 -0.593,8.974c-0.466,1.256 -0.99,2.434 -1.195,3.774c-0.225,1.472 -0.223,2.977 -0.201,4.463c0.055,3.861 0.198,7.71 -0.077,11.566c-0.11,1.547 -0.382,3.087 -0.417,4.637c-0.033,1.472 0.302,2.89 0.56,4.329c0.375,2.093 0.285,3.7 -0.39,5.698c-0.527,1.559 -0.777,2.897 -0.505,4.54c0.561,3.381 1.891,6.58 2.472,9.963c0.404,2.355 -0.292,4.674 0.214,6.994c0.731,3.358 1.275,6.56 1.061,10.027c-0.08,1.288 -0.236,2.59 -0.602,3.827c-0.393,1.33 -1.098,2.522 -1.535,3.831c-0.738,2.214 -0.243,4.595 -0.445,6.88c-0.269,3.063 -1.858,5.853 -2.449,8.858c-0.61,3.098 -0.267,6.068 0.015,9.184c0.112,1.232 0.194,2.493 0.017,3.723c-0.177,1.222 -0.65,2.361 -0.951,3.549c-0.613,2.41 0.305,4.467 0.918,6.784c0.303,1.145 0.541,2.428 -0.162,3.47c-0.293,0.433 -0.528,0.435 -0.065,0.818c0.253,0.208 0.523,0.394 0.773,0.607c0.487,0.416 0.942,0.876 1.328,1.395c0.916,1.231 1.304,2.716 1.393,4.254c0.147,2.533 -0.182,5.926 -2.692,7.097c-2.615,1.222 -5.861,1.25 -8.67,1.374c-3.895,0.173 -7.798,0.085 -11.694,0.069c-3.66,-0.014 -7.323,0.128 -10.982,0.208c-2.777,0.062 -5.662,-0.01 -8.381,-0.653c-0.861,-0.203 -1.745,-0.47 -2.508,-0.948c-1.292,-0.809 -1.525,-2.074 -1.304,-3.528c0.408,-2.667 1.2,-5.799 2.676,-8.057c0.226,-0.346 0.479,-0.67 0.754,-0.976c0.17,-0.189 0.349,-0.371 0.531,-0.548c0.123,-0.121 0.344,-0.259 0.429,-0.405c0.163,-0.281 0.114,-0.096 0.052,-0.41c-0.136,-0.68 -0.56,-1.387 -0.788,-2.046c-0.243,-0.703 -0.461,-1.417 -0.622,-2.144c-0.527,-2.39 0.044,-4.577 0.42,-6.955c0.555,-3.516 0.445,-7.103 0.76,-10.642c0.232,-2.624 0.627,-5.138 -0.09,-7.71c-0.917,-3.285 -2.228,-6.311 -2.471,-9.77c-0.241,-3.435 0.279,-6.909 -0.064,-10.329c-0.139,-1.383 -0.827,-2.318 -1.411,-3.518c-0.482,-0.99 -0.775,-2.074 -1.044,-3.144c-0.487,-1.939 -0.914,-3.896 -1.436,-5.825c-0.332,-1.231 -0.672,-2.535 -1.306,-3.643c-0.369,-0.648 -0.818,-1.018 -1.527,-1.179c-0.652,-0.147 -1.201,-0.247 -1.696,-0.759c-0.831,-0.859 -1.312,-2.143 -1.782,-3.232c-0.689,-1.601 -1.292,-3.291 -2.167,-4.798c-0.266,-0.458 -0.612,-1.092 -1.108,-1.298c-0.605,-0.25 -1.086,0.285 -1.477,0.699c-0.364,0.384 -0.876,1.18 -1.463,1.175c-0.592,-0.005 -0.952,-0.817 -1.186,-1.288c-0.754,-1.521 -1.202,-3.192 -1.826,-4.77c-0.226,-0.574 -0.461,-1.263 -0.864,-1.73c-0.534,-0.618 -0.882,-0.167 -1.515,-0.01c-1.094,0.274 -1.69,-1.543 -2.026,-2.363c-1.341,-3.288 -2.14,-6.797 -3.216,-10.18c-0.186,-0.583 -0.363,-1.187 -0.627,-1.739c-0.093,-0.196 -0.201,-0.518 -0.429,-0.566c-0.135,-0.027 -0.25,0.181 -0.407,0.155c-0.441,-0.074 -0.808,-0.975 -1.008,-1.339c-0.402,-0.734 -0.762,-1.492 -1.129,-2.246c-0.444,-0.911 -0.873,-1.833 -1.352,-2.725c-0.187,-0.348 -0.603,-1.378 -1.008,-1.487c-0.856,-0.233 -0.267,2.249 -1.111,1.852c-0.315,-0.147 -0.618,-0.986 -0.759,-1.293c-0.34,-0.736 -0.633,-1.496 -0.919,-2.256c-0.651,-1.735 -1.263,-3.489 -1.824,-5.259c-1,-3.156 -1.791,-6.381 -2.164,-9.688c-0.019,3.091 -0.174,6.065 -0.857,9.085c-0.561,2.481 -1.243,5.234 -2.637,7.368c-0.707,1.082 -1.932,1.552 -2.609,2.644c-0.689,1.111 -1.013,2.497 -1.407,3.737c-0.381,1.199 -0.748,2.434 -1.346,3.54c-0.714,1.319 -1.644,1.588 -2.926,2.057c-2.346,0.86 -2.831,4.028 -3.318,6.226c-0.357,1.613 -0.615,3.258 -1.044,4.851c-0.094,0.348 -0.254,1.312 -0.707,1.231c-0.423,-0.075 -0.44,-1.02 -0.83,-1.142c-0.858,-0.271 -1.549,6.949 -1.641,7.523c-0.495,3.081 -1.353,6.064 -1.697,9.176c-0.349,3.155 -0.015,6.287 -0.203,9.44c-0.191,3.175 -1.17,6.221 -1.924,9.282c-0.685,2.788 -1.052,5.563 -0.944,8.445c0.122,3.24 0.661,6.425 1.23,9.606c0.429,2.394 0.611,4.498 0.106,6.875c-0.387,1.819 -0.323,3.149 0.245,4.905c0.953,2.939 1.67,5.845 1.895,8.953c0.173,2.378 0.209,5 -0.633,7.26c-0.102,0.273 -0.219,0.542 -0.359,0.796c-0.134,0.239 -0.476,0.536 -0.56,0.781c-0.096,0.283 -0.185,0.075 0.064,0.406c0.097,0.127 0.266,0.229 0.383,0.333c0.685,0.612 1.286,1.292 1.689,2.142c0.831,1.749 0.944,3.912 0.878,5.823c-0.072,2.082 -0.347,4.832 -2.612,5.482c-2.233,0.641 -4.841,0.434 -7.134,0.45c-7.674,0.051 -15.349,0.006 -23.023,0.01c-2.395,0.001 -4.792,0.01 -7.185,-0.114c-2.045,-0.106 -4.494,-0.078 -6.363,-1.098c-2.036,-1.111 -1.484,-3.638 -0.921,-5.496c0.44,-1.457 1.01,-2.889 1.712,-4.231c0.348,-0.666 0.734,-1.311 1.162,-1.925c0.191,-0.275 0.491,-0.554 0.64,-0.853c0.134,-0.267 0.154,-0.14 0.101,-0.452c-0.025,-0.145 -0.134,-0.314 -0.183,-0.457c-0.75,-2.163 -0.46,-4.699 -0.321,-6.938c0.094,-1.51 0.28,-3.057 0.208,-4.574c-0.037,-0.792 -0.261,-1.567 -0.221,-2.364c0.126,-2.493 1.239,-4.85 1.384,-7.365c0.133,-2.312 -0.324,-4.585 -0.725,-6.845c-1.515,-8.535 -3.032,-17.069 -4.547,-25.603c-0.407,-2.293 -0.872,-4.576 -0.904,-6.916c-0.045,-3.351 -0.146,-6.775 0.016,-10.121c0.071,-1.454 0.313,-2.851 0.739,-4.237c0.397,-1.293 0.863,-2.558 1.052,-3.907c0.401,-2.863 0.262,-5.74 0.9,-8.58c0.476,-2.12 1.697,-3.952 2.046,-6.098c0.54,-3.321 0.192,-6.889 0.128,-10.233c-0.058,-3.156 -0.171,-6.338 0.04,-9.489c0.094,-1.416 0.359,-2.812 0.45,-4.228c0.089,-1.403 -0.017,-2.799 -0.217,-4.188c-0.449,-3.125 -1.243,-6.186 -1.971,-9.248c-1.219,1.06 -2.464,2.124 -3.709,3.148c-0.77,0.632 -1.628,1.021 -2.589,1.188c-2.287,0.398 -5.005,0.13 -7.171,-0.749c-1.999,-0.813 -3.428,-2.47 -4.895,-4.038c-0.697,-0.744 -1.731,-2.121 -2.819,-2.253c-0.632,-0.076 -1.221,0.339 -1.861,0.318c-0.419,-0.013 -0.834,-0.146 -1.226,-0.298c-1.575,-0.614 -3.2,-1.787 -3.962,-3.377c-0.545,-1.137 -1.02,-1.841 -2.16,-2.385c-1.329,-0.634 -2.737,-1.067 -4.03,-1.784c-2.241,-1.243 -3.487,-3.418 -5.177,-5.299c-1.792,-1.993 -4.044,-2.16 -6.353,-3.172c-2.443,-1.07 -3.595,-3.472 -4.929,-5.697c-0.731,-1.221 -1.444,-1.924 -2.656,-2.618c-1.177,-0.675 -1.809,-1.861 -2.432,-3.051c-0.686,-1.311 -1.288,-2.72 -2.161,-3.913c-0.431,-0.589 -0.897,-1.073 -1.64,-1.077c-0.519,-0.003 -1.044,0.269 -1.489,-0.123c-0.747,-0.659 -0.867,-2.383 -1.005,-3.303c-0.275,-1.844 -0.429,-3.706 -0.717,-5.547c-0.203,-1.302 -0.438,-2.638 -0.923,-3.864c-0.194,-0.489 -0.431,-1.003 -0.804,-1.372c-0.491,-0.487 -1.181,-0.524 -1.71,-0.934c-0.927,-0.718 -1.072,-2.393 -1.271,-3.489c-0.202,-1.108 -0.29,-3.025 -1.104,-3.897c-0.428,-0.461 -1.076,-0.264 -1.543,-0.607c-0.448,-0.33 -0.513,-1.05 -0.563,-1.572c-0.128,-1.323 -0.003,-2.679 0.104,-4c0.156,-1.929 0.234,-3.893 0.534,-5.806c0.23,-1.463 0.762,-2.773 1.301,-4.136c0.555,-1.404 0.923,-2.81 1.099,-4.319c0.201,-1.716 0.212,-3.468 0.544,-5.166c0.231,-1.179 0.763,-2.253 1.042,-3.415c0.31,-1.291 0.243,-2.652 0.314,-3.97c0.169,-3.128 1.634,-5.816 2.502,-8.764c1.037,-3.518 1.38,-7.237 1.844,-10.871c0.46,-3.602 0.868,-7.238 1.765,-10.757c0.91,-3.566 2.554,-6.754 4.109,-10.044c1.615,-3.42 2.4,-7.088 3.302,-10.761c0.918,-3.744 2.144,-7.389 3.31,-11.053c1.019,-3.201 2.069,-6.456 2.543,-9.803c0.36,-2.552 0.045,-5.31 0.849,-7.773c0.449,-1.375 1.198,-2.62 1.658,-3.993c0.537,-1.601 0.81,-3.301 1.145,-4.956c0.316,-1.562 0.676,-3.121 1.251,-4.604c0.664,-1.712 1.569,-3.305 2.394,-4.935c3.124,-6.171 3.059,-13.087 3.16,-19.896c0.117,-7.914 0.165,-15.856 1.155,-23.718c0.84,-6.67 2.369,-13.38 5.871,-19.117c3.722,-6.096 9.301,-10.386 15.729,-12.95c6.66,-2.657 13.709,-3.39 20.619,-5c3.049,-0.71 6.062,-1.738 8.456,-3.904c2.191,-1.982 3.839,-4.609 6.307,-6.257c2.194,-1.455 4.762,-2.104 7.286,-2.612Z" style="fill:none;fill-rule:nonzero;stroke:#1a1608;stroke-width:3.18px;"/></g><path id="POLYLINE_25_" d="M137.447,366.032c0.351,3.109 1.073,6.143 1.989,9.121c0.891,2.897 1.77,6.102 3.247,8.745c0.158,0.282 0.432,0.906 0.773,0.62c0.268,-0.226 0.213,-1.065 0.311,-1.394c0.416,-1.398 1.545,1.178 1.785,1.651c0.749,1.48 1.411,3.013 2.218,4.46c0.189,0.339 0.517,1.136 0.917,1.228c0.168,0.039 0.29,-0.173 0.426,-0.143c0.242,0.053 0.342,0.347 0.444,0.562c0.518,1.086 0.81,2.313 1.152,3.467c0.541,1.823 1.062,3.654 1.638,5.467c0.419,1.317 0.851,2.651 1.451,3.892c0.195,0.402 0.409,0.858 0.721,1.175c0.465,0.472 0.809,0.294 1.351,0.078c1.229,-0.49 1.699,1.322 2.057,2.261c0.556,1.458 0.989,2.983 1.671,4.386c0.213,0.439 0.53,1.18 1.026,1.323c0.518,0.15 0.954,-0.384 1.276,-0.728c0.36,-0.384 0.809,-1.046 1.351,-1.166c0.636,-0.14 1.086,0.516 1.401,0.999c1.513,2.319 2.111,5.166 3.547,7.534c0.271,0.448 0.579,0.901 1.014,1.188c0.505,0.332 1.079,0.314 1.629,0.498c0.957,0.321 1.387,1.385 1.73,2.287c1.158,3.04 1.606,6.329 2.52,9.447c0.623,2.124 2.054,3.789 2.179,6.056c0.181,3.251 -0.205,6.51 0.023,9.765c0.224,3.189 1.311,6.045 2.256,9.052c0.665,2.118 0.743,4.08 0.518,6.295c-0.349,3.445 -0.402,6.902 -0.69,10.351c-0.21,2.505 -1.057,5.014 -0.957,7.532c0.082,2.081 0.808,4.418 1.759,6.236c0.692,1.323 1.548,0.717 2.648,0.269c0.618,-0.252 1.249,-0.42 1.916,-0.427c2.256,-0.025 4.46,1.098 6.589,1.724c0.987,0.29 2.058,0.58 3.086,0.368c1.118,-0.232 2.015,-1.101 3.159,-1.223c0.727,-0.077 1.47,0.088 2.176,0.249c1.582,0.36 3.11,0.708 4.737,0.752c1.636,0.043 3.273,-0.082 4.908,-0.142c1.486,-0.055 2.978,0.044 4.462,-0.064c1.457,-0.107 3.119,-0.459 4.208,-1.556c1.946,-1.958 -0.039,-5.325 -0.482,-7.51c-0.422,-2.082 0.352,-3.754 0.85,-5.745c0.58,-2.318 0.182,-4.747 -0.051,-7.088c-0.274,-2.761 -0.172,-5.415 0.512,-8.108c0.669,-2.639 2.014,-5.132 2.18,-7.889c0.128,-2.124 -0.272,-4.341 0.372,-6.404c0.359,-1.146 0.96,-2.19 1.365,-3.318c0.372,-1.031 0.582,-2.107 0.708,-3.199c0.344,-2.969 0.212,-6.076 -0.408,-8.997c-0.276,-1.3 -0.741,-2.616 -0.768,-3.962c-0.023,-1.135 0.258,-2.25 0.231,-3.388c-0.068,-2.909 -1.106,-5.823 -1.873,-8.589c-0.494,-1.786 -1.125,-3.689 -0.918,-5.577c0.181,-1.653 1.07,-3.122 1.241,-4.781c0.235,-2.28 -0.679,-4.484 -0.792,-6.742c-0.063,-1.258 0.133,-2.503 0.262,-3.751c0.169,-1.627 0.257,-3.264 0.3,-4.899c0.088,-3.366 -0.14,-6.731 -0.077,-10.096c0.024,-1.291 0.099,-2.607 0.431,-3.857c0.315,-1.184 0.879,-2.273 1.238,-3.442c0.794,-2.585 0.764,-5.523 0.319,-8.176" style="fill:none;fill-rule:nonzero;stroke:#1a1608;stroke-width:2.5px;"/></g></g><path id="POLYLINE_22_" d="M127.252,68.496c-1.846,-1.669 -2.87,-3.959 -2.638,-6.525c0.187,-2.069 1.372,-3.451 3.375,-3.697c1.452,-0.178 2.997,0.089 4.355,0.641c0.842,0.343 1.582,0.827 2.196,1.525c0.665,0.754 0.99,1.4 2.024,0.928c1.332,-0.609 2.343,-1.351 3.833,-1.477c2.708,-0.227 7.153,0.999 7.178,4.503c0.016,2.196 -1.734,4.191 -3.411,5.297c-0.218,0.143 -0.441,0.275 -0.671,0.395" style="fill:none;fill-rule:nonzero;stroke:#1a1608;stroke-width:2.5px;"/></g></g></svg>