<svg class="gorilla-standing" xmlns="http://www.w3.org/2000/svg" viewBox="0 0 444.9 788.96">
  <defs>
    <style>
      .cls-2{fill:#a0a0a0;stroke:#1a1608;stroke-linecap:round;stroke-linejoin:round;stroke-width:2.5px}
    </style>
  </defs>
  <g id="gorilla">
    <g id="body">
      <path id="body-2" fill="#a0a0a0" stroke="#1a1608" stroke-linecap="round" stroke-linejoin="round" stroke-width="3.18" d="M158.49 117.1c-.66-7.59.48-14.63 2.12-22a68.82 68.82 0 0 0 1.78-11 102.43 102.43 0 0 0-.19-11.22c-.42-8.2-.71-16.31.3-24.48a87.47 87.47 0 0 1 5.42-22c2.64-6.53 6.4-12.61 12-16.78 6-4.49 13.39-6.41 20.64-7.32a98.07 98.07 0 0 1 22.91-.11c7.2.8 14.6 2.31 21.12 5.69 6.07 3.14 10.42 8.22 13.39 14.5 3.47 7.34 5.69 15.39 8.07 23.16 2.48 8.06 4.77 16.18 6.95 24.34 2.12 7.93 3.81 16 5.79 23.94a62.1 62.1 0 0 0 3.64 11.2 52.82 52.82 0 0 0 6.22 9.72c2.33 3.08 4.68 6.13 6.75 9.41 2.31 3.66 4.54 7.4 7 10.94 3.12 4.46 6.74 8 11.86 9.71 7.13 2.37 14.8 2.36 22 4.41a28.93 28.93 0 0 1 16.31 11.89c4.12 6 6.83 13 9.33 19.87 3 8.25 6.11 16.49 8.89 24.82 2.66 8 4.46 16.22 6.87 24.28 2.35 7.85 5.35 15.47 7.55 23.36a180.18 180.18 0 0 1 4.37 22.94c1.25 8.7 3 17.5 3.38 26.31.38 8.24.13 16.49.9 24.71.66 7.11 1.71 15 5 21.37 1.44 2.76 3.7 5 4.92 7.84 1.13 2.68 2.11 5 4.36 6.83 2.71 2.24 5.86 3.81 8.65 5.92 2.32 1.75 3.57 4 5.09 6.43 1.63 2.65 3.9 4.82 5.31 7.63 1.33 2.62 1.71 5.61 2.42 8.45.84 3.34 2.57 6.12 4 9.19a17.79 17.79 0 0 1 1.55 6.23 55.25 55.25 0 0 0 2.21 11.82c1.19 3.85 2.68 7.6 3.82 11.47a50.41 50.41 0 0 1 2.06 10.47 23.77 23.77 0 0 1-1.42 9.53c-1 3.07-2.73 5.9-3.6 9s-.73 6.52-.89 9.74a27.49 27.49 0 0 1-1.72 9.22c-1.05 2.52-2.92 4.51-4.21 6.88a18.58 18.58 0 0 0-1.87 6.13c-.46 2.92-.51 6.27-1.88 8.94-1.1 2.16-3.11 3.57-3.85 6-.85 2.74-1 5.64-2.2 8.28a42.18 42.18 0 0 1-5.7 8.51c-2.37 3.05-4.32 6.24-6.39 9.5a10 10 0 0 1-2.88 3.14 30.17 30.17 0 0 0-3.44 2.11c-2.28 1.92-3.4 4.94-5.67 6.89-1.94 1.67-4.34 2.62-6.27 4.32-2.09 1.86-3.39 4.47-4.85 6.84-1.28 2-2.76 4.11-4.92 5.21a15.56 15.56 0 0 1-7.15 1.3c-4.68 0-10.19-1.31-14.31 1.73-2 1.47-3.44 3.74-5.64 4.88-2.54 1.32-5-.48-6.7-2.34a27.74 27.74 0 0 1-.93 14 29.86 29.86 0 0 0-1.87 5.91 43 43 0 0 0-.32 7c.09 6 .31 12.07-.12 18.1-.17 2.42-.59 4.83-.65 7.26a33.67 33.67 0 0 0 .88 6.77 16.49 16.49 0 0 1-.61 8.92 13.71 13.71 0 0 0-.79 7.11c.88 5.29 3 10.3 3.87 15.59.63 3.69-.46 7.32.33 11a55.65 55.65 0 0 1 1.66 15.69 27 27 0 0 1-.94 6c-.62 2.08-1.72 3.94-2.4 6-1.16 3.47-.38 7.19-.7 10.77-.42 4.79-2.91 9.16-3.83 13.86-1 4.85-.42 9.5 0 14.38a25.26 25.26 0 0 1 0 5.83 56.06 56.06 0 0 1-1.49 5.55c-1 3.77.48 7 1.44 10.62.47 1.79.84 3.8-.26 5.43-.46.68-.82.68-.1 1.28.4.33.82.62 1.21 1a13.09 13.09 0 0 1 2.08 2.19 12.13 12.13 0 0 1 2.18 6.65c.23 4-.29 9.28-4.21 11.11-4.1 1.92-9.18 2-13.57 2.15-6.1.27-12.21.14-18.31.11-5.73 0-11.46.2-17.19.33a52.55 52.55 0 0 1-13.12-1 12.68 12.68 0 0 1-3.92-1.48c-2-1.27-2.39-3.25-2-5.52.64-4.18 1.88-9.08 4.19-12.61a12.46 12.46 0 0 1 1.18-1.53c.26-.3.54-.58.83-.86s.54-.4.67-.63c.25-.44.18-.15.08-.64a27.87 27.87 0 0 0-1.23-3.21 32.15 32.15 0 0 1-1-3.35c-.82-3.74.07-7.17.66-10.89.87-5.5.7-11.12 1.19-16.65.36-4.11 1-8.05-.14-12.07-1.44-5.14-3.49-9.88-3.87-15.29s.44-10.82-.1-16.17c-.22-2.17-1.29-3.63-2.21-5.51a25.35 25.35 0 0 1-1.63-4.92c-.76-3-1.43-6.1-2.25-9.12a24.37 24.37 0 0 0-2-5.7 3.45 3.45 0 0 0-2.39-1.84 4.69 4.69 0 0 1-2.67-1.37 17 17 0 0 1-2.79-5.06 67.59 67.59 0 0 0-3.39-7.51 4.54 4.54 0 0 0-1.73-2c-.95-.39-1.7.44-2.31 1.09s-1.38 1.85-2.29 1.84-1.49-1.28-1.86-2c-1.18-2.38-1.88-5-2.86-7.46a9.42 9.42 0 0 0-1.35-2.71c-.84-1-1.38-.26-2.37 0-1.71.43-2.65-2.41-3.17-3.69-2.1-5.15-3.35-10.64-5-15.94a21.48 21.48 0 0 0-1-2.72c-.14-.31-.31-.81-.67-.89-.21 0-.39.29-.64.25-.69-.12-1.26-1.53-1.57-2.1-.63-1.15-1.2-2.33-1.77-3.51-.7-1.43-1.37-2.87-2.12-4.27-.29-.54-.94-2.16-1.58-2.33-1.34-.36-.41 3.52-1.73 2.9-.5-.23-1-1.54-1.19-2-.53-1.15-1-2.34-1.44-3.53-1-2.72-2-5.46-2.86-8.23a80 80 0 0 1-3.38-15.17 65.85 65.85 0 0 1-1.33 14.17c-.88 3.88-2 8.19-4.13 11.53-1.11 1.7-3 2.43-4.09 4.14a26.58 26.58 0 0 0-2.2 5.85 31.6 31.6 0 0 1-2.1 5.54c-1.12 2.07-2.58 2.49-4.58 3.22-3.68 1.35-4.44 6.31-5.2 9.75-.56 2.52-1 5.1-1.63 7.59-.15.55-.4 2-1.11 1.93s-.69-1.6-1.3-1.79c-1.34-.42-2.42 10.88-2.57 11.77-.77 4.83-2.11 9.5-2.65 14.37s0 9.84-.32 14.77-1.83 9.74-3 14.53a47.5 47.5 0 0 0-1.48 13.22 108.39 108.39 0 0 0 1.93 15 26.77 26.77 0 0 1 .16 10.77 13.45 13.45 0 0 0 .39 7.67 58.66 58.66 0 0 1 3 14c.27 3.72.33 7.82-1 11.36a9.34 9.34 0 0 1-.56 1.25c-.21.37-.75.83-.88 1.22s-.29.12.1.63a5.05 5.05 0 0 0 .6.53 10.72 10.72 0 0 1 2.65 3.35c1.3 2.74 1.47 6.12 1.37 9.11-.11 3.26-.54 7.57-4.09 8.58s-7.58.68-11.16.71c-12 .08-24 0-36 0-3.75 0-7.5 0-11.25-.18-3.2-.16-7-.12-10-1.71-3.18-1.74-2.32-5.7-1.44-8.61a38.07 38.07 0 0 1 2.68-6.62 28.65 28.65 0 0 1 1.82-3 11.66 11.66 0 0 0 1-1.34c.21-.42.24-.22.16-.7a4.93 4.93 0 0 0-.29-.72c-1.17-3.39-.72-7.36-.5-10.86a65.75 65.75 0 0 0 .33-7.16c-.06-1.24-.41-2.45-.35-3.7.2-3.9 1.94-7.59 2.17-11.53a46 46 0 0 0-1.14-10.71l-7.11-40.08a66.78 66.78 0 0 1-1.49-10.81c-.07-5.25-.23-10.6 0-15.84a27 27 0 0 1 1.15-6.63 40.67 40.67 0 0 0 1.65-6.12c.63-4.48.41-9 1.41-13.43.74-3.32 2.65-6.18 3.2-9.54.85-5.2.3-10.79.2-16-.09-4.94-.27-9.92.06-14.85.15-2.22.56-4.4.71-6.62a32 32 0 0 0-.34-6.56c-.71-4.89-1.95-9.68-3.09-14.47-1.91 1.66-3.85 3.32-5.8 4.93a8.58 8.58 0 0 1-4.06 1.86 21.51 21.51 0 0 1-11.22-1.18c-3.13-1.27-5.36-3.86-7.66-6.32-1.09-1.16-2.71-3.32-4.41-3.52-1-.12-1.91.53-2.92.5a6.21 6.21 0 0 1-1.92-.47 11.54 11.54 0 0 1-6.2-5.29 6.64 6.64 0 0 0-3.38-3.73c-2.08-1-4.28-1.67-6.31-2.79-3.5-2-5.45-5.35-8.1-8.3-2.8-3.12-6.33-3.38-9.94-5-3.83-1.68-5.63-5.44-7.72-8.92a10.42 10.42 0 0 0-4.15-4.1c-1.85-1-2.84-2.91-3.81-4.77a48 48 0 0 0-3.38-6.13 3.23 3.23 0 0 0-2.57-1.68c-.81 0-1.63.42-2.33-.19-1.17-1-1.36-3.73-1.57-5.17-.43-2.89-.68-5.81-1.13-8.69a27.69 27.69 0 0 0-1.44-6 6.19 6.19 0 0 0-1.26-2.15c-.77-.76-1.85-.82-2.68-1.46-1.45-1.13-1.67-3.75-2-5.47s-.45-4.73-1.72-6.09c-.67-.73-1.69-.42-2.42-1s-.8-1.64-.88-2.46a36.39 36.39 0 0 1 .16-6.26c.25-3 .37-6.09.84-9.08a30.12 30.12 0 0 1 2-6.48 27.07 27.07 0 0 0 1.72-6.76c.31-2.68.33-5.43.85-8.08.36-1.85 1.19-3.53 1.63-5.35a34.84 34.84 0 0 0 .49-6.21c.26-4.9 2.56-9.11 3.92-13.72 1.62-5.51 2.16-11.33 2.88-17a140.22 140.22 0 0 1 2.8-16.79c1.43-5.58 4-10.57 6.44-15.72 2.52-5.36 3.75-11.1 5.16-16.85s3.36-11.56 5.19-17.3a96.3 96.3 0 0 0 4-15.34c.56-4 .07-8.31 1.32-12.17.71-2.15 1.88-4.1 2.6-6.25a63.3 63.3 0 0 0 1.79-7.76 44.54 44.54 0 0 1 2-7.2c1-2.68 2.46-5.17 3.75-7.73 4.89-9.65 4.78-20.48 4.94-31.14.19-12.38.26-24.82 1.81-37.12 1.32-10.44 3.71-20.94 9.19-29.92a50 50 0 0 1 24.62-20.27c10.42-4.16 21.46-5.31 32.27-7.83 4.77-1.11 9.49-2.72 13.24-6.11 3.43-3.1 6-7.21 9.87-9.79 3.43-2.28 7.45-3.3 11.4-4.09z" data-name="body"/>
      <path id="arm" d="M394.62 386.42a118.5 118.5 0 0 0 4.59 22.82c2.31 7 5.8 13.5 7.14 20.83.56 3.07.87 6.33 2.08 9.22 1.13 2.7 3.1 4.9 4.39 7.52a49.4 49.4 0 0 1 3.2 9.86c1 4.07 1.91 8.17 3 12.21a118.83 118.83 0 0 0 8.48 21.94c.42.84.85 1.67 1.28 2.51" class="cls-2" transform="translate(-83.08 -.9)"/>
      <path id="arm-2" d="M191 514.24a9 9 0 0 0-5.72-3.27c-2.88-.35-5.7-.22-8.53-1-2.58-.72-6.64-1.69-8.17-4.22a7.31 7.31 0 0 1-.65-4.85 9.23 9.23 0 0 1 2.74-5c1.7-1.84 1.78-3.8 1.22-6.15a59.44 59.44 0 0 0-1.77-5.69c-.41-1.2-1.24-2.84-1.16-4.16.1-1.72 2.37.14 3.21.45 1.68.62 1.7-.87 1.57-2.24-.12-1.18-2-7.69-.31-8.15 1.18-.33 2.75 1.31 3.93 1.52 1.4.24 1.67-1.11 1.77-2.28.26-3.19-.39-6.43-.55-9.61 0-.89-.36-3.11.87-3.11.67 0 1.32.85 2 .56.52-.22.65-1 .75-1.5.65-3.27.13-6.73.39-10 .07-.87.08-2.8 1.25-2.63 1 .13 2.33 2.49 3.32 1.61.69-.61.64-2.74.72-3.56a14.33 14.33 0 0 1 .68-4.27c.68-1.58 2-.93 3.29-1.11 1.17-.16 1.53-1.18 1.74-2.27.61-3.05.29-6.35.27-9.43 0-1.73-.55-6.11 1.45-7 .71-.32 1.42-.26 2-.82a4.83 4.83 0 0 0 1.06-1.72 15.13 15.13 0 0 0 .84-3 25.13 25.13 0 0 0 0-9.7 12.85 12.85 0 0 0-.6-2.06" class="cls-2" data-name="arm" transform="translate(-83.08 -.9)"/>
      <path id="leg" d="M209.69 431.09c-1.82 6.19-3.77 12.26-6 18.3-2.36 6.35-5 12.7-6.52 19.35-.71 3.11-1.09 6.28-1.65 9.42s-1.36 6.5-2 9.76a163.71 163.71 0 0 0-2.25 20c-.39 6.38-.67 12.8-.55 19.2a52.69 52.69 0 0 0 .75 9c.53 2.68 1.44 5.25 1.8 8 .43 3.26.55 6.55 1.11 9.79.6 3.46 1.51 6.87 2.32 10.27 1.33 5.57 2.85 11.4 2.41 17.19-.21 2.84-.69 5.63-.78 8.5-.1 3.2-.06 6.41 0 9.61.06 3.7.16 7.4.21 11.1a42.87 42.87 0 0 1-.41 8.32 33.12 33.12 0 0 1-2.18 5.92 30.87 30.87 0 0 0-1.67 7.44c-.35 2.91-.29 5.86-.64 8.77-.32 2.67-1.33 5.12-2 7.7a32.43 32.43 0 0 0-.88 8.84c0 3.5.05 7 0 10.48-.05 6.4 1.37 12.61 2.48 18.88s2.19 12.36 3.29 18.54c1.24 7 2.78 14 3.67 21.06a26.75 26.75 0 0 1-.12 8c-.48 2.71-1.44 5.35-1.76 8.08a29.28 29.28 0 0 0 .29 4.49c.1 3-.31 6.06-.45 9.07-.12 2.63-.85 10.5 2.94 11.38 1.8.42 3.83-1 5.52-1.38a6.77 6.77 0 0 1 4.9.69c1.56.81 3.66 2.85 5.57 2.62 1-.13 1.78-1 2.69-1.4a4.11 4.11 0 0 1 2.66-.1c2.2.54 4.22 1.68 6.43 2.19a14.19 14.19 0 0 0 5.07.28c2-.29 3.75-1.38 5.75-1.5s4.21.5 6.31.6c3.49.17 6.2-1.81 9.48-2.69 1.74-.47 3.58-.31 5.29-.85 1.91-.61 2.92-2.35 3.51-4.21 1.58-5.06 1-11 .12-16.12a61.4 61.4 0 0 0-2.29-8.59 14.39 14.39 0 0 1-.89-4.14c-.05-2.24.8-4.37 1-6.58a24.56 24.56 0 0 0-.46-6.51c-1.05-6.16-2.23-12.3-2.19-18.59.05-6 1.74-11.55 3.15-17.29a44.26 44.26 0 0 0 1.41-8.79c.12-3.07-.14-6.13-.06-9.19.16-6.39 1.81-12.35 2.88-18.58.54-3.14.82-6.32 1.38-9.46.14-.72.24-2.22.75-2.8.88-1 1.07 1.17 1.75 1.46 1.2.51 2.26-6.63 2.43-7.45a43 43 0 0 1 2.23-8.24c1-2.36 2.57-3.18 4.83-4s3.23-2.68 4.06-4.82c1-2.68 1.64-5.53 2.79-8.15 1.06-2.44 3.35-3.25 4.72-5.39 2.72-4.24 3.93-9.93 4.76-14.88a55 55 0 0 0 .65-8.7c0-3.55.26-7 .53-10.6a114.3 114.3 0 0 0-.25-17.65c-.56-7-1.19-14.08-1.23-21.16 0-6.59.2-13.16.48-19.75" class="cls-2" transform="translate(-83.08 -.9)"/>
      <path id="stomach" d="M203.21 267.24c.65 3.33 1.36 6.71 1 10.13a25.83 25.83 0 0 1-3.27 9.09c-4 7.62-8.45 14.72-11.14 23a116.08 116.08 0 0 0-4.86 23.38 92.71 92.71 0 0 0 .41 25.45c1.41 8.29 4.09 16.29 6.91 24.16 2.95 8.26 6.2 16.4 9.24 24.62s5.37 16.84 8.63 25c2.81 7 6.31 14 11.13 19.79 5 6 12.09 9.51 17.5 15.08 5.91 6.09 9.45 14.22 13.74 21.5a44.45 44.45 0 0 0 6.45 9 13.34 13.34 0 0 0 5.43 3.22 18.31 18.31 0 0 1 6 3.35c2.33 1.93 4.79 4.32 7.81 4.95a8 8 0 0 0 5.22-1c3.4-1.74 6.27-4.55 9.14-7.08a40.72 40.72 0 0 1 8.84-6.36c3-1.46 6.36-2.32 9.14-4.27s4.79-5.16 6.76-8a36.32 36.32 0 0 1 6.89-8.07c5.55-4.47 12.7-6.67 16.91-12.81 2.18-3.2 3.68-6.84 5.91-10a50 50 0 0 1 7-7.53 78.39 78.39 0 0 0 8.36-8.63 94 94 0 0 0 6.38-9.6 62.06 62.06 0 0 1 7-10c2.8-3.07 5.9-5.84 8.64-9 5.57-6.36 9-14.19 10.89-22.51a64.85 64.85 0 0 0 1.53-11.11" class="cls-2" transform="translate(-83.08 -.9)"/>
      <path id="chest" d="M222.08 177.77c-2.65 6.1-5.18 12.29-8.39 18.1a68.57 68.57 0 0 1-11.15 14.59c-3.43 3.56-6.92 7.21-8.88 11.92-1.84 4.42-2.09 9.35-1.77 14.11a68.23 68.23 0 0 0 3.36 16.68c1.54 4.7 3.51 10.18 7.26 13.49 3.57 3.16 8.73 3.47 13.19 3.74a182.84 182.84 0 0 0 19-.11c6.65-.31 13.28-.91 19.92-1.49a144.83 144.83 0 0 1 18.15-.74c5.95.22 11.88.82 17.81 1.33 7.1.62 14.19 1.34 21.3 1.82a152.5 152.5 0 0 0 18.14.3 63.11 63.11 0 0 0 18.65-3.44 41 41 0 0 0 15.45-10.35 41.71 41.71 0 0 0 9.11-15c1.84-5.41 2.54-11.56.74-17.09s-6.27-9.4-10.23-13.32a67 67 0 0 1-10.18-12.83 86.35 86.35 0 0 1-10.38-26.1" class="cls-2" transform="translate(-83.08 -.9)"/>
      <path id="arm-3" d="M364.51 257.31a27.68 27.68 0 0 1 4.15 16.15c-.18 2.4-1.77 4-2.34 6.28a27.66 27.66 0 0 0-.37 7.87 69.66 69.66 0 0 0 1.23 10.49 22.74 22.74 0 0 0 .94 3.56 3.23 3.23 0 0 0 .77 1.38c.44.34.85.1 1.33.26.82.27 1.17 1.5 1.46 2.28a47.17 47.17 0 0 1 1.34 4.68c.93 3.73 1.74 7.49 2.69 11.22a46 46 0 0 0 2.83 8.77 7.55 7.55 0 0 0 2.34 3c1.21.86 2.51 1.29 3.34 2.64 1.38 2.26 1.85 5.24 2.31 7.82a77.55 77.55 0 0 0 2.37 10.88q1.77 5.37 3.71 10.69c.6 1.63 1.22 3.27 1.94 4.85.28.63 1.19 3.09 2 3s.84-2.42.91-3c.18-1.82.27-3.65.5-5.47a10.71 10.71 0 0 1 .87-3.68c.72-1.35 2.08-1.18 3.11-2.05 1.62-1.35 1.74-4.66 2-6.58.58-4.17 1.11-8.35 1.76-12.51a32 32 0 0 1 .76-4c.57-2 .82.37.91 1.22.32 3.37.27 6.79.33 10.17.13 7.49-.2 15.31 1.21 22.7a84.62 84.62 0 0 0 2.87 9.38 43.24 43.24 0 0 1 1.52 9.12c.67 7.48 2.15 14.88 2.57 22.37.22 3.73.05 7.45-.06 11.18 0 1.62-.11 3.24-.06 4.86 0 .94-.08 3 .73 3.65 1 .76 2.33-1.21 3.35-1.31s1.49 1.32 1.73 2.24c.88 3.42 1 7.14 1.27 10.64.22 2.36.28 5.15 1.34 7.31.68 1.38 2.16 2 2.61 3.51a15.52 15.52 0 0 1 .38 4.08v5.7c0 1.12-.05 2.93.67 3.83s2 .23 2.7 1.07.74 2.2.85 3.15c.36 3.36.25 6.75.69 10.1a9.86 9.86 0 0 0 2.57 5.73c1 1.12.05 1.8-.9 2.56a50 50 0 0 0-3.91 3.2 25.46 25.46 0 0 0-4.37 5.67c-1 1.85-2.6 4.76-1.69 6.93 1 2.44 4.17 2.21 5.93 3.7s1.69 4.35 1.67 6.44c0 2.5.23 6.49-1.93 8.16-3.81 3-9.87 2.85-12.12 7.8-1.68 3.71-2 9.72 2.85 10.64 2.63.49 5.36 0 8 .53 2.93.63 3.05 3.41 2.41 6s-2 4.8-3.31 7.13a7 7 0 0 0-.73 5.51 17.53 17.53 0 0 0 3.6 6.38c1.37 1.62 3.42 3.64 5.66 3.5 2.59-.17 4.54-3 6.33-4.6a10 10 0 0 1 3.8-2.21c4.95-1.49 10.26.28 15.3-.56 5.31-.89 7.42-5.1 10.15-9.43a15.53 15.53 0 0 1 3.72-4.3c1.89-1.45 4.13-2.38 5.88-4 2.06-2 3.18-4.85 5.4-6.64 2-1.62 4.22-2.26 5.78-4.52 1.85-2.71 3.33-5.63 5.33-8.24a77.94 77.94 0 0 0 6.22-8.54 22.84 22.84 0 0 0 2.41-6.93c.51-2.51.95-4.47 2.6-6.45a12.5 12.5 0 0 0 3-5.83c.59-2.92.7-5.95 1.49-8.83 1.13-4.16 4.5-7 5.87-11.07 2-5.82.57-12.12 2.22-17.94.8-2.81 2.27-5.37 3.28-8.1a25.62 25.62 0 0 0 1.79-8.56c.06-6.81-2.46-13.5-4.62-19.8a68.53 68.53 0 0 1-2.88-10.07c-.52-2.93-.39-6-1.06-8.87a30.2 30.2 0 0 0-3-6.79 35.08 35.08 0 0 1-2.8-8.64 21.4 21.4 0 0 0-2.07-6c-1.52-2.66-3.7-4.82-5.25-7.45a18.85 18.85 0 0 0-4.61-5.78c-2.6-2-5.52-3.51-8.13-5.51a12.87 12.87 0 0 1-4.19-5.23 32.68 32.68 0 0 0-1.64-3.73c-.79-1.35-1.79-2.54-2.66-3.82-3.55-5.17-4.86-11.8-5.8-18a170.17 170.17 0 0 1-1.4-22.46 154.42 154.42 0 0 0-1.44-19.58c-1.21-8.4-2.25-16.85-3.7-25.21a135 135 0 0 0-5.12-20.15c-2.42-7.21-4.92-14.37-6.87-21.73s-3.82-14.54-6.34-21.63c-2.68-7.53-5.35-15.07-8.14-22.55-2.45-6.57-5.05-13.24-9-19a28.73 28.73 0 0 0-14.79-11.38c-6.5-2.11-13.34-2.46-20-3.91a22 22 0 0 1-11.94-6.37c-4.66-5-7.8-11.38-11.6-17-4.05-6-9.24-11.34-12.16-18.14-3-7-4.26-14.75-6-22.13-1.69-7.19-3.6-14.32-5.59-21.42s-4.08-14.24-6.34-21.28c-2.18-6.76-4.18-13.78-7.69-20a29.13 29.13 0 0 0-13.19-12.16 63.16 63.16 0 0 0-19.55-5 98.52 98.52 0 0 0-20.53-.21c-6.75.64-13.64 2-19.69 5.31a32.86 32.86 0 0 0-12.89 13.35 69.65 69.65 0 0 0-6.59 18.69 100.15 100.15 0 0 0-2.28 21.43c0 7.17.9 14.33.72 21.5s-2.34 13.78-3.49 20.72a60.52 60.52 0 0 0 .4 20.49 99.22 99.22 0 0 0 6 20.91A77.07 77.07 0 0 0 259 162.92c1.19 1.55 3.18 4.38 5.31 4.42 1.42 0 2.46-1.39 3.65-2a4.16 4.16 0 0 1 3.73.12c2.74 1.18 5 3.23 7.66 4.66a5.51 5.51 0 0 0 3.61.92c1.26-.25 2.28-1.16 3.45-1.64 4.58-1.85 9.55 2.24 14.16.36 1.58-.65 2.93-1.79 4.58-2.25 2.23-.62 4.67-.2 6.9.1 2.59.35 5.44 1 8.06.53s3.78-3.4 6.2-4.48 5-.91 7.42-1.59a4.35 4.35 0 0 0 2.95-2.18c.59-1.15.75-2.48 1.26-3.67 1.14-2.6 3.9-3.89 5.68-5.95a16.71 16.71 0 0 0 2.91-5.28c2.43-6.6 3.51-14 4.47-20.93a95.65 95.65 0 0 0 .89-19.5" class="cls-2" data-name="arm" transform="translate(-83.08 -.9)"/>
      <path id="leg-2" d="M297.31 572.92a79.07 79.07 0 0 0 3.11 14.28c1.4 4.53 2.77 9.55 5.08 13.68.25.45.68 1.42 1.21 1s.34-1.66.49-2.18c.65-2.19 2.42 1.85 2.79 2.59 1.18 2.31 2.21 4.71 3.48 7 .29.53.81 1.78 1.43 1.92.26.06.46-.27.67-.22.38.08.53.54.69.88a37.88 37.88 0 0 1 1.81 5.42c.84 2.86 1.66 5.72 2.56 8.56a46.33 46.33 0 0 0 2.27 6.09 7.06 7.06 0 0 0 1.13 1.84c.73.74 1.27.46 2.11.12 1.93-.76 2.66 2.07 3.22 3.54.87 2.28 1.55 4.67 2.62 6.87.33.68.83 1.84 1.61 2.07s1.49-.6 2-1.14 1.27-1.64 2.12-1.83 1.7.81 2.19 1.57c2.37 3.63 3.3 8.08 5.55 11.79a5.73 5.73 0 0 0 1.59 1.86 9.9 9.9 0 0 0 2.55.78c1.5.5 2.17 2.16 2.71 3.58 1.81 4.76 2.51 9.9 3.94 14.78 1 3.33 3.22 5.93 3.41 9.48.28 5.09-.32 10.19 0 15.29s2.05 9.46 3.53 14.17a23.54 23.54 0 0 1 .81 9.85c-.55 5.39-.63 10.8-1.08 16.2-.33 3.92-1.65 7.85-1.5 11.79a24.56 24.56 0 0 0 2.75 9.76c1.09 2.07 2.43 1.12 4.15.42a8.18 8.18 0 0 1 3-.67c3.53 0 7 1.72 10.31 2.7a10.24 10.24 0 0 0 4.83.58c1.75-.37 3.16-1.73 4.95-1.92a10.59 10.59 0 0 1 3.4.39 37.37 37.37 0 0 0 7.42 1.18c2.56.07 5.12-.13 7.68-.22 2.32-.09 4.66.07 7-.1s4.88-.72 6.59-2.44c3.05-3.06-.06-8.33-.76-11.75-.66-3.26.56-5.88 1.34-9 .9-3.62.28-7.43-.08-11.09a36.12 36.12 0 0 1 .8-12.69c1-4.13 3.15-8 3.41-12.35.2-3.32-.43-6.79.58-10 .56-1.8 1.5-3.43 2.14-5.2a22.34 22.34 0 0 0 1.11-5 44.44 44.44 0 0 0-.63-14.15 33.47 33.47 0 0 1-1.2-6.2c0-1.77.4-3.52.36-5.3-.11-4.55-1.73-9.11-2.93-13.44-.78-2.8-1.77-5.78-1.44-8.73.28-2.59 1.67-4.89 1.94-7.49.37-3.56-1.06-7-1.24-10.55a38.44 38.44 0 0 1 .41-5.87c.27-2.55.4-5.11.47-7.67.14-5.27-.22-10.53-.12-15.8a26.07 26.07 0 0 1 .67-6c.5-1.85 1.38-3.55 1.94-5.38a28.38 28.38 0 0 0 .5-12.8" class="cls-2" data-name="leg" transform="translate(-83.08 -.9)"/>
      <path id="forehead" fill="#a0a0a0" stroke="#1a1608" stroke-linecap="round" stroke-linejoin="round" stroke-width="1.82" d="M177.45 29.8c3.44-4.75 7.32-9.1 12.29-12.12a39.13 39.13 0 0 1 15.64-5.13 47 47 0 0 1 17.87 1.26 56.75 56.75 0 0 1 16.47 7.54c5 3.31 9.26 7.26 12 12.77.37.75.74 1.5 1.1 2.25"/>
      <path id="face" d="M271 104.37c-.35 2.34-2.06 4.29-3.29 6.17a20.79 20.79 0 0 0-2.65 5.44 23.54 23.54 0 0 0 .25 14.52 10.89 10.89 0 0 0 5.45 6.1c4.59 2.25 10.11 2.44 15.06 3.08 5.89.76 11.84 1.64 17.78 1.35 3.52-.18 7.3-.74 10.18-3s4.46-6.17 4.74-10c.44-6.06-1.64-12-2.13-17.94-.28-3.43-.26-7.69 2.38-10.23 1.52-1.47 3.5-2.26 5.24-3.39a9.74 9.74 0 0 0 3.7-4.41c2-4.84 2.16-10.78 2.61-16 .38-4.31.82-9.22-.77-13.33-1.25-3.23-3.95-5.08-7-6.13-5.09-1.75-10.67-1.95-16-2.3-7.14-.47-14.27-.94-21.41-1.37-4.91-.3-10-.45-14.85.73a15.82 15.82 0 0 0-10.4 7.48c-2.49 4.48-2.61 10-2 15 .56 4.83 1.76 10.08 4.51 14.1 2.36 3.44 5.93 5.71 7.74 9.6a8.25 8.25 0 0 1 .88 4.5z" class="cls-2" transform="translate(-83.08 -.9)"/>
    </g>
    <path id="nose" fill="none" stroke="#1a1608" stroke-linecap="round" stroke-linejoin="round" stroke-width="2.5" d="M198.27 106.31a12.09 12.09 0 0 1-4.13-10.21c.29-3.24 2.15-5.4 5.28-5.79a14 14 0 0 1 6.82 1 9 9 0 0 1 3.44 2.39c1 1.18 1.55 2.19 3.17 1.45 2.08-1 3.66-2.11 6-2.31 4.23-.35 11.19 1.57 11.23 7.05 0 3.44-2.71 6.56-5.34 8.29a11.12 11.12 0 0 1-1.05.62"/>
  </g>
</svg>
