<svg id="Bold" xmlns="http://www.w3.org/2000/svg" viewBox="0 0 24 24"><title>biking-person</title><circle cx="14.5" cy="3.688" r="2.375"/><path d="M4.5,13.688a4.5,4.5,0,1,0,4.5,4.5A4.5,4.5,0,0,0,4.5,13.688Zm0,7a2.5,2.5,0,1,1,2.5-2.5A2.5,2.5,0,0,1,4.5,20.688Z"/><path d="M19.5,13.688a4.5,4.5,0,1,0,4.5,4.5A4.5,4.5,0,0,0,19.5,13.688Zm0,7a2.5,2.5,0,1,1,2.5-2.5A2.5,2.5,0,0,1,19.5,20.688Z"/><path d="M10.722,11.427l1.451-1.659a8.265,8.265,0,0,0,4.655,1.42H17.5a1.5,1.5,0,0,0,0-3h-.672a5.36,5.36,0,0,1-3.767-1.561,1.413,1.413,0,0,0-1.111-.438,1.5,1.5,0,0,0-1.079.512l-3.5,4a1.5,1.5,0,0,0,.3,2.235l.664.442a5.263,5.263,0,0,1,2.2,5.485,1.5,1.5,0,1,0,2.928.65A8.288,8.288,0,0,0,10.722,11.427Z"/></svg>