<svg class="extinction-rebellion" xmlns="http://www.w3.org/2000/svg" viewBox="0 0 264.583 264.583" height="300" width="300"><path d="M132.291 5.56A126.73 126.73 0 0 0 5.561 132.292a126.73 126.73 0 0 0 126.73 126.732A126.73 126.73 0 0 0 259.023 132.29 126.73 126.73 0 0 0 132.29 5.561zm0 18.44A108.292 108.292 0 0 1 240.584 132.29 108.292 108.292 0 0 1 132.29 240.584 108.292 108.292 0 0 1 24 132.29 108.292 108.292 0 0 1 132.29 24z"/><path d="M215.088 51.383l-165.592.289 70.632 80.62-70.632 80.62 165.592.288-70.67-80.908zM89.707 69.804h84.73l-42.365 48.732zm42.585 76.372l42.366 48.731H89.926z"/></svg>