<svg xmlns="http://www.w3.org/2000/svg" width="24" height="24" viewBox="0 0 24 24">
<path d="M12 0c-6.617 0-12 5.383-12 12s5.383 12 12 12 12-5.383 12-12-5.383-12-12-12zm2.537 20.07c-.405.078-.535-.158-.535-.371v-2.217c0-.746-.26-1.226-.547-1.473 1.782-.198 3.652-.875 3.652-3.948 0-.874-.311-1.587-.822-2.147.082-.199.357-1.015-.079-2.115 0 0-.671-.216-2.198.82-.64-.177-1.324-.268-2.004-.27-.68.002-1.364.093-2.002.27-1.528-1.037-2.2-.82-2.2-.82-.437 1.1-.161 1.916-.079 2.115-.511.561-.823 1.274-.823 2.148 0 3.065 1.867 3.753 3.644 3.954-.229.201-.436.553-.509 1.07-.455.203-1.613.557-2.327-.666 0 0-.423-.768-1.226-.824 0 0-.781-.01-.055.486 0 0 .523.248.888 1.172 0 0 .461 1.536 2.687 1.053v1.39c0 .212-.127.447-.527.376-3.18-1.059-5.471-4.058-5.471-7.592 0-4.419 3.582-8 8-8s8 3.581 8 8c0 3.534-2.289 6.53-5.467 7.589z"/></svg>