<svg xmlns="http://www.w3.org/2000/svg" class="icon global-warming-dead-plant" viewBox="0 0 200 200">
  <defs>
    <style>
      .cls-1{fill:none;stroke:#000;stroke-linecap:round;stroke-linejoin:round;stroke-width:1.5px}
    </style>
  </defs>
  <path d="M16 15.01s-1.522.864-1.325 2.147c.4 2.6 3.867 2.211 5.154 3.093a5.74 5.74 0 0 0-.368-5.2c-.849-1.306-2.147-1.322-3.461-.04zM15.922 15.059A6.78 6.78 0 0 0 12 13.744M8 8.766s1.522.864 1.325 2.147c-.4 2.6-3.867 2.212-5.154 3.093a5.74 5.74 0 0 1 .368-5.2C5.388 7.5 6.685 7.485 8 8.766zM8.078 8.815A6.78 6.78 0 0 1 12 7.5M21 6.75a2.25 2.25 0 0 0-4.5 0v3.75a4.057 4.057 0 0 1 4.5 0zM.75 23.25h22.5" class="cls-1"/>
  <path d="M12 23.25V4.125a3.375 3.375 0 0 1 6.75 0V4.5" class="cls-1"/>
</svg>
