<svg class="hourglass" viewBox="0 0 514 646" xmlns="http://www.w3.org/2000/svg" xmlns:serif="http://www.serif.com/" fill-rule="evenodd" clip-rule="evenodd" stroke-linecap="round" stroke-linejoin="round"><g serif:id="iPad Poster"><path fill="none" d="M0 0h513.63v645.703H0z"/><g serif:id="Hourglass alternate"><path d="M467.033 575.497h-25v-87.5c-.05-67-35.95-129.075-94.025-162.5 58.075-33.4 94-95.5 94.025-162.5v-87.5h25c13.725 0 25-11.275 25-25s-11.275-25-25-25h-425c-13.725 0-25 11.275-25 25s11.275 25 25 25h25v87.5c.025 67 35.95 129.1 94.025 162.5-58.075 33.425-93.975 95.5-94.025 162.5v87.5h-25c-13.725 0-25 11.275-25 25s11.275 25 25 25h425c13.725 0 25-11.275 25-25s-11.275-25-25-25zm-350-87.5c.1-75.45 62.225-137.5 137.675-137.5 4.55 0 9.075.225 13.6.675 71.325 9.1 124.975 71.125 123.725 143v68.825c0 6.85-5.65 12.5-12.5 12.5h-250c-6.85 0-12.5-5.65-12.5-12.5v-75zm12.5-412.5h250c6.85 0 12.5 5.65 12.5 12.5v68.9c1.225 71.875-52.425 133.85-123.725 142.95-4.525.45-9.075.675-13.625.675-75.475 0-137.575-62.05-137.65-137.525v-75c0-6.85 5.65-12.5 12.5-12.5z" fill="#ffde00" fill-rule="nonzero"/><path d="M5.5 19.501H9l3-3 3 3h3.5" fill="none" stroke="#ffde00" transform="matrix(23.3734 0 0 22.7049 -20.67 29.866)"/><path d="M6.896 9.501h10.208" fill="none" stroke="#ffde00" transform="matrix(28.1304 0 0 28.1304 -74.442 -40.118)"/></g></g></svg>