<svg xmlns="http://www.w3.org/2000/svg" width="24" height="24" viewBox="0 0 24 24"><title>house-modern</title><path d="M24,21.775a1,1,0,0,0-1-1h-.75a.5.5,0,0,1-.5-.5V12a.25.25,0,0,1,.386-.209l.319.207a1,1,0,0,0,1.09-1.677L20.977,8.655a.5.5,0,0,1-.227-.419V4.775a1,1,0,0,0-1-1h-1a1,1,0,0,0-1,1V6.1a.251.251,0,0,1-.387.209L9.8,1.387a1,1,0,1,0-1.09,1.676l1.817,1.182a.5.5,0,0,1,.228.419V20.275a.5.5,0,0,1-.5.5h-.5a.5.5,0,0,1-.5-.5l0-11.25a.75.75,0,0,0-.376-.651A.732.732,0,0,0,8.4,8.3a.969.969,0,0,0-.636.1L.883,12.242A1,1,0,0,0,.5,13.6a.972.972,0,0,0,.786.5.5.5,0,0,1,.464.5l0,5.678a.5.5,0,0,1-.5.5H1a1,1,0,0,0,0,2H23A1,1,0,0,0,24,21.775Zm-9.25-12.5a1.5,1.5,0,1,1-1.5,1.5A1.5,1.5,0,0,1,14.75,9.275Zm-1.5,8.5a.5.5,0,0,1,.5-.5h5a.5.5,0,0,1,.5.5v2.5a.5.5,0,0,1-.5.5h-5a.5.5,0,0,1-.5-.5Zm-9-.5a.5.5,0,0,1,.5-.5h2.5a.5.5,0,0,1,.5.5v3a.5.5,0,0,1-.5.5H4.75a.5.5,0,0,1-.5-.5Z"/></svg>