<svg id="Bold" xmlns="http://www.w3.org/2000/svg" viewBox="0 0 24 24"><title>skateboard-person</title><circle cx="13" cy="3" r="2.5"/><path d="M14.123,15.852a3.522,3.522,0,0,0-1.8-2.037l-1.854-.89,1.825-2.811A.25.25,0,0,1,12.5,10h7a1.5,1.5,0,0,0,0-3H3.5a1.5,1.5,0,0,0,0,3H8.463a.249.249,0,0,1,.215.378L2.2,21.25a1.5,1.5,0,1,0,2.6,1.5l4.049-7.019a.251.251,0,0,1,.325-.1l1.849.89a.488.488,0,0,1,.258.291.5.5,0,0,1-.029.386l-.225.439a.25.25,0,0,0,.223.364h2.7a.25.25,0,0,0,.243-.19A3.5,3.5,0,0,0,14.123,15.852Z"/><path d="M21,19H9a1,1,0,0,0,0,2H21a1,1,0,0,0,0-2Z"/><circle cx="19" cy="22.5" r="1"/><circle cx="10.999" cy="22.5" r="1"/></svg>