<?xml version="1.0" encoding="UTF-8" standalone="no"?>
<!-- Created with Inkscape (http://www.inkscape.org/) -->
<svg
   xmlns:svg="http://www.w3.org/2000/svg"
   xmlns="http://www.w3.org/2000/svg"
   version="1.0"
   width="744.09448"
   height="1052.3622"
   fill="white"
   id="svg2">
  <defs
     id="defs4" />
  <g
     id="layer1">
    <path
       d="M 208.57143,389.50505 L 159.49492,362.94613 L 109.79409,388.31753 L 119.88765,333.43584 L 80.399617,294.00774 L 135.71429,286.64791 L 161.01016,236.90861 L 185.10295,287.24167 L 240.2247,295.92919 L 199.80019,334.39656 L 208.57143,389.50505 z "
       id="path2162" />
    <path
       d="M 377.14286,418.07647 L 354.49316,367.89605 L 300.31527,358.10629 L 341.04054,321.05854 L 333.60927,266.50711 L 381.42857,293.79076 L 431.01368,269.86588 L 419.84237,323.77585 L 457.91892,363.5409 L 403.19536,369.57544 L 377.14286,418.07647 z "
       id="path2164" />
    <path
       d="M 171.42856,603.79077 L 143.43245,602.79695 L 126.74235,625.29607 L 119.03625,598.36308 L 92.480799,589.44246 L 115.71428,573.79077 L 115.99221,545.77841 L 138.05738,563.03812 L 164.78461,554.64616 L 155.18816,580.96493 L 171.42856,603.79077 z "
       id="path2166" />
    <path
       d="M 397.14286,660.93361 L 344.81767,606.35656 L 270.19445,618.52025 L 305.93093,551.8908 L 271.30274,484.67868 L 345.71429,498.07647 L 398.93611,444.37341 L 409.18849,519.28315 L 476.70958,553.30495 L 408.63435,586.20393 L 397.14286,660.93361 z "
       id="path2168" />
    <path
       d="M 562.85712,506.64791 L 525.60236,491.18114 L 491.74093,513.10238 L 494.93834,472.89151 L 463.62625,447.4614 L 502.85712,438.07648 L 517.36662,400.43858 L 538.41521,434.84925 L 578.69467,437.01785 L 552.47255,467.66974 L 562.85712,506.64791 z "
       id="path2170" />
    <path
       d="M 605.71431,132.36218 L 570.91259,134.72714 L 553.13115,164.7367 L 540.12762,132.3691 L 506.09207,124.73141 L 532.85717,102.36218 L 529.60348,67.632274 L 559.14875,86.174926 L 591.17341,72.34835 L 582.66829,106.17757 L 605.71431,132.36218 z "
       id="path2172" />
    <path
       d="M 74.285713,118.07646 L 73.600146,86.677548 L 47.34581,69.441777 L 76.996101,59.086965 L 85.275257,28.791461 L 104.28571,53.790751 L 135.65685,52.302871 L 117.75567,78.108094 L 128.86494,107.48404 L 98.790942,98.433253 L 74.285713,118.07646 z "
       id="path2174" />
    <path
       d="M 277.14285,178.07647 L 236.6174,138.83408 L 181.31596,149.97087 L 206.11464,99.302312 L 178.43383,50.148972 L 234.28571,58.076472 L 272.47948,16.561243 L 282.19916,72.129269 L 333.48501,95.624787 L 283.64022,122.04022 L 277.14285,178.07647 z "
       id="path2176" />
    <path
       d="M 499.99999,235.21933 L 485.65915,219.02296 L 464.18693,221.65463 L 475.15903,203.01073 L 466.02088,183.40267 L 487.14284,188.07647 L 502.96738,173.32635 L 505.04937,194.85882 L 523.96763,205.35081 L 504.1324,213.9848 L 499.99999,235.21933 z "
       id="path2178" />
    <path
       d="M 551.42855,349.50505 L 549.99136,299.43472 L 507.92985,272.23301 L 555.10545,255.39358 L 567.97809,206.98493 L 598.5714,246.64791 L 648.58864,243.93143 L 620.32075,285.28393 L 638.36046,332.01371 L 590.29663,317.90797 L 551.42855,349.50505 z "
       id="path2180" />
    <path
       d="M 177.14285,818.07647 L 113.5934,800.77619 L 63.314689,843.31893 L 60.13037,777.53372 L 4.1328472,742.86226 L 65.714285,719.50504 L 81.384622,655.53416 L 122.62836,706.88381 L 188.31069,702.0191 L 152.21928,757.11214 L 177.14285,818.07647 z "
       id="path2182" />
    <path
       d="M 117.14285,463.79075 L 124.85422,449.40588 L 117.37599,434.89843 L 133.43976,437.78721 L 144.92626,426.19195 L 147.14285,442.36218 L 161.72012,449.70336 L 147.02628,456.80834 L 144.54903,472.94069 L 133.25115,461.16158 L 117.14285,463.79075 z "
       id="path2184" />
    <path
       d="M 317.14286,766.64788 L 283.29092,749.50173 L 249.97515,767.66774 L 255.82128,730.17417 L 228.24924,704.1026 L 265.71429,698.07645 L 281.9896,663.79732 L 299.29815,697.56652 L 336.92888,702.45243 L 310.1611,729.34909 L 317.14286,766.64788 z "
       id="path2186" />
    <path
       d="M 637.14286,820.9336 L 569.37292,799.3688 L 513.18854,842.97066 L 512.75582,771.85372 L 453.92607,731.89292 L 521.42858,709.50504 L 541.25416,641.20605 L 583.40573,698.48651 L 654.48837,696.23622 L 613.03696,754.02537 L 637.14286,820.9336 z "
       id="path2188" />
    <path
       d="M 608.57145,526.6479 L 616.34887,499.53552 L 598.42348,477.75825 L 626.61224,476.77683 L 641.7844,452.99922 L 651.4286,479.50504 L 678.73091,486.58695 L 656.50258,503.94987 L 658.20417,532.10434 L 634.82212,516.32939 L 608.57145,526.6479 z "
       id="path2190" />
    <path
       d="M 640.00003,626.64792 L 621.35063,623.15704 L 607.9023,636.54093 L 605.45935,617.72557 L 588.57475,609.07129 L 605.71431,600.93364 L 608.72739,582.20111 L 621.76317,595.98713 L 640.50995,593.06407 L 631.42695,609.72195 L 640.00003,626.64792 z "
       id="path2192" />
    <path
       d="M 288.57143,849.50504 L 314.15855,824.18214 L 307.80387,788.74814 L 339.79424,805.25773 L 371.53027,788.26437 L 365.71428,823.79075 L 391.6829,848.72228 L 356.09806,854.1692 L 340.41152,886.57109 L 324.23487,854.41109 L 288.57143,849.50504 z "
       id="path2194" />
    <path
       d="M 448.57142,829.50507 L 434.16452,826.03621 L 423.13947,835.93771 L 421.98658,821.16401 L 409.16276,813.73829 L 422.85713,808.0765 L 425.95663,793.58566 L 435.5731,804.86018 L 450.31251,803.33006 L 442.56145,815.95989 L 448.57142,829.50507 z "
       id="path2196" />
    <path
       d="M 359.99999,186.6479 L 349.03994,173.01464 L 331.59578,174.31437 L 341.17493,159.67784 L 334.54827,143.48909 L 351.42856,148.07647 L 364.77723,136.77154 L 365.63067,154.24323 L 380.50726,163.44515 L 364.15442,169.65587 L 359.99999,186.6479 z "
       id="path2198" />
    <path
       d="M 71.428571,178.07647 L 59.584795,171.22681 L 47.227797,177.10026 L 50.082278,163.7195 L 40.677774,153.78229 L 54.285716,152.36218 L 60.83041,140.3472 L 66.386101,152.85029 L 79.835448,155.36183 L 69.661111,164.50927 L 71.428571,178.07647 z "
       id="path2200" />
    <path
       d="M 51.428571,469.50503 L 35.36431,458.39085 L 17.101647,465.32341 L 22.707725,446.61092 L 10.470993,431.38438 L 30.000001,430.9336 L 40.699948,414.59051 L 47.16346,433.02441 L 66.013124,438.15037 L 50.478786,449.99392 L 51.428571,469.50503 z "
       id="path2204" />
    <path
       d="M 582.85714,963.79078 L 537.97909,945.73888 L 497.66632,972.47445 L 500.96662,924.21455 L 463.08225,894.13657 L 510,882.36221 L 526.89894,837.03743 L 552.5954,878.02038 L 600.92389,880.0861 L 569.88743,917.18931 L 582.85714,963.79078 z "
       id="path2206" />
    <path
       d="M 645.71427,909.50503 L 640.69813,895.0541 L 625.95007,890.99383 L 638.14365,881.75761 L 637.4478,866.47668 L 649.99998,875.21932 L 664.31798,869.83546 L 659.88208,884.47492 L 669.42694,896.42844 L 654.13322,896.73349 L 645.71427,909.50503 z "
       id="path2208" />
    <path
       d="M 697.14283,392.36217 L 681.07857,381.248 L 662.81591,388.18056 L 668.42199,369.46807 L 656.18525,354.24153 L 675.71426,353.79075 L 686.41421,337.44766 L 692.87772,355.88155 L 711.72738,361.00752 L 696.19305,372.85107 L 697.14283,392.36217 z "
       id="path2210" />
    <path
       d="M 654.28572,100.93361 L 642.46396,89.841455 L 626.62458,93.291628 L 633.52072,78.620803 L 625.34477,64.62281 L 641.42858,66.6479 L 652.21496,54.546493 L 655.25915,70.468892 L 670.10145,76.987803 L 655.89905,84.803297 L 654.28572,100.93361 z "
       id="path2212" />
    <path
       d="M 705.71427,189.50504 L 687.9486,179.23056 L 669.41311,188.04073 L 673.69483,167.96959 L 659.58807,153.06378 L 679.99998,150.93362 L 689.81703,132.91114 L 698.15056,151.66577 L 718.32458,155.43308 L 703.06308,169.15424 L 705.71427,189.50504 z "
       id="path2214" />
    <path
       d="M 705.7143,812.36222 L 686.29127,794.44242 L 660.51816,800.28366 L 671.55885,776.27373 L 658.03918,753.56709 L 684.28573,756.64794 L 701.70323,736.77323 L 706.8838,762.68721 L 731.16807,773.11061 L 708.12329,786.04549 L 705.7143,812.36222 z "
       id="path2216" />
    <path
       d="M 120,958.07646 L 98.853545,945.23886 L 76.289992,955.38098 L 81.96466,931.30247 L 65.346408,912.97734 L 90.000001,910.93361 L 102.29291,889.46593 L 111.855,912.28134 L 136.07069,917.33872 L 117.32679,933.48316 L 120,958.07646 z "
       id="path2218" />
    <path
       d="M 245.71429,960.93361 L 201.742,931.85561 L 152.85967,951.59418 L 166.92631,900.78844 L 133.04834,860.39814 L 185.7143,858.07647 L 213.65889,813.37532 L 232.1416,862.74619 L 283.29028,875.50966 L 242.04727,908.3442 L 245.71429,960.93361 z "
       id="path2220" />
    <path
       d="M 405.7143,995.21932 L 382.91048,974.73642 L 353.10931,981.90959 L 365.54295,953.8923 L 349.51178,927.76635 L 380.00002,930.93362 L 399.89337,907.61371 L 406.3025,937.58848 L 434.62844,949.30194 L 408.10127,964.6601 L 405.7143,995.21932 z "
       id="path2222" />
    <path
       d="M 117.14286,1023.7907 L 98.515484,1016.0574 L 81.584766,1027.018 L 83.183475,1006.9125 L 67.527429,994.19748 L 87.142863,989.50502 L 94.397612,970.68607 L 104.92191,987.89141 L 125.06164,988.97571 L 111.95057,1004.3016 L 117.14286,1023.7907 z "
       id="path2224" />
    <path
       d="M 214.28572,1049.505 L 199.10519,1031.6072 L 175.75536,1033.9661 L 188.08611,1013.9978 L 178.62723,992.51973 L 201.42858,998.07644 L 218.9325,982.44342 L 220.69376,1005.8459 L 240.97066,1017.6623 L 219.25783,1026.5691 L 214.28572,1049.505 z "
       id="path2226" />
    <path
       d="M 680.00002,1018.0765 L 650.39058,1000.9524 L 619.49808,1015.636 L 626.63428,982.18409 L 603.12302,957.34107 L 637.14288,953.79079 L 653.50461,923.75334 L 667.39384,955.01105 L 701.01721,961.2899 L 675.58137,984.15851 L 680.00002,1018.0765 z "
       id="path2228" />
    <path
       d="M 471.42857,1020.9336 L 457.88339,1014.9237 L 445.25356,1022.6747 L 446.78368,1007.9353 L 435.50915,998.31884 L 450,995.21934 L 455.66179,981.52498 L 463.0875,994.34879 L 477.86121,995.50168 L 467.9597,1006.5267 L 471.42857,1020.9336 z "
       id="path2230" />
    <path
       d="M 351.42857,52.362182 L 367.62495,38.021344 L 364.99327,16.54912 L 383.63717,27.521223 L 403.24524,18.383069 L 398.57143,39.505038 L 413.32156,55.329572 L 391.78908,57.411565 L 381.2971,76.329819 L 372.6631,56.494592 L 351.42857,52.362182 z "
       id="path2232" />
  </g>
</svg>
