<svg xmlns="http://www.w3.org/2000/svg" width="24" height="24" viewBox="0 0 24 24"><path d="M12 0c-6.617 0-12 5.383-12 12s5.383 12 12 12 12-5.383 12-12-5.383-12-12-12zm5.262 9.385l.008.34c0 3.478-2.647 7.489-7.488 7.489-1.486 0-2.87-.437-4.035-1.184 1.374.161 2.771-.207 3.896-1.089-1.151-.022-2.123-.783-2.458-1.829.396.075.803.061 1.188-.046-1.204-.24-2.111-1.305-2.111-2.579v-.035c.355.197.762.315 1.192.33-.706-.473-1.171-1.277-1.171-2.19 0-.482.13-.934.356-1.324 1.298 1.593 3.237 2.642 5.425 2.75-.045-.191-.068-.394-.068-.599 0-1.454 1.179-2.632 2.633-2.632.757 0 1.44.319 1.921.832.6-.119 1.95-.266 1.95-.266-.353.529-.724 1.66-1.238 2.032z"/></svg>