<svg xmlns="http://www.w3.org/2000/svg" viewBox="0 0 24 24"><title>walking</title><circle cx="11.369" cy="3.284" r="2.5"/><path d="M13.56,11.18a8.518,8.518,0,0,0,2.418,1.266l1.176.392a1.518,1.518,0,0,0,.475.077,1.5,1.5,0,0,0,1.483-1.275,1.551,1.551,0,0,0-1.083-1.673L16.924,9.6A5.514,5.514,0,0,1,15.36,8.78l-1.016-.762a5.7,5.7,0,0,0-5.963-.54A6.319,6.319,0,0,0,4.87,13.049a1.5,1.5,0,0,0,1.5,1.613,1.5,1.5,0,0,0,1.5-1.426,3.413,3.413,0,0,1,1.622-2.944.25.25,0,0,1,.38.214v1.357a19.425,19.425,0,0,1-.463,4.217,12.745,12.745,0,0,1-2.213,4.7A1.5,1.5,0,0,0,9.54,22.653,17.332,17.332,0,0,0,12.1,17.344a.25.25,0,0,1,.433-.081,16.621,16.621,0,0,1,2.416,4.927,1.5,1.5,0,0,0,1.423,1.026,1.48,1.48,0,0,0,.474-.078,1.5,1.5,0,0,0,.949-1.9,17.2,17.2,0,0,0-4.568-7.518.993.993,0,0,1-.355-.754V11.162a.25.25,0,0,1,.4-.2Z"/></svg>